<?xml version="1.0" standalone="no"?>
<!DOCTYPE svg PUBLIC "-//W3C//DTD SVG 1.1//EN" "http://www.w3.org/Graphics/SVG/1.1/DTD/svg11.dtd" >
<svg xmlns="http://www.w3.org/2000/svg">
<metadata></metadata>
<defs>
<font id="actoultralight" horiz-adv-x="1089" >
<font-face units-per-em="2048" ascent="1536" descent="-512" />
<missing-glyph horiz-adv-x="409" />
<glyph unicode="&#xfb01;" horiz-adv-x="1011" d="M53 946v70l164 8v135q0 139 63.5 196.5t206.5 57.5q73 0 150 -12l-10 -70q-64 10 -119 10q-109 0 -151 -43t-42 -149v-125h553v-1024h-98v946h-455v-946h-98v946h-164zM750 1239q0 59 69 59q70 0 70 -59t-70 -59q-69 0 -69 59z" />
<glyph unicode="&#xfb02;" horiz-adv-x="1105" d="M53 946v70l164 8v135q0 139 63.5 196.5t206.5 57.5q73 0 150 -12l-10 -70q-64 10 -119 10q-109 0 -151 -43t-42 -149v-125h279v-78h-279v-946h-98v946h-164zM770 156v1237h98v-1229q0 -57 24 -83t83 -26q32 0 78 11v-74q-55 -12 -109 -12q-46 0 -80 12t-51.5 29 t-27.5 42.5t-12.5 46t-2.5 46.5z" />
<glyph unicode="&#xfb03;" horiz-adv-x="1564" d="M53 946v70l164 8v135q0 139 63.5 196.5t206.5 57.5q73 0 150 -12l-10 -70q-64 10 -119 10q-109 0 -151 -43t-42 -149v-125h455v135q0 139 63.5 196.5t206.5 57.5q74 0 150 -12l-10 -70q-64 10 -119 10q-109 0 -151 -43t-42 -149v-125h553v-1024h-98v946h-455v-946h-98 v946h-455v-946h-98v946h-164zM1303 1239q0 59 69 59q70 0 70 -59t-70 -59q-69 0 -69 59z" />
<glyph unicode="&#xfb04;" horiz-adv-x="1658" d="M53 946v70l164 8v135q0 139 63.5 196.5t206.5 57.5q73 0 150 -12l-10 -70q-64 10 -119 10q-109 0 -151 -43t-42 -149v-125h455v135q0 139 63.5 196.5t206.5 57.5q74 0 150 -12l-10 -70q-64 10 -119 10q-109 0 -151 -43t-42 -149v-125h279v-78h-279v-946h-98v946h-455 v-946h-98v946h-164zM1323 156v1237h98v-1229q0 -57 24 -83t83 -26q32 0 78 11v-74q-56 -12 -109 -12q-46 0 -80 12t-51.5 29t-27.5 42.5t-12.5 46t-2.5 46.5z" />
<glyph horiz-adv-x="0" />
<glyph horiz-adv-x="682" />
<glyph unicode=" "  horiz-adv-x="409" />
<glyph unicode="&#x09;" horiz-adv-x="409" />
<glyph unicode="&#xa0;" horiz-adv-x="409" />
<glyph unicode="!" horiz-adv-x="405" d="M131 53q0 29 20 47.5t52 18.5t51.5 -18.5t19.5 -47.5t-19.5 -47t-51.5 -18t-52 18t-20 47zM147 860v533h111v-533l-20 -602h-70z" />
<glyph unicode="&#x22;" horiz-adv-x="765" d="M143 1008v385h86l-28 -385h-58zM537 1008v385h86l-29 -385h-57z" />
<glyph unicode="#" horiz-adv-x="1239" d="M143 461l7 61h204l39 369h-205l7 61h204l29 267h66l-29 -267h360l29 267h66l-29 -267h205l-6 -61h-205l-39 -369h205l-7 -61h-204l-29 -266h-66l29 266h-360l-29 -266h-66l29 266h-205zM420 522h360l39 369h-360z" />
<glyph unicode="$" horiz-adv-x="1163" d="M106 43l17 88q231 -60 442 -63v606q-61 20 -93 31t-86.5 33.5t-84.5 41t-68 49.5t-58 63.5t-34 77.5t-14 97q0 175 122 259.5t324 86.5v184h31v-184q212 -3 428 -65l-22 -86q-225 60 -412 63v-555q181 -57 252 -94q166 -84 198 -227q9 -39 9 -82q0 -184 -128 -284 t-339 -103v-185h-31v185q-242 3 -453 63zM233 1067q0 -41 11.5 -75.5t36 -61.5t52.5 -48t70.5 -40t79 -32.5t88.5 -29.5v545q-95 -1 -163.5 -23t-105 -59t-53 -80.5t-16.5 -95.5zM592 68q95 2 166.5 28.5t112 69.5t60 92t19.5 102q0 37 -10.5 69.5t-27 57.5t-44.5 48 t-55 39.5t-67.5 34t-73.5 29t-80 26.5v-596z" />
<glyph unicode="%" horiz-adv-x="1503" d="M74 1135q0 120 80 199t200 79q121 0 201 -79t80 -199q0 -121 -79.5 -200t-201.5 -79q-120 0 -200 79t-80 200zM135 1135q0 -96 62 -160t157 -64t158 64t63 160q0 94 -63 158.5t-158 64.5t-157 -64t-62 -159zM365 0l692 1393h82l-695 -1393h-79zM866 258q0 120 80.5 199.5 t202.5 79.5q120 0 200.5 -79.5t80.5 -199.5t-80.5 -199t-200.5 -79q-122 0 -202.5 79t-80.5 199zM928 258q0 -96 62.5 -159.5t158.5 -63.5q94 0 157.5 64t63.5 159t-63.5 159t-157.5 64q-96 0 -158.5 -63.5t-62.5 -159.5z" />
<glyph unicode="&#x26;" horiz-adv-x="1441" d="M111 346q0 125 82 224t282 182q-2 3 -26.5 28.5t-32.5 35t-30.5 36.5t-32 43t-26.5 44t-24 50.5t-13.5 51.5t-6.5 57q0 139 102.5 227t261.5 88q63 0 124 -9t104 -20t133 -36l-25 -78q-121 37 -184.5 50t-141.5 13q-75 0 -131 -24.5t-84.5 -63.5t-41.5 -77t-13 -74 q0 -45 13 -85t43.5 -82t53 -67t68.5 -72l494 -497q133 164 182 426h90q-53 -305 -209 -490l189 -190l-66 -66l-186 191q-198 -182 -494 -182q-224 0 -339 98.5t-115 267.5zM211 358q0 -36 8.5 -72t33.5 -77.5t64.5 -72.5t109 -52t159.5 -21q237 0 411 160l-469 475 q-57 -25 -97 -45.5t-84.5 -52t-72 -64.5t-45.5 -79t-18 -99z" />
<glyph unicode="'" horiz-adv-x="372" d="M143 1008v385h86l-28 -385h-58z" />
<glyph unicode="(" horiz-adv-x="544" d="M164 696q0 213 72.5 423t216.5 397h51q-232 -425 -232 -820q0 -394 232 -819h-51q-144 186 -216.5 396t-72.5 423z" />
<glyph unicode=")" horiz-adv-x="544" d="M41 -123q231 423 231 819q0 397 -231 820h51q144 -187 216.5 -397t72.5 -423t-72.5 -423t-216.5 -396h-51z" />
<glyph unicode="*" horiz-adv-x="684" d="M86 1098v71l233 -26l-182 143l49 53l146 -182l-27 236h72l-27 -236l146 182l49 -53l-183 -143l236 26v-71l-236 26l183 -143l-49 -53l-146 184l27 -235h-72l27 235l-146 -184l-49 53l182 143z" />
<glyph unicode="+" horiz-adv-x="1024" d="M143 670v73h332v332h74v-332h332v-73h-332v-332h-74v332h-332z" />
<glyph unicode="," horiz-adv-x="376" d="M66 -207q83 170 86 363h98q-3 -113 -28.5 -199t-88.5 -182z" />
<glyph unicode="-" horiz-adv-x="921" d="M143 506v74h635v-74h-635z" />
<glyph unicode="." horiz-adv-x="397" d="M127 53q0 29 20 47.5t52 18.5t51.5 -18.5t19.5 -47.5t-19.5 -47t-51.5 -18t-52 18t-20 47z" />
<glyph unicode="/" horiz-adv-x="1044" d="M135 0l692 1393h82l-692 -1393h-82z" />
<glyph unicode="0" horiz-adv-x="1286" d="M143 705q0 118 17 221t55.5 193.5t95.5 155t142 101.5t190 37t190 -37t142 -101.5t95.5 -155t55.5 -193.5t17 -221q0 -120 -17 -225.5t-55.5 -198.5t-95.5 -159t-142 -104t-190 -38t-190 38t-142 104t-95.5 159t-55.5 198.5t-17 225.5zM250 705q0 -100 12 -189t40.5 -172 t72.5 -142.5t112.5 -95.5t155.5 -36t155.5 36t112.5 95.5t72.5 142.5t40.5 172t12 189t-12 187t-40.5 168t-72.5 138t-112.5 91t-155.5 34t-155.5 -34t-112.5 -91t-72.5 -138t-40.5 -168t-12 -187z" />
<glyph unicode="1" horiz-adv-x="638" d="M86 1221l336 180h70v-1401h-105v1274l-100 -53l-170 -95z" />
<glyph unicode="2" horiz-adv-x="1044" d="M70 0v90q415 359 569 553t154 367q0 70 -21 125.5t-54 90.5t-77.5 58.5t-88.5 33t-89 9.5q-181 0 -373 -92l-20 76q104 50 200.5 76t212.5 26q102 0 182.5 -30.5t131 -83.5t76.5 -123t26 -152q0 -56 -11 -110t-36.5 -108t-52.5 -101t-73.5 -102.5t-84 -97t-100.5 -101.5 t-106 -99.5t-116.5 -106.5t-117.5 -108v-4l241 4h480v-90h-852z" />
<glyph unicode="3" horiz-adv-x="1116" d="M70 74l34 80q169 -88 388 -88q71 0 128.5 12t95.5 30.5t66 45.5t43 52.5t23.5 57.5t11 54t2.5 47q0 129 -98 209.5t-299 80.5h-162v82h158q167 0 265.5 89t98.5 212q0 35 -6.5 69t-28 76t-56.5 73t-98 52t-147 21q-191 0 -350 -88l-30 78q184 94 399 94 q205 0 313.5 -95.5t108.5 -266.5q0 -129 -82.5 -218t-208.5 -124v-4q153 -23 243.5 -117t90.5 -230q0 -183 -118.5 -280.5t-352.5 -97.5q-265 0 -432 94z" />
<glyph unicode="4" horiz-adv-x="1155" d="M90 389v88l641 916h133v-916h201v-88h-201v-389h-106v389h-668zM199 477h559v498l2 301h-4l-211 -301z" />
<glyph unicode="5" horiz-adv-x="1118" d="M102 82l27 80q186 -96 387 -96q167 0 270 89t103 242q0 90 -36.5 157t-98 108.5t-155 67.5t-194 36.5t-229.5 11.5l29 615h708v-86h-616l-27 -445q134 -2 241.5 -18t199.5 -50t153.5 -86.5t96 -130t34.5 -178.5q0 -188 -130 -303.5t-345 -115.5q-212 0 -418 102z" />
<glyph unicode="6" horiz-adv-x="1191" d="M143 618q0 146 20.5 266t59 206t89.5 149.5t115.5 101t134.5 55t149 17.5q63 0 120 -7.5t90.5 -15.5t84.5 -24l-15 -80q-139 43 -278 43q-82 0 -150 -25.5t-114 -65t-82.5 -96.5t-57 -111t-35 -118t-20 -107.5t-8.5 -90.5q1 0 2 -1t2 -1q68 102 164 160.5t207 58.5 q199 0 313.5 -124.5t114.5 -352.5q0 -217 -125 -346t-314 -129q-467 0 -467 638zM250 625q0 -68 3.5 -124.5t14 -115.5t27.5 -105t44.5 -87t64 -68.5t88.5 -43t116 -15.5q142 0 240 102.5t98 282.5q0 56 -8.5 107t-32.5 105.5t-61.5 94t-101 65t-146.5 25.5 q-100 0 -192.5 -62.5t-153.5 -160.5z" />
<glyph unicode="7" horiz-adv-x="937" d="M74 1307v86h790v-72l-563 -1321h-104l436 1024l125 281v4h-197z" />
<glyph unicode="8" horiz-adv-x="1236" d="M143 342q0 74 29.5 135.5t84 106.5t117 77t142.5 60v4q-334 112 -334 348q0 157 121 248.5t318 91.5q193 0 312.5 -91t119.5 -245q0 -66 -23 -118.5t-70.5 -92.5t-102 -69.5t-136.5 -61.5v-4q86 -33 147 -65.5t115.5 -78t82.5 -105t28 -132.5q0 -172 -125.5 -271 t-352.5 -99q-226 0 -349.5 96t-123.5 266zM252 350q0 -58 18.5 -107.5t59 -91.5t114 -66t172.5 -24t172 23.5t114 65t60 90.5t19 106q0 40 -12.5 76t-29.5 63t-50 53.5t-59.5 43.5t-72 38t-74.5 32t-79 30q-74 -25 -130 -52t-110 -66.5t-83 -93.5t-29 -120zM295 1069 q0 -59 25 -106.5t73 -82.5t104.5 -60t131.5 -46q73 25 125 50t98.5 60t70 81t23.5 102q0 77 -33 132t-86 82t-104.5 38.5t-104.5 11.5q-39 0 -79 -6.5t-85 -24.5t-79.5 -45.5t-57 -76t-22.5 -109.5z" />
<glyph unicode="9" horiz-adv-x="1191" d="M143 938q0 217 125 346t312 129q469 0 469 -639q0 -175 -30 -312t-81.5 -226.5t-124.5 -148t-154.5 -83t-177.5 -24.5q-64 0 -121 7.5t-89.5 15.5t-84.5 24l15 79q139 -43 278 -43q82 0 150 25.5t114 64.5t82.5 96.5t57 111t35 118t20 107.5t8.5 90l-4 2 q-68 -100 -165 -158.5t-206 -58.5q-199 0 -313.5 124.5t-114.5 352.5zM246 942q0 -56 8.5 -107t32.5 -105.5t61.5 -94t101 -65t146.5 -25.5q100 0 192.5 62.5t153.5 160.5q0 68 -3.5 124.5t-14 115.5t-27.5 105t-44.5 87t-64 68.5t-88.5 43t-116 15.5q-142 0 -240 -102.5 t-98 -282.5z" />
<glyph unicode=":" horiz-adv-x="397" d="M127 53q0 29 20 47.5t52 18.5t51.5 -18.5t19.5 -47.5t-19.5 -47t-51.5 -18t-52 18t-20 47zM127 733q0 29 20 47.5t52 18.5t51.5 -18.5t19.5 -47.5t-19.5 -47t-51.5 -18t-52 18t-20 47z" />
<glyph unicode=";" horiz-adv-x="397" d="M66 -207q83 170 86 363h98q-3 -113 -28.5 -199t-88.5 -182zM127 733q0 29 20 47.5t52 18.5t51.5 -18.5t19.5 -47.5t-19.5 -47t-51.5 -18t-52 18t-20 47z" />
<glyph unicode="&#x3c;" horiz-adv-x="765" d="M143 678v57l480 340v-86l-394 -282l394 -283v-86z" />
<glyph unicode="=" horiz-adv-x="1024" d="M143 629v73h738v-73h-738zM143 711v73h738v-73h-738z" />
<glyph unicode="&#x3e;" horiz-adv-x="765" d="M143 338v86l394 283l-394 282v86l480 -340v-57z" />
<glyph unicode="?" horiz-adv-x="1009" d="M74 1311q104 50 200.5 76t212.5 26q102 0 182.5 -30.5t131 -83.5t76.5 -123t26 -152q0 -58 -15.5 -110.5t-38 -92.5t-60.5 -78.5t-70 -64t-81 -54t-79.5 -44t-78.5 -38.5q-14 -7 -21 -10v-200h-86v254q174 82 242 128q166 113 181 268q1 16 1 32q0 69 -20.5 124t-53 89.5 t-77 57.5t-88.5 32.5t-91 9.5q-181 0 -373 -92zM344 53q0 29 20 47.5t52 18.5t51.5 -18.5t19.5 -47.5t-19.5 -47t-51.5 -18t-52 18t-20 47z" />
<glyph unicode="@" horiz-adv-x="1830" d="M127 514q0 236 104 422t293 290.5t430 104.5q219 0 389.5 -83.5t265.5 -235.5t95 -348q0 -110 -33.5 -205.5t-97.5 -168t-163.5 -114t-223.5 -41.5h-60l-16 80q-104 -86 -217 -86q-142 0 -212.5 102.5t-70.5 270.5q0 166 84.5 267t247.5 101q144 0 250 -53v-610 q100 0 178 31t123.5 78t75.5 110t40.5 120.5t10.5 115.5q0 183 -89.5 318.5t-238.5 203t-338 67.5q-221 0 -389 -88.5t-261 -256.5t-93 -392q0 -312 185 -499t489 -187q0 -12 -1 -38t-1 -40q-226 0 -399 100t-265 273t-92 391zM696 504q0 -67 11.5 -121.5t36 -99.5t69 -70 t105.5 -25q105 0 192 82v500q-79 37 -170 37q-244 0 -244 -303z" />
<glyph unicode="A" horiz-adv-x="1280" d="M70 0l512 1403h131l497 -1403h-110l-142 397h-636l-146 -397h-106zM342 479h596l-291 817h-4z" />
<glyph unicode="B" horiz-adv-x="1261" d="M164 0v1393h536q190 0 294 -98t104 -255q0 -125 -64.5 -210.5t-185.5 -116.5v-4q140 -27 215.5 -118.5t75.5 -223.5q0 -170 -103 -268.5t-295 -98.5h-577zM270 90h461q146 0 223.5 73.5t77.5 213.5q0 132 -85 209.5t-249 77.5h-428v-574zM270 754h424q146 0 221.5 69 t75.5 205q0 127 -77.5 201t-219.5 74h-424v-549z" />
<glyph unicode="C" horiz-adv-x="1273" d="M143 696q0 124 18 228.5t60.5 196t107.5 155.5t163.5 100.5t224.5 36.5q219 0 450 -90l-20 -84q-237 84 -420 84q-106 0 -189 -33.5t-136.5 -90t-88 -138t-49 -171t-14.5 -194.5t14.5 -194.5t49 -170.5t88 -137.5t136.5 -90t189 -33.5q183 0 420 84l20 -84 q-231 -90 -450 -90q-126 0 -224.5 36.5t-163.5 100t-107.5 155.5t-60.5 196t-18 228z" />
<glyph unicode="D" horiz-adv-x="1339" d="M164 0v1393h471q123 0 220 -35t160.5 -96.5t104.5 -149.5t58.5 -188t17.5 -219q0 -122 -17.5 -224t-58.5 -192.5t-104.5 -153.5t-160.5 -99t-220 -36h-471zM266 90h369q104 0 184 34t130.5 90t82.5 137t45 167t13 187q0 598 -455 598h-369v-1213z" />
<glyph unicode="E" horiz-adv-x="1118" d="M164 0v1393h837v-90h-731v-533h639v-90h-639v-590h742v-90h-848z" />
<glyph unicode="F" horiz-adv-x="1062" d="M164 0v1393h813v-90h-707v-574h615v-90h-615v-639h-106z" />
<glyph unicode="G" horiz-adv-x="1331" d="M143 696q0 124 18 228.5t60.5 196t107.5 155.5t163.5 100.5t224.5 36.5q219 0 450 -90l-20 -84q-237 84 -420 84q-106 0 -189 -33.5t-136.5 -90t-88 -138t-49 -171t-14.5 -194.5t14.5 -194.5t49.5 -170.5t87.5 -138t133.5 -90t184 -33q169 0 342 61v537h106v-598 q-231 -90 -450 -90q-126 0 -224.5 36.5t-163.5 100t-107.5 155.5t-60.5 196t-18 228z" />
<glyph unicode="H" horiz-adv-x="1323" d="M164 0v1393h106v-623h783v623h106v-1393h-106v680h-783v-680h-106z" />
<glyph unicode="I" horiz-adv-x="434" d="M164 0v1393h106v-1393h-106z" />
<glyph unicode="J" horiz-adv-x="606" d="M37 -6l12 86q61 -10 115 -10q172 0 172 213v1110h106v-1114q0 -154 -62.5 -226.5t-189.5 -72.5q-64 0 -153 14z" />
<glyph unicode="K" horiz-adv-x="1220" d="M164 0v1393h106v-1393h-106zM287 694l698 699h131l-700 -695l719 -698h-140z" />
<glyph unicode="L" horiz-adv-x="1056" d="M164 0v1393h106v-1303h717v-90h-823z" />
<glyph unicode="M" horiz-adv-x="1650" d="M164 0v1393h131l303 -582l227 -430h4l226 430l299 582h133v-1393h-105v1223h-4l-518 -985h-78l-518 985h-2v-1223h-98z" />
<glyph unicode="N" horiz-adv-x="1347" d="M164 0v1393h98l821 -1213h2v1213h99v-1393h-105l-815 1202h-2v-1202h-98z" />
<glyph unicode="O" horiz-adv-x="1409" d="M143 705q0 119 17.5 221t59 193.5t105 155t160.5 101t220 37.5t220 -37.5t160 -101t104.5 -155t59 -193.5t17.5 -221q0 -122 -17.5 -226t-59 -197.5t-104.5 -159t-160 -104t-220 -38.5t-220 38.5t-160.5 104t-105 159t-59 197.5t-17.5 226zM250 705q0 -101 13 -189 t45 -172t82.5 -143t131 -95t183.5 -36t183.5 36t130.5 95t82.5 143t45 172t12.5 189t-12.5 187.5t-45 167.5t-82.5 138t-130.5 91t-183.5 34t-183.5 -34t-131 -91t-82.5 -138t-45 -167.5t-13 -187.5z" />
<glyph unicode="P" horiz-adv-x="1226" d="M164 0v1393h553q189 0 296 -109t107 -278q0 -178 -105.5 -283t-297.5 -105h-447v-618h-106zM270 709h439q146 0 225.5 76t79.5 221q0 135 -81 216t-224 81h-439v-594z" />
<glyph unicode="Q" horiz-adv-x="1409" d="M143 705q0 119 17.5 221t59 193.5t105 155t160.5 101t220 37.5t220 -37.5t160 -101t104.5 -155t59 -193.5t17.5 -221q0 -137 -23.5 -252t-73.5 -213.5t-137.5 -163.5t-206.5 -86l269 -258l-66 -64l-323 312q-123 0 -220 38.5t-160.5 104t-105 159t-59 197.5t-17.5 226z M250 705q0 -101 13 -189t45 -172t82.5 -143t131 -95t183.5 -36t183.5 36t130.5 95t82.5 143t45 172t12.5 189t-12.5 187.5t-45 167.5t-82.5 138t-130.5 91t-183.5 34t-183.5 -34t-131 -91t-82.5 -138t-45 -167.5t-13 -187.5z" />
<glyph unicode="R" horiz-adv-x="1245" d="M164 0v1393h553q188 0 295.5 -115t107.5 -285q0 -161 -87.5 -268t-246.5 -127l377 -598h-121l-370 594h-402v-594h-106zM270 684h439q142 0 223.5 83t81.5 226q0 135 -82 222.5t-215 87.5h-447v-619z" />
<glyph unicode="S" horiz-adv-x="1163" d="M106 43l17 88q248 -63 455 -63q98 0 173 26t116.5 69t62 93t20.5 104q0 63 -28 112t-76 81.5t-109.5 58.5t-130 48t-136.5 45t-129.5 54t-109.5 70.5t-76 100t-28 137.5q0 91 34.5 159t97.5 108t143.5 59.5t179.5 19.5q222 0 450 -65l-22 -86q-241 63 -426 63 q-99 0 -170 -21t-109 -58.5t-55 -81.5t-17 -97q0 -78 45.5 -134t118 -89t160.5 -60.5t176 -58.5t160.5 -72.5t118 -114t45.5 -171.5q0 -185 -130.5 -286t-344.5 -101q-252 0 -476 63z" />
<glyph unicode="T" horiz-adv-x="1105" d="M86 1303v90h934v-90h-414v-1303h-106v1303h-414z" />
<glyph unicode="U" horiz-adv-x="1327" d="M164 496v897h106v-897q0 -40 2 -72t11.5 -78t25 -82t45.5 -74t70.5 -63t102.5 -41t139 -16q76 0 137 16t101 41t69.5 63t45 74t25 81.5t11.5 78.5t2 72v897h106v-897q0 -516 -499 -516q-500 0 -500 516z" />
<glyph unicode="V" horiz-adv-x="1280" d="M70 1393h110l309 -885l144 -404h4l147 404l320 885h106l-512 -1403h-131z" />
<glyph unicode="W" horiz-adv-x="1878" d="M70 1393h110l234 -828l116 -428h2l117 428l232 828h120l234 -828l117 -428h2l114 428l234 828h106l-393 -1403h-129l-346 1231h-4l-344 -1231h-129z" />
<glyph unicode="X" horiz-adv-x="1300" d="M86 0l494 735l-443 658h121l207 -306l184 -272h4l183 275l206 303h117l-444 -658l499 -735h-122l-269 389l-180 266h-4l-178 -268l-262 -387h-113z" />
<glyph unicode="Y" horiz-adv-x="1216" d="M70 1393h114l219 -410l205 -393h4l205 393l219 410h111l-485 -914v-479h-107v479z" />
<glyph unicode="Z" horiz-adv-x="1161" d="M106 0v76l789 1222v5h-748v90h885v-76l-786 -1223v-4h809v-90h-949z" />
<glyph unicode="[" horiz-adv-x="544" d="M164 -90v1573h330v-49h-224v-1475h234v-49h-340z" />
<glyph unicode="\" horiz-adv-x="1044" d="M135 1393h82l692 -1393h-82z" />
<glyph unicode="]" horiz-adv-x="544" d="M41 -41h233v1475h-223v49h330v-1573h-340v49z" />
<glyph unicode="^" horiz-adv-x="720" d="M94 1044l211 390h109l213 -390h-74l-195 328l-190 -328h-74z" />
<glyph unicode="_" horiz-adv-x="1003" d="M143 -82h717v-65h-717v65z" />
<glyph unicode="`" horiz-adv-x="505" d="M94 1319l49 67l269 -229l-41 -51z" />
<glyph unicode="a" horiz-adv-x="1030" d="M106 227q0 162 173 256.5t509 116.5v135q0 114 -67.5 175t-196.5 61q-138 0 -334 -76l-22 72q220 77 369 77q158 0 254 -76.5t96 -230.5v-737h-88l-11 145q-92 -89 -185 -127t-200 -38q-128 0 -212.5 64.5t-84.5 182.5zM205 242q0 -84 58.5 -134.5t164.5 -50.5 q202 0 360 162v316q-281 -15 -432 -95.5t-151 -197.5z" />
<glyph unicode="b" horiz-adv-x="1093" d="M143 61v1332h99v-471h4q136 122 321 122q103 0 182 -40t126.5 -112.5t71.5 -168t24 -211.5t-28.5 -211.5t-85 -168t-147 -112.5t-208.5 -40q-207 0 -359 81zM242 113q117 -60 258 -60q95 0 167.5 35t115.5 98t64 143.5t21 178.5q0 96 -18 175.5t-56.5 143.5t-104 100 t-154.5 36q-159 0 -293 -113v-737z" />
<glyph unicode="c" horiz-adv-x="933" d="M123 512q0 116 27.5 211t83 168t147.5 113t213 40q119 0 254 -43l-17 -75q-125 41 -227 41q-103 0 -179 -36.5t-118 -101t-62 -143.5t-20 -174t20 -174t62 -143.5t118 -101t179 -36.5q102 0 227 41l17 -75q-135 -43 -254 -43q-121 0 -213 40t-147.5 113t-83 168 t-27.5 211z" />
<glyph unicode="d" horiz-adv-x="1093" d="M123 512q0 116 24.5 211.5t73 168t128 112.5t183.5 40q183 0 316 -120h4v469h98v-1393h-86l-12 102h-4q-136 -122 -322 -122q-104 0 -182.5 40t-126 113t-71 168t-23.5 211zM225 512q0 -94 18.5 -173t56.5 -142.5t104.5 -99.5t154.5 -36q161 0 293 111v678 q-134 113 -293 113q-88 0 -154.5 -36t-104.5 -99.5t-56.5 -142.5t-18.5 -173z" />
<glyph unicode="e" horiz-adv-x="1110" d="M123 512q0 118 27.5 213.5t84 167.5t148 111.5t213.5 39.5q92 0 163.5 -25t113.5 -63t68.5 -90t36 -100t9.5 -100q0 -91 -20 -162h-742q1 -100 21.5 -177.5t66 -140t127 -96t195.5 -33.5q173 0 293 43l14 -73q-88 -27 -159.5 -37t-164.5 -10q-132 0 -229 39.5t-154 112 t-84.5 167t-27.5 213.5zM225 578h656q12 52 12 110q0 125 -74.5 206t-224.5 81q-78 0 -140.5 -22.5t-103.5 -59.5t-68.5 -89.5t-40.5 -107.5t-16 -118z" />
<glyph unicode="f" horiz-adv-x="673" d="M53 946v70l164 8v135q0 139 63.5 196.5t206.5 57.5q73 0 150 -12l-10 -70q-64 10 -119 10q-109 0 -151 -43t-42 -149v-125h279v-78h-279v-946h-98v946h-164z" />
<glyph unicode="g" horiz-adv-x="1093" d="M123 512q0 116 28.5 212t85 168t147 112t208.5 40q206 0 358 -81v-1006q0 -155 -112.5 -250.5t-302.5 -95.5q-174 0 -342 43l16 74q158 -41 313 -41q87 0 153.5 24.5t103.5 65.5t55 87t18 95v152h-4q-137 -123 -322 -123q-104 0 -182.5 39t-126 110.5t-71 165 t-23.5 209.5zM225 520q0 -76 11 -141.5t36.5 -123t63.5 -98t95 -64t128 -23.5q91 0 166.5 33.5t126.5 76.5v731q-117 60 -258 60q-95 0 -167.5 -35t-115.5 -97.5t-64.5 -142.5t-21.5 -176z" />
<glyph unicode="h" d="M143 0v1393h99v-525h4q192 176 393 176q307 0 307 -327v-717h-98v700q0 263 -246 263q-170 0 -360 -160v-803h-99z" />
<glyph unicode="i" horiz-adv-x="385" d="M123 1239q0 59 70 59q69 0 69 -59t-69 -59q-70 0 -70 59zM143 0v1024h99v-1024h-99z" />
<glyph unicode="j" horiz-adv-x="385" d="M-115 -377l11 74q48 -10 90 -10q38 0 66 13.5t45 36t27.5 56.5t14.5 69.5t4 80.5v1081h99v-1081q0 -163 -56 -247.5t-180 -84.5q-69 0 -121 12zM123 1239q0 59 70 59q69 0 69 -59t-69 -59q-70 0 -70 59z" />
<glyph unicode="k" horiz-adv-x="978" d="M143 0v1393h99v-1393h-99zM258 543l518 481h117l-524 -475l544 -549h-118z" />
<glyph unicode="l" horiz-adv-x="479" d="M143 156v1237h99v-1229q0 -57 24 -83t82 -26q32 0 78 11v-74q-56 -12 -109 -12q-46 0 -80 12t-51.5 29t-27.5 42.5t-12.5 46t-2.5 46.5z" />
<glyph unicode="m" horiz-adv-x="1761" d="M143 0v1024h86l13 -156h4q93 85 181.5 130.5t195.5 45.5q231 0 288 -190q105 97 199 143.5t201 46.5q307 0 307 -327v-717h-98v700q0 263 -246 263q-171 0 -350 -166q6 -43 6 -97v-700h-99v700q0 263 -245 263q-54 0 -106 -15t-100 -44.5t-74 -49t-64 -51.5v-803h-99z " />
<glyph unicode="n" d="M143 0v1024h86l13 -150q201 170 397 170q307 0 307 -327v-717h-98v700q0 263 -246 263q-170 0 -360 -160v-803h-99z" />
<glyph unicode="o" horiz-adv-x="1126" d="M123 512q0 110 26.5 204.5t78.5 168.5t138 116.5t197 42.5t197 -42.5t138.5 -116.5t79 -168.5t26.5 -204.5t-26.5 -204.5t-79 -168.5t-138.5 -116.5t-197 -42.5t-197 42.5t-138 116.5t-78.5 168.5t-26.5 204.5zM225 512q0 -95 18.5 -175t57.5 -145t106 -102t156 -37 t156 37t106 102t57.5 145t18.5 175q0 94 -18.5 174t-57.5 145.5t-106 102.5t-156 37t-156 -37t-106 -102.5t-57.5 -145.5t-18.5 -174z" />
<glyph unicode="p" horiz-adv-x="1093" d="M143 -369v1393h86l13 -102h4q136 122 321 122q103 0 182 -40t126.5 -112.5t71.5 -168t24 -211.5t-24.5 -211.5t-73.5 -168t-128.5 -112.5t-183.5 -40q-182 0 -315 120h-4v-469h-99zM242 172q132 -111 293 -111q88 0 154 36t104.5 99.5t56.5 142.5t18 173t-18 173 t-56.5 142.5t-104.5 99.5t-154 36q-159 0 -293 -113v-678z" />
<glyph unicode="q" horiz-adv-x="1093" d="M123 512q0 116 28.5 211.5t85 168t147 112.5t208.5 40q206 0 358 -81v-1332h-98v471h-4q-136 -122 -322 -122q-104 0 -182.5 40t-126 113t-71 168t-23.5 211zM225 516q0 -96 18.5 -175.5t56.5 -143.5t104 -100t155 -36q161 0 293 111v739q-117 60 -258 60 q-95 0 -167.5 -35t-115.5 -97.5t-64.5 -143.5t-21.5 -179z" />
<glyph unicode="r" horiz-adv-x="663" d="M143 0v1024h86l13 -176h4q80 90 182 143t215 53v-94q-199 0 -401 -162v-788h-99z" />
<glyph unicode="s" horiz-adv-x="983" d="M113 23l18 75q170 -47 336 -47q72 0 127 15.5t85 37.5t49 51.5t24.5 53t5.5 45.5q0 56 -34.5 98t-89.5 67.5t-122 47.5t-133.5 47t-121.5 56.5t-89.5 84t-34.5 123.5q0 122 103.5 194t285.5 72q94 0 163 -9.5t163 -33.5l-17 -75q-165 47 -301 47q-82 0 -141.5 -19 t-89 -49t-42.5 -59.5t-13 -59.5q0 -45 21.5 -80t57.5 -59t83 -44t99 -37t104 -35t99 -42t83 -53.5t57.5 -73t21.5 -98.5q0 -133 -105.5 -208.5t-285.5 -75.5q-198 0 -366 43z" />
<glyph unicode="t" horiz-adv-x="610" d="M53 946v70l164 8v287h98v-287h242v-78h-242v-733q0 -158 144 -158q52 0 98 11v-74q-55 -12 -133 -12q-207 0 -207 225v741h-164z" />
<glyph unicode="u" d="M143 307v717h99v-700q0 -263 245 -263q171 0 361 160v803h98v-1024h-86l-12 156h-4q-192 -176 -393 -176q-308 0 -308 327z" />
<glyph unicode="v" horiz-adv-x="1026" d="M53 1024h111l239 -618l109 -312h6l109 312l237 618h109l-402 -1034h-118z" />
<glyph unicode="w" horiz-adv-x="1591" d="M53 1024h107l205 -618l92 -320h6l88 320l190 618h107l192 -618l88 -320h5l94 320l203 618h108l-344 -1034h-121l-278 923l-281 -923h-117z" />
<glyph unicode="x" horiz-adv-x="1060" d="M70 0l391 518l-389 506h121l215 -279l124 -172h5l131 181l213 270h106l-391 -506l395 -518h-121l-217 276l-129 177h-4l-131 -185l-207 -268h-112z" />
<glyph unicode="y" horiz-adv-x="1026" d="M53 1024h111q27 -66 73 -187.5t64 -168.5l23 -52q28 -81 92 -255t96 -267h6l84 252q12 31 38 96t38 97l186 485h109l-539 -1393h-94l145 385h-41z" />
<glyph unicode="z" horiz-adv-x="962" d="M78 0v74l670 868v4h-639v78h761v-74l-665 -868v-4h680v-78h-807z" />
<glyph unicode="{" horiz-adv-x="569" d="M102 666v61q83 10 113.5 57t30.5 136q0 62 -10.5 158t-10.5 149q0 289 303 289v-46q-45 0 -77.5 -9t-63.5 -33.5t-47 -76.5t-16 -130q0 -50 11 -148t11 -164q0 -94 -42 -144.5t-122 -68.5q80 -18 122 -68.5t42 -144.5q0 -66 -11 -163.5t-11 -147.5q0 -78 16 -130t47 -77 t63.5 -34t77.5 -9v-45q-303 0 -303 289q0 51 10.5 148t10.5 159q0 89 -30.5 136t-113.5 57z" />
<glyph unicode="|" horiz-adv-x="397" d="M164 -205v1802h69v-1802h-69z" />
<glyph unicode="}" horiz-adv-x="569" d="M41 -78q45 0 77.5 9t63.5 34t47.5 77t16.5 130q0 50 -11.5 147.5t-11.5 163.5q0 94 42 144.5t122 68.5q-80 18 -122 68.5t-42 144.5q0 66 11.5 164t11.5 148q0 78 -16.5 130t-47.5 76.5t-63.5 33.5t-77.5 9v46q303 0 303 -289q0 -53 -10 -149t-10 -158q0 -89 30 -136 t113 -57v-61q-83 -10 -113 -57t-30 -136q0 -62 10 -159t10 -148q0 -289 -303 -289v45z" />
<glyph unicode="~" horiz-adv-x="864" d="M94 625q65 80 116.5 111.5t108.5 31.5q33 0 73.5 -20t71.5 -44.5t66 -44.5t58 -20q32 0 63.5 22t69.5 84l49 -43q-72 -147 -178 -147q-34 0 -85 32.5t-101 64.5t-82 32q-41 0 -79 -20.5t-108 -90.5z" />
<glyph unicode="&#xa1;" horiz-adv-x="405" d="M131 971q0 29 20 47t52 18t51.5 -18t19.5 -47t-19.5 -47.5t-51.5 -18.5t-52 18.5t-20 47.5zM147 164l21 602h70l20 -602v-533h-111v533z" />
<glyph unicode="&#xa2;" horiz-adv-x="1236" d="M106 696q0 123 18 226.5t59.5 194.5t105 155t160 101.5t219.5 39.5v184h32v-184q216 -6 430 -90l-20 -84q-230 81 -410 84v-1253q180 3 410 84l20 -84q-214 -84 -430 -90v-185h-32v185q-123 2 -219.5 39.5t-160 101t-105 155t-59.5 194.5t-18 226zM213 696 q0 -103 14 -191t47 -168t84 -137t130 -91.5t180 -38.5v1253q-101 -4 -180 -39t-130 -91.5t-84 -137t-47 -168.5t-14 -191z" />
<glyph unicode="&#xa3;" horiz-adv-x="1232" d="M106 680v57h197q-41 84 -63.5 161.5t-22.5 174.5q0 117 61.5 195t161 111.5t232.5 33.5q222 0 450 -65l-22 -86q-241 63 -424 63q-99 0 -170.5 -22t-109.5 -61t-55 -84t-17 -99q0 -91 22 -164.5t62 -157.5h436v-57h-410q66 -147 66 -264q0 -116 -48 -200.5t-130 -129.5 v-4l325 8h479v-90h-979v84q120 25 185 118t65 212q0 121 -67 266h-224z" />
<glyph unicode="&#xa4;" horiz-adv-x="1050" d="M143 928l17 16l162 -184q90 74 204 74q113 0 203 -74l160 184l18 -16l-159 -183q102 -96 102 -235q0 -68 -26.5 -129t-73.5 -105l155 -176l-18 -18l-158 178q-88 -72 -203 -72q-116 0 -204 72l-156 -178l-19 18l156 176q-98 95 -98 234q0 138 98 233zM229 510 q0 -122 87.5 -209.5t209.5 -87.5t210.5 88t88.5 209q0 122 -88.5 210.5t-210.5 88.5q-121 0 -209 -88.5t-88 -210.5z" />
<glyph unicode="&#xa5;" horiz-adv-x="1224" d="M74 1393h114l220 -410l204 -393h4l205 393l219 410h111l-471 -885h305v-41h-319v-467h-107v467h-319v41h305z" />
<glyph unicode="&#xa6;" horiz-adv-x="397" d="M164 -205v778h69v-778h-69zM164 819v778h69v-778h-69z" />
<glyph unicode="&#xa7;" horiz-adv-x="1200" d="M131 -131l25 74q242 -64 417 -64q78 0 141.5 20t104.5 52.5t69 75.5t40 87.5t12 90.5q0 93 -27.5 185.5t-78.5 183.5t-102.5 168.5t-123 181.5t-116.5 182l40 20q43 -56 113 -145t109.5 -140.5t93 -126.5t83.5 -129.5t60 -121t43 -131t13 -131.5q0 -189 -131.5 -293.5 t-335.5 -104.5q-220 0 -449 66zM152 1139q0 128 63.5 219.5t167.5 134.5t238 43q216 0 448 -66l-29 -73q-235 63 -415 63q-79 0 -142.5 -19.5t-104.5 -51.5t-69 -75t-39.5 -87t-11.5 -90q0 -93 27 -186.5t78.5 -184.5t103 -168.5t123.5 -182.5t117 -182l-41 -20 q-42 55 -113 145.5t-109.5 141t-92.5 126.5t-83.5 130t-59.5 121t-43 131.5t-13 130.5z" />
<glyph unicode="&#xa8;" horiz-adv-x="667" d="M74 1241q0 30 18 46t45 16t45.5 -16t18.5 -46q0 -29 -18.5 -45t-45.5 -16t-45 16t-18 45zM467 1241q0 31 17.5 46.5t45.5 15.5q27 0 45.5 -16t18.5 -46q0 -29 -18.5 -45t-45.5 -16q-28 0 -45.5 15.5t-17.5 45.5z" />
<glyph unicode="&#xa9;" horiz-adv-x="1153" d="M57 891q0 106 40.5 201.5t109.5 164.5t165.5 109.5t202.5 40.5q141 0 261 -68.5t190 -187.5t70 -260t-70 -260t-190 -187.5t-261 -68.5q-106 0 -202.5 40.5t-165.5 109.5t-109.5 164.5t-40.5 201.5zM92 891q0 -201 141 -342t342 -141q200 0 343 141.5t143 341.5 t-143 340.5t-343 140.5q-132 0 -243 -64t-175.5 -174.5t-64.5 -242.5zM371 891q0 117 50 187.5t161 70.5q80 0 161 -35q-4 -9 -8 -31q-88 29 -151 29q-89 0 -128.5 -61t-39.5 -160t39.5 -160t128.5 -61q66 0 151 28q3 -16 8 -32q-87 -33 -161 -33q-111 0 -161 70.5 t-50 187.5z" />
<glyph unicode="&#xaa;" horiz-adv-x="737" d="M61 594v51h615v-51h-615zM111 918q0 94 107 153t302 68v80q0 67 -41 104t-117 37q-82 0 -200 -47l-12 47q133 45 221 45q96 0 153.5 -45.5t57.5 -138.5v-443h-56q-4 60 -8 90q-99 -102 -235 -102q-74 0 -123 40.5t-49 111.5zM174 926q0 -51 35 -81t100 -30q114 0 211 94 v189q-169 -9 -257.5 -56t-88.5 -116z" />
<glyph unicode="&#xab;" horiz-adv-x="1257" d="M143 483v58l480 340v-86l-394 -283l394 -283v-86zM635 483v58l479 340v-86l-393 -283l393 -283v-86z" />
<glyph unicode="&#xac;" horiz-adv-x="1208" d="M184 700v74h840v-303h-74v229h-766z" />
<glyph unicode="&#xad;" horiz-adv-x="921" d="M143 506v74h635v-74h-635z" />
<glyph unicode="&#xae;" horiz-adv-x="1153" d="M57 891q0 106 40.5 201.5t109.5 164.5t165.5 109.5t202.5 40.5q141 0 261 -68.5t190 -187.5t70 -260t-70 -260t-190 -187.5t-261 -68.5q-106 0 -202.5 40.5t-165.5 109.5t-109.5 164.5t-40.5 201.5zM92 891q0 -201 141 -342t342 -141q200 0 343 141.5t143 341.5 t-143 340.5t-343 140.5q-132 0 -243 -64t-175.5 -174.5t-64.5 -242.5zM414 641v502h202q67 0 107.5 -42.5t40.5 -105.5q0 -57 -32 -95.5t-87 -45.5l133 -213h-49l-129 211h-141v-211h-45zM459 889h151q51 0 80 28t29 78q0 48 -29.5 79.5t-79.5 31.5h-151v-217z" />
<glyph unicode="&#xaf;" horiz-adv-x="786" d="M94 1200v62h598v-62h-598z" />
<glyph unicode="&#xb0;" horiz-adv-x="516" d="M94 1249q0 71 47 117.5t117 46.5t117 -46.5t47 -117.5q0 -70 -46.5 -116t-117.5 -46t-117.5 46t-46.5 116zM141 1249q0 -51 33 -85t84 -34t85 34t34 85t-34 85t-85 34t-84 -34t-33 -85z" />
<glyph unicode="&#xb1;" horiz-adv-x="1024" d="M143 281v73h738v-73h-738zM143 739v74h332v332h74v-332h332v-74h-332v-331h-74v331h-332z" />
<glyph unicode="&#xb2;" horiz-adv-x="702" d="M94 864v58q249 216 340.5 330.5t91.5 215.5q0 51 -18 89.5t-48 59t-62.5 30.5t-67.5 10q-111 0 -221 -55l-15 49q129 61 250 61q120 0 185 -65.5t65 -167.5q0 -38 -10 -75.5t-24 -69t-42 -70t-50.5 -65.5t-64.5 -68.5t-68.5 -65.5t-78 -71t-78.5 -72h430v-58h-514z" />
<glyph unicode="&#xb3;" horiz-adv-x="733" d="M94 907l21 51q102 -51 233 -51q219 0 219 176q0 77 -57.5 124.5t-175.5 47.5h-98v54h94q100 0 158.5 52.5t58.5 125.5q0 27 -7.5 52.5t-27 54.5t-61.5 47t-103 18q-114 0 -211 -53l-20 49q111 57 241 57q123 0 189.5 -57.5t66.5 -159.5q0 -77 -50 -131t-126 -76v-2 q93 -14 147 -69t54 -138q0 -109 -72 -168t-211 -59q-165 0 -262 55z" />
<glyph unicode="&#xb4;" horiz-adv-x="505" d="M94 1157l268 229l50 -67l-277 -213z" />
<glyph unicode="&#xb5;" d="M-115 -377l11 62q53 -11 90 -11q38 0 66 13.5t45 36t27.5 56.5t14.5 69.5t4 80.5v1094h99v-700q0 -263 245 -263q171 0 361 160v803h98v-1024h-86l-12 156h-4q-192 -176 -393 -176q-166 0 -242 94v-152q0 -155 -49.5 -233t-161.5 -78q-61 0 -113 12z" />
<glyph unicode="&#xb6;" horiz-adv-x="1189" d="M106 1004q0 169 110.5 279t279.5 110h166v-1393h-84v573q-95 0 -174.5 25t-133.5 67.5t-92 98.5t-55 116.5t-17 123.5zM823 0v1393h260v-58h-176v-1335h-84z" />
<glyph unicode="&#xb7;" horiz-adv-x="266" d="M74 676q0 28 17 42.5t42 14.5t42.5 -14.5t17.5 -42.5t-17.5 -43t-42.5 -15t-42 15t-17 43z" />
<glyph unicode="&#xb8;" horiz-adv-x="514" d="M94 -406l8 52q69 -21 117 -21q65 0 95 34t30 73q0 18 -6 36t-21.5 37t-48 31t-78.5 12l19 152h55l-14 -115q70 -3 120 -43.5t50 -113.5q0 -70 -51 -114t-138 -44q-61 0 -137 24z" />
<glyph unicode="&#xb9;" horiz-adv-x="720" d="M94 864v58h234v702h-2l-58 -33l-153 -86l-21 60l254 139h2h45v-782h232v-58h-533z" />
<glyph unicode="&#xba;" horiz-adv-x="737" d="M61 594v51h615v-51h-615zM92 1085q0 139 67 229.5t199 90.5q130 0 197.5 -91t67.5 -229t-67.5 -228.5t-197.5 -90.5q-132 0 -199 90t-67 229zM158 1085q0 -120 48.5 -196t151.5 -76q101 0 150 76.5t49 195.5q0 75 -19 134.5t-65.5 99t-114.5 39.5q-70 0 -116.5 -39.5 t-65 -98.5t-18.5 -135z" />
<glyph unicode="&#xbb;" horiz-adv-x="1257" d="M143 143v86l394 283l-394 283v86l480 -340v-58zM635 143v86l393 283l-393 283v86l479 -340v-58z" />
<glyph unicode="&#xbc;" horiz-adv-x="1777" d="M94 557v57h234v703h-2l-58 -33l-153 -86l-21 59l254 140h2h45v-783h232v-57h-533zM563 0l699 1393h55l-699 -1393h-55zM1096 231v58l383 547h84v-547h120v-58h-120v-231h-68v231h-399zM1163 289h332v295q0 28 1 87t1 89h-2l-125 -176q-42 -56 -116.5 -164t-90.5 -131z " />
<glyph unicode="&#xbd;" horiz-adv-x="1777" d="M94 557v57h234v703h-2l-58 -33l-153 -86l-21 59l254 140h2h45v-783h232v-57h-533zM555 0l698 1393h56l-699 -1393h-55zM1169 0v57q249 216 341 331t92 216q0 51 -18.5 89.5t-48.5 59t-62.5 30.5t-67.5 10q-111 0 -223 -56l-13 49q131 62 250 62q120 0 185 -66t65 -168 q0 -38 -10 -75.5t-24.5 -69.5t-42 -70t-51 -65.5t-64.5 -68t-68.5 -66t-77.5 -70.5t-78 -72h430v-57h-514z" />
<glyph unicode="&#xbe;" horiz-adv-x="1777" d="M94 600l21 51q102 -51 233 -51q219 0 219 176q0 77 -57.5 124.5t-175.5 47.5h-98v53h94q100 0 158.5 53t58.5 126q0 27 -7.5 52.5t-27 54.5t-61.5 47t-103 18q-112 0 -211 -54l-20 50q111 57 241 57q123 0 189.5 -57.5t66.5 -159.5q0 -77 -50 -131t-126 -76v-2 q93 -14 147 -69t54 -138q0 -109 -72 -168t-211 -59q-165 0 -262 55zM580 0l698 1393h55l-698 -1393h-55zM1096 231v58l383 547h84v-547h120v-58h-120v-231h-68v231h-399zM1163 289h332v295l2 176h-2l-125 -176z" />
<glyph unicode="&#xbf;" horiz-adv-x="1009" d="M106 0q0 80 31 151.5t66 115t108.5 93.5t107.5 67.5t114 55.5l18 9v200h86v-254q-174 -82 -242 -128q-166 -113 -181 -268q-1 -16 -1 -32q0 -69 20.5 -124.5t53 -90t77 -57.5t88.5 -32t91 -9q187 0 370 92l23 -76q-213 -102 -414 -102q-102 0 -182.5 30.5t-131 83.5 t-76.5 123t-26 152zM522 971q0 29 20 47t52 18t52 -18t20 -47t-20 -47.5t-52 -18.5t-52 18.5t-20 47.5z" />
<glyph unicode="&#xc0;" horiz-adv-x="1280" d="M70 0l512 1403h131l497 -1403h-110l-142 397h-636l-146 -397h-106zM342 479h596l-291 817h-4zM375 1688l47 67l270 -229l-41 -51z" />
<glyph unicode="&#xc1;" horiz-adv-x="1280" d="M70 0l512 1403h131l497 -1403h-110l-142 397h-636l-146 -397h-106zM342 479h596l-291 817h-4zM610 1526l269 229l49 -67l-277 -213z" />
<glyph unicode="&#xc2;" horiz-adv-x="1280" d="M70 0l512 1403h131l497 -1403h-110l-142 397h-636l-146 -397h-106zM342 479h596l-291 817h-4zM393 1495l213 295h99l213 -295h-82l-181 229l-180 -229h-82z" />
<glyph unicode="&#xc3;" horiz-adv-x="1280" d="M70 0l512 1403h131l497 -1403h-110l-142 397h-636l-146 -397h-106zM307 1597q65 80 117 112t108 32q42 0 94.5 -32.5t99.5 -64.5t75 -32q32 0 63.5 22t69.5 84l49 -43q-36 -69 -77.5 -108t-100.5 -39q-27 0 -65.5 20t-70 44.5t-69 44.5t-63.5 20q-41 0 -79 -20.5 t-108 -90.5zM342 479h596l-291 817h-4z" />
<glyph unicode="&#xc4;" horiz-adv-x="1280" d="M70 0l512 1403h131l497 -1403h-110l-142 397h-636l-146 -397h-106zM342 479h596l-291 817h-4zM391 1610q0 30 18.5 45.5t45.5 15.5t45 -15.5t18 -45.5q0 -29 -18.5 -45.5t-44.5 -16.5t-45 16.5t-19 45.5zM784 1610q0 30 18.5 45.5t45.5 15.5t45 -15.5t18 -45.5 q0 -29 -18.5 -45.5t-44.5 -16.5t-45 16.5t-19 45.5z" />
<glyph unicode="&#xc5;" horiz-adv-x="1280" d="M70 0l512 1403h131l497 -1403h-110l-142 397h-636l-146 -397h-106zM342 479h596l-291 817h-4zM467 1665q0 73 50 121.5t124 48.5q73 0 122.5 -48.5t49.5 -121.5t-49.5 -121.5t-122.5 -48.5q-74 0 -124 48.5t-50 121.5zM526 1665q0 -50 32 -82.5t83 -32.5q48 0 80.5 33 t32.5 82t-32.5 82t-80.5 33q-51 0 -83 -32.5t-32 -82.5z" />
<glyph unicode="&#xc6;" horiz-adv-x="1835" d="M70 0l759 1393h889v-90h-731v-533h639v-90h-639v-590h742v-90h-848v397h-486l-217 -397h-108zM430 479h451v813h-4l-222 -407z" />
<glyph unicode="&#xc7;" horiz-adv-x="1273" d="M143 696q0 124 18 228.5t60.5 196t107.5 155.5t163.5 100.5t224.5 36.5q219 0 450 -90l-20 -84q-237 84 -420 84q-106 0 -189 -33.5t-136.5 -90t-88 -138t-49 -171t-14.5 -194.5t14.5 -194.5t49 -170.5t88 -137.5t136.5 -90t189 -33.5q183 0 420 84l20 -84 q-214 -84 -428 -90l-14 -95q70 -3 120 -43.5t50 -113.5q0 -70 -51 -114t-137 -44q-59 0 -136 24l9 52q69 -21 114 -21q66 0 96.5 34t30.5 73q0 18 -6 35.5t-21 36.5t-47.5 31t-78.5 13l16 132q-148 6 -255 63t-168.5 156.5t-89.5 222t-28 274.5z" />
<glyph unicode="&#xc8;" horiz-adv-x="1118" d="M164 0v1393h837v-90h-731v-533h639v-90h-639v-590h742v-90h-848zM330 1688l49 67l268 -229l-41 -51z" />
<glyph unicode="&#xc9;" horiz-adv-x="1118" d="M164 0v1393h837v-90h-731v-533h639v-90h-639v-590h742v-90h-848zM485 1526l269 229l49 -67l-279 -213z" />
<glyph unicode="&#xca;" horiz-adv-x="1118" d="M164 0v1393h837v-90h-731v-533h639v-90h-639v-590h742v-90h-848zM340 1495l213 295h98l213 -295h-82l-180 229l-180 -229h-82z" />
<glyph unicode="&#xcb;" horiz-adv-x="1118" d="M164 0v1393h837v-90h-731v-533h639v-90h-639v-590h742v-90h-848zM324 1610q0 30 18 45.5t45 15.5t45.5 -15.5t18.5 -45.5q0 -29 -19 -45.5t-45 -16.5t-44.5 16.5t-18.5 45.5zM715 1610q0 30 18 45.5t45 15.5q28 0 46 -15t18 -46q0 -30 -18 -46t-46 -16q-26 0 -44.5 16.5 t-18.5 45.5z" />
<glyph unicode="&#xcc;" horiz-adv-x="434" d="M-63 1688l47 67l268 -229l-39 -51zM164 0v1393h106v-1393h-106z" />
<glyph unicode="&#xcd;" horiz-adv-x="434" d="M164 0v1393h106v-1393h-106zM178 1526l268 229l48 -67l-277 -213z" />
<glyph unicode="&#xce;" horiz-adv-x="434" d="M-37 1495l213 295h98l213 -295h-81l-181 229l-180 -229h-82zM162 0v1393h106v-1393h-106z" />
<glyph unicode="&#xcf;" horiz-adv-x="434" d="M-39 1610q0 30 18.5 45.5t45.5 15.5t45 -15.5t18 -45.5q0 -29 -18.5 -45.5t-44.5 -16.5t-45 16.5t-19 45.5zM164 0v1393h106v-1393h-106zM352 1610q0 30 18.5 45.5t45.5 15.5q28 0 45.5 -15t17.5 -46q0 -30 -18 -46t-45 -16q-26 0 -45 16.5t-19 45.5z" />
<glyph unicode="&#xd0;" horiz-adv-x="1339" d="M66 668v73h98v652h471q123 0 220 -35t160.5 -96.5t104.5 -149.5t58.5 -188t17.5 -219q0 -122 -17.5 -224t-58.5 -192.5t-104.5 -153.5t-160.5 -99t-220 -36h-471v668h-98zM266 90h369q104 0 184 34t130.5 90t82.5 137t45 167t13 187q0 598 -455 598h-369v-562h291v-73 h-291v-578z" />
<glyph unicode="&#xd1;" horiz-adv-x="1347" d="M164 0v1393h98l821 -1213h2v1213h99v-1393h-105l-815 1202h-2v-1202h-98zM340 1597q67 81 118 112.5t107 31.5q42 0 94.5 -32.5t99.5 -64.5t75 -32q32 0 63.5 22t69.5 84l49 -43q-72 -147 -178 -147q-42 0 -136 64.5t-133 64.5q-40 0 -77.5 -20t-108.5 -91z" />
<glyph unicode="&#xd2;" horiz-adv-x="1409" d="M143 705q0 119 17.5 221t59 193.5t105 155t160.5 101t220 37.5t220 -37.5t160 -101t104.5 -155t59 -193.5t17.5 -221q0 -122 -17.5 -226t-59 -197.5t-104.5 -159t-160 -104t-220 -38.5t-220 38.5t-160.5 104t-105 159t-59 197.5t-17.5 226zM250 705q0 -101 13 -189 t45 -172t82.5 -143t131 -95t183.5 -36t183.5 36t130.5 95t82.5 143t45 172t12.5 189t-12.5 187.5t-45 167.5t-82.5 138t-130.5 91t-183.5 34t-183.5 -34t-131 -91t-82.5 -138t-45 -167.5t-13 -187.5zM457 1688l49 67l268 -229l-41 -51z" />
<glyph unicode="&#xd3;" horiz-adv-x="1409" d="M143 705q0 119 17.5 221t59 193.5t105 155t160.5 101t220 37.5t220 -37.5t160 -101t104.5 -155t59 -193.5t17.5 -221q0 -122 -17.5 -226t-59 -197.5t-104.5 -159t-160 -104t-220 -38.5t-220 38.5t-160.5 104t-105 159t-59 197.5t-17.5 226zM250 705q0 -101 13 -189 t45 -172t82.5 -143t131 -95t183.5 -36t183.5 36t130.5 95t82.5 143t45 172t12.5 189t-12.5 187.5t-45 167.5t-82.5 138t-130.5 91t-183.5 34t-183.5 -34t-131 -91t-82.5 -138t-45 -167.5t-13 -187.5zM629 1526l270 229l47 -67l-276 -213z" />
<glyph unicode="&#xd4;" horiz-adv-x="1409" d="M143 705q0 119 17.5 221t59 193.5t105 155t160.5 101t220 37.5t220 -37.5t160 -101t104.5 -155t59 -193.5t17.5 -221q0 -122 -17.5 -226t-59 -197.5t-104.5 -159t-160 -104t-220 -38.5t-220 38.5t-160.5 104t-105 159t-59 197.5t-17.5 226zM250 705q0 -101 13 -189 t45 -172t82.5 -143t131 -95t183.5 -36t183.5 36t130.5 95t82.5 143t45 172t12.5 189t-12.5 187.5t-45 167.5t-82.5 138t-130.5 91t-183.5 34t-183.5 -34t-131 -91t-82.5 -138t-45 -167.5t-13 -187.5zM459 1495l213 295h98l213 -295h-82l-180 229l-180 -229h-82z" />
<glyph unicode="&#xd5;" horiz-adv-x="1409" d="M143 705q0 119 17.5 221t59 193.5t105 155t160.5 101t220 37.5t220 -37.5t160 -101t104.5 -155t59 -193.5t17.5 -221q0 -122 -17.5 -226t-59 -197.5t-104.5 -159t-160 -104t-220 -38.5t-220 38.5t-160.5 104t-105 159t-59 197.5t-17.5 226zM250 705q0 -101 13 -189 t45 -172t82.5 -143t131 -95t183.5 -36t183.5 36t130.5 95t82.5 143t45 172t12.5 189t-12.5 187.5t-45 167.5t-82.5 138t-130.5 91t-183.5 34t-183.5 -34t-131 -91t-82.5 -138t-45 -167.5t-13 -187.5zM371 1597q67 81 118 112.5t107 31.5q42 0 94 -32.5t99 -64.5t75 -32 q32 0 63.5 22t69.5 84l50 -43q-72 -147 -179 -147q-27 0 -65.5 20t-70 44.5t-69 44.5t-63.5 20q-40 0 -77.5 -20t-108.5 -91z" />
<glyph unicode="&#xd6;" horiz-adv-x="1409" d="M143 705q0 119 17.5 221t59 193.5t105 155t160.5 101t220 37.5t220 -37.5t160 -101t104.5 -155t59 -193.5t17.5 -221q0 -122 -17.5 -226t-59 -197.5t-104.5 -159t-160 -104t-220 -38.5t-220 38.5t-160.5 104t-105 159t-59 197.5t-17.5 226zM250 705q0 -101 13 -189 t45 -172t82.5 -143t131 -95t183.5 -36t183.5 36t130.5 95t82.5 143t45 172t12.5 189t-12.5 187.5t-45 167.5t-82.5 138t-130.5 91t-183.5 34t-183.5 -34t-131 -91t-82.5 -138t-45 -167.5t-13 -187.5zM457 1610q0 30 18 45.5t45 15.5t45.5 -15.5t18.5 -45.5q0 -29 -19 -45.5 t-45 -16.5t-44.5 16.5t-18.5 45.5zM850 1610q0 31 17.5 46t45.5 15q27 0 45.5 -15.5t18.5 -45.5q0 -29 -19 -45.5t-45 -16.5q-27 0 -45 16t-18 46z" />
<glyph unicode="&#xd7;" horiz-adv-x="974" d="M143 414l293 293l-293 292l52 52l292 -293l293 293l51 -52l-292 -292l292 -293l-51 -52l-293 293l-292 -293z" />
<glyph unicode="&#xd8;" horiz-adv-x="1409" d="M143 705q0 119 17.5 221t59 193.5t105 155t160.5 101t220 37.5q158 0 270 -59l57 121h62l-70 -150q242 -169 242 -620q0 -122 -17.5 -226t-59 -197.5t-104.5 -159t-160 -104t-220 -38.5q-165 0 -283 67l-62 -129h-61l76 160q-120 91 -176 254.5t-56 372.5zM250 705 q0 -376 168 -533l516 1094q-94 57 -229 57q-103 0 -183.5 -34t-131 -91t-82.5 -138t-45 -167.5t-13 -187.5zM463 137q98 -67 242 -67q103 0 183.5 36t130.5 95t82.5 143t45 172t12.5 189q0 381 -178 530z" />
<glyph unicode="&#xd9;" horiz-adv-x="1327" d="M164 496v897h106v-897q0 -40 2 -72t11.5 -78t25 -82t45.5 -74t70.5 -63t102.5 -41t139 -16q76 0 137 16t101 41t69.5 63t45 74t25 81.5t11.5 78.5t2 72v897h106v-897q0 -516 -499 -516q-500 0 -500 516zM397 1688l47 67l271 -229l-41 -51z" />
<glyph unicode="&#xda;" horiz-adv-x="1327" d="M164 496v897h106v-897q0 -40 2 -72t11.5 -78t25 -82t45.5 -74t70.5 -63t102.5 -41t139 -16q76 0 137 16t101 41t69.5 63t45 74t25 81.5t11.5 78.5t2 72v897h106v-897q0 -516 -499 -516q-500 0 -500 516zM612 1526l269 229l47 -67l-277 -213z" />
<glyph unicode="&#xdb;" horiz-adv-x="1327" d="M164 496v897h106v-897q0 -40 2 -72t11.5 -78t25 -82t45.5 -74t70.5 -63t102.5 -41t139 -16q76 0 137 16t101 41t69.5 63t45 74t25 81.5t11.5 78.5t2 72v897h106v-897q0 -516 -499 -516q-500 0 -500 516zM418 1495l213 295h98l213 -295h-82l-180 229l-180 -229h-82z" />
<glyph unicode="&#xdc;" horiz-adv-x="1327" d="M164 496v897h106v-897q0 -40 2 -72t11.5 -78t25 -82t45.5 -74t70.5 -63t102.5 -41t139 -16q76 0 137 16t101 41t69.5 63t45 74t25 81.5t11.5 78.5t2 72v897h106v-897q0 -516 -499 -516q-500 0 -500 516zM416 1610q0 30 18 45.5t45 15.5t45.5 -15.5t18.5 -45.5 q0 -29 -19 -45.5t-45 -16.5t-44.5 16.5t-18.5 45.5zM809 1610q0 31 17.5 46t45.5 15q27 0 45.5 -15.5t18.5 -45.5q0 -29 -19 -45.5t-45 -16.5q-27 0 -45 16t-18 46z" />
<glyph unicode="&#xdd;" horiz-adv-x="1216" d="M70 1393h114l219 -410l205 -393h4l205 393l219 410h111l-485 -914v-479h-107v479zM559 1526l268 229l50 -67l-279 -213z" />
<glyph unicode="&#xde;" horiz-adv-x="1226" d="M164 0v1393h106v-303h447q189 0 296 -109.5t107 -278.5q0 -178 -105.5 -282.5t-297.5 -104.5h-447v-315h-106zM270 406h439q146 0 225.5 75.5t79.5 220.5q0 135 -81 216t-224 81h-439v-593z" />
<glyph unicode="&#xdf;" horiz-adv-x="1267" d="M53 946v70l164 8q0 189 111.5 289t289.5 100q162 0 265.5 -77.5t103.5 -213.5q0 -53 -20 -101t-49.5 -81.5t-64.5 -65t-64.5 -54t-49.5 -47t-20 -46.5q0 -32 32.5 -63.5t80.5 -57t105 -59.5t105 -68.5t80.5 -85.5t32.5 -110q0 -148 -107 -225.5t-280 -77.5 q-141 0 -266 40l12 78q122 -41 244 -41q72 0 127 17t85.5 41.5t49 58t24 60t5.5 53.5q0 56 -44 104.5t-106.5 84.5t-125 70.5t-106.5 79t-44 93.5q0 32 26 64.5t63.5 63t75 65t63.5 84t26 106.5q0 111 -76 170t-189 59q-150 0 -223.5 -88.5t-73.5 -230.5v-1012h-98v946h-164 z" />
<glyph unicode="&#xe0;" horiz-adv-x="1030" d="M106 227q0 162 173 256.5t509 116.5v135q0 114 -67.5 175t-196.5 61q-138 0 -334 -76l-22 72q220 77 369 77q158 0 254 -76.5t96 -230.5v-737h-88l-11 145q-92 -89 -185 -127t-200 -38q-128 0 -212.5 64.5t-84.5 182.5zM205 242q0 -84 58.5 -134.5t164.5 -50.5 q202 0 360 162v316q-281 -15 -432 -95.5t-151 -197.5zM305 1319l49 67l269 -229l-41 -51z" />
<glyph unicode="&#xe1;" horiz-adv-x="1030" d="M106 227q0 162 173 256.5t509 116.5v135q0 114 -67.5 175t-196.5 61q-138 0 -334 -76l-22 72q220 77 369 77q158 0 254 -76.5t96 -230.5v-737h-88l-11 145q-92 -89 -185 -127t-200 -38q-128 0 -212.5 64.5t-84.5 182.5zM205 242q0 -84 58.5 -134.5t164.5 -50.5 q202 0 360 162v316q-281 -15 -432 -95.5t-151 -197.5zM465 1157l268 229l47 -67l-276 -213z" />
<glyph unicode="&#xe2;" horiz-adv-x="1030" d="M106 227q0 162 173 256.5t509 116.5v135q0 114 -67.5 175t-196.5 61q-138 0 -334 -76l-22 72q220 77 369 77q158 0 254 -76.5t96 -230.5v-737h-88l-11 145q-92 -89 -185 -127t-200 -38q-128 0 -212.5 64.5t-84.5 182.5zM205 242q0 -84 58.5 -134.5t164.5 -50.5 q202 0 360 162v316q-281 -15 -432 -95.5t-151 -197.5zM283 1126l213 295h98l213 -295h-82l-180 230l-180 -230h-82z" />
<glyph unicode="&#xe3;" horiz-adv-x="1030" d="M106 227q0 162 173 256.5t509 116.5v135q0 114 -67.5 175t-196.5 61q-138 0 -334 -76l-22 72q220 77 369 77q158 0 254 -76.5t96 -230.5v-737h-88l-11 145q-92 -89 -185 -127t-200 -38q-128 0 -212.5 64.5t-84.5 182.5zM203 1229q67 81 118 112t107 31q33 0 73.5 -20 t71.5 -44.5t65.5 -44.5t57.5 -20q68 0 133 107l50 -43q-72 -148 -179 -148q-34 0 -85 32.5t-101 64.5t-82 32q-41 0 -78.5 -20t-107.5 -90zM205 242q0 -84 58.5 -134.5t164.5 -50.5q202 0 360 162v316q-281 -15 -432 -95.5t-151 -197.5z" />
<glyph unicode="&#xe4;" horiz-adv-x="1030" d="M106 227q0 162 173 256.5t509 116.5v135q0 114 -67.5 175t-196.5 61q-138 0 -334 -76l-22 72q220 77 369 77q158 0 254 -76.5t96 -230.5v-737h-88l-11 145q-92 -89 -185 -127t-200 -38q-128 0 -212.5 64.5t-84.5 182.5zM205 242q0 -84 58.5 -134.5t164.5 -50.5 q202 0 360 162v316q-281 -15 -432 -95.5t-151 -197.5zM270 1241q0 30 18.5 46t45.5 16t45 -16t18 -46q0 -29 -18 -45t-45 -16t-45.5 16t-18.5 45zM664 1241q0 30 18 46t45 16t45.5 -16t18.5 -46q0 -29 -18.5 -45t-45.5 -16t-45 16t-18 45z" />
<glyph unicode="&#xe5;" horiz-adv-x="1030" d="M106 227q0 162 173 256.5t509 116.5v135q0 114 -67.5 175t-196.5 61q-138 0 -334 -76l-22 72q220 77 369 77q158 0 254 -76.5t96 -230.5v-737h-88l-11 145q-92 -89 -185 -127t-200 -38q-128 0 -212.5 64.5t-84.5 182.5zM205 242q0 -84 58.5 -134.5t164.5 -50.5 q202 0 360 162v316q-281 -15 -432 -95.5t-151 -197.5zM383 1296q0 73 49 121.5t123 48.5t123 -48.5t49 -121.5t-49 -121.5t-123 -48.5t-123 48.5t-49 121.5zM442 1296q0 -50 32 -82t81 -32t81 32t32 82t-32 82.5t-81 32.5t-81 -32.5t-32 -82.5z" />
<glyph unicode="&#xe6;" horiz-adv-x="1773" d="M106 227q0 162 173 256.5t509 116.5v135q0 114 -67.5 175t-196.5 61q-138 0 -334 -76l-22 72q220 77 369 77q125 0 211.5 -47.5t119.5 -144.5q123 192 392 192q92 0 163.5 -25t113.5 -63t68.5 -90t36 -100t9.5 -100q0 -87 -21 -162h-741q1 -100 21.5 -177.5t66 -140 t126.5 -96t195 -33.5q173 0 293 43l15 -73q-88 -27 -159.5 -37t-164.5 -10q-306 0 -426 213q-219 -213 -453 -213q-128 0 -212.5 64.5t-84.5 182.5zM205 242q0 -84 58.5 -134.5t164.5 -50.5q122 0 216 53t183 144q-41 107 -41 258v23q-279 -15 -430 -95.5t-151 -197.5z M889 578h655q12 52 12 110q0 125 -74.5 206t-224.5 81q-78 0 -140.5 -22.5t-103 -59.5t-68 -89.5t-40.5 -107.5t-16 -118z" />
<glyph unicode="&#xe7;" horiz-adv-x="933" d="M123 512q0 116 27.5 211t83 168t147.5 113t213 40q119 0 254 -43l-17 -75q-125 41 -227 41q-103 0 -179 -36.5t-118 -101t-62 -143.5t-20 -174t20 -174t62 -143.5t118 -101t179 -36.5q102 0 227 41l17 -75q-135 -43 -254 -43h-4l-12 -95q70 -3 120 -43.5t50 -113.5 q0 -70 -51 -114t-138 -44q-57 0 -137 24l10 52q69 -21 115 -21q65 0 95 34t30 73q0 18 -6 35.5t-20.5 36.5t-47 31t-78.5 13l17 134q-107 10 -187 54t-129.5 115t-73.5 161.5t-24 199.5z" />
<glyph unicode="&#xe8;" horiz-adv-x="1110" d="M123 512q0 118 27.5 213.5t84 167.5t148 111.5t213.5 39.5q92 0 163.5 -25t113.5 -63t68.5 -90t36 -100t9.5 -100q0 -91 -20 -162h-742q1 -100 21.5 -177.5t66 -140t127 -96t195.5 -33.5q173 0 293 43l14 -73q-88 -27 -159.5 -37t-164.5 -10q-132 0 -229 39.5t-154 112 t-84.5 167t-27.5 213.5zM225 578h656q12 52 12 110q0 125 -74.5 206t-224.5 81q-78 0 -140.5 -22.5t-103.5 -59.5t-68.5 -89.5t-40.5 -107.5t-16 -118zM336 1319l49 67l268 -229l-41 -51z" />
<glyph unicode="&#xe9;" horiz-adv-x="1110" d="M123 512q0 118 27.5 213.5t84 167.5t148 111.5t213.5 39.5q92 0 163.5 -25t113.5 -63t68.5 -90t36 -100t9.5 -100q0 -91 -20 -162h-742q1 -100 21.5 -177.5t66 -140t127 -96t195.5 -33.5q173 0 293 43l14 -73q-88 -27 -159.5 -37t-164.5 -10q-132 0 -229 39.5t-154 112 t-84.5 167t-27.5 213.5zM225 578h656q12 52 12 110q0 125 -74.5 206t-224.5 81q-78 0 -140.5 -22.5t-103.5 -59.5t-68.5 -89.5t-40.5 -107.5t-16 -118zM537 1157l270 229l47 -67l-276 -213z" />
<glyph unicode="&#xea;" horiz-adv-x="1110" d="M123 512q0 118 27.5 213.5t84 167.5t148 111.5t213.5 39.5q92 0 163.5 -25t113.5 -63t68.5 -90t36 -100t9.5 -100q0 -91 -20 -162h-742q1 -100 21.5 -177.5t66 -140t127 -96t195.5 -33.5q173 0 293 43l14 -73q-88 -27 -159.5 -37t-164.5 -10q-132 0 -229 39.5t-154 112 t-84.5 167t-27.5 213.5zM225 578h656q12 52 12 110q0 125 -74.5 206t-224.5 81q-78 0 -140.5 -22.5t-103.5 -59.5t-68.5 -89.5t-40.5 -107.5t-16 -118zM334 1126l211 295h98l215 -295h-82l-180 230l-180 -230h-82z" />
<glyph unicode="&#xeb;" horiz-adv-x="1110" d="M123 512q0 118 27.5 213.5t84 167.5t148 111.5t213.5 39.5q92 0 163.5 -25t113.5 -63t68.5 -90t36 -100t9.5 -100q0 -91 -20 -162h-742q1 -100 21.5 -177.5t66 -140t127 -96t195.5 -33.5q173 0 293 43l14 -73q-88 -27 -159.5 -37t-164.5 -10q-132 0 -229 39.5t-154 112 t-84.5 167t-27.5 213.5zM225 578h656q12 52 12 110q0 125 -74.5 206t-224.5 81q-78 0 -140.5 -22.5t-103.5 -59.5t-68.5 -89.5t-40.5 -107.5t-16 -118zM317 1241q0 31 18 46.5t46 15.5q27 0 45 -16t18 -46q0 -29 -18 -45t-45 -16q-28 0 -46 16t-18 45zM709 1241q0 30 18 46 t45 16t45.5 -16t18.5 -46q0 -29 -18.5 -45t-45.5 -16t-45 16t-18 45z" />
<glyph unicode="&#xec;" horiz-adv-x="385" d="M-102 1319l49 67l268 -229l-41 -51zM143 0v1024h99v-1024h-99z" />
<glyph unicode="&#xed;" horiz-adv-x="385" d="M143 0v1024h99v-1024h-99zM150 1157l268 229l49 -67l-279 -213z" />
<glyph unicode="&#xee;" horiz-adv-x="385" d="M-61 1126l213 295h98l213 -295h-82l-180 230l-181 -230h-81zM143 0v1024h99v-1024h-99z" />
<glyph unicode="&#xef;" horiz-adv-x="385" d="M-68 1241q0 30 18.5 46t45.5 16t45 -16t18 -46q0 -29 -18 -45t-45 -16t-45.5 16t-18.5 45zM143 0v1024h99v-1024h-99zM324 1241q0 30 18 46t45 16q28 0 46 -15.5t18 -46.5q0 -29 -18 -45t-46 -16q-27 0 -45 16t-18 45z" />
<glyph unicode="&#xf0;" horiz-adv-x="1134" d="M123 455q0 229 111 353t309 124q110 0 206 -59t164 -160q1 0 2.5 1t2.5 1q-3 45 -8.5 87.5t-19 105.5t-33 115.5t-53.5 109t-77.5 96.5t-107.5 68t-140 32v-248h-57v248q-117 -3 -242 -43l-14 80q52 16 77 22.5t74.5 14.5t104.5 10v82h57v-82q92 -4 169 -31t145.5 -86.5 t116 -149t75 -224t27.5 -304.5q0 -105 -11.5 -192t-42.5 -172.5t-81.5 -143.5t-133.5 -94t-192 -36q-186 0 -307 128.5t-121 346.5zM217 451q0 -180 98 -282.5t240 -102.5q64 0 116 15.5t88.5 43t64 68.5t44.5 87t27.5 105t14 115.5t3.5 124.5q-61 98 -153.5 160.5 t-192.5 62.5q-83 0 -146.5 -25.5t-101 -65t-61.5 -94t-32.5 -105.5t-8.5 -107z" />
<glyph unicode="&#xf1;" d="M143 0v1024h86l13 -150q201 170 397 170q307 0 307 -327v-717h-98v700q0 263 -246 263q-170 0 -360 -160v-803h-99zM219 1229q67 80 119 111.5t108 31.5q32 0 72 -20t71 -44.5t66 -44.5t58 -20q70 0 133 107l49 -43q-72 -148 -178 -148q-34 0 -85 32.5t-101 64.5t-82 32 q-41 0 -78.5 -20t-106.5 -90z" />
<glyph unicode="&#xf2;" horiz-adv-x="1126" d="M123 512q0 110 26.5 204.5t78.5 168.5t138 116.5t197 42.5t197 -42.5t138.5 -116.5t79 -168.5t26.5 -204.5t-26.5 -204.5t-79 -168.5t-138.5 -116.5t-197 -42.5t-197 42.5t-138 116.5t-78.5 168.5t-26.5 204.5zM225 512q0 -95 18.5 -175t57.5 -145t106 -102t156 -37 t156 37t106 102t57.5 145t18.5 175q0 94 -18.5 174t-57.5 145.5t-106 102.5t-156 37t-156 -37t-106 -102.5t-57.5 -145.5t-18.5 -174zM283 1319l49 67l268 -229l-41 -51z" />
<glyph unicode="&#xf3;" horiz-adv-x="1126" d="M123 512q0 110 26.5 204.5t78.5 168.5t138 116.5t197 42.5t197 -42.5t138.5 -116.5t79 -168.5t26.5 -204.5t-26.5 -204.5t-79 -168.5t-138.5 -116.5t-197 -42.5t-197 42.5t-138 116.5t-78.5 168.5t-26.5 204.5zM225 512q0 -95 18.5 -175t57.5 -145t106 -102t156 -37 t156 37t106 102t57.5 145t18.5 175q0 94 -18.5 174t-57.5 145.5t-106 102.5t-156 37t-156 -37t-106 -102.5t-57.5 -145.5t-18.5 -174zM524 1157l269 229l49 -67l-277 -213z" />
<glyph unicode="&#xf4;" horiz-adv-x="1126" d="M123 512q0 110 26.5 204.5t78.5 168.5t138 116.5t197 42.5t197 -42.5t138.5 -116.5t79 -168.5t26.5 -204.5t-26.5 -204.5t-79 -168.5t-138.5 -116.5t-197 -42.5t-197 42.5t-138 116.5t-78.5 168.5t-26.5 204.5zM225 512q0 -95 18.5 -175t57.5 -145t106 -102t156 -37 t156 37t106 102t57.5 145t18.5 175q0 94 -18.5 174t-57.5 145.5t-106 102.5t-156 37t-156 -37t-106 -102.5t-57.5 -145.5t-18.5 -174zM309 1126l213 295h99l213 -295h-82l-181 230l-180 -230h-82z" />
<glyph unicode="&#xf5;" horiz-adv-x="1126" d="M123 512q0 110 26.5 204.5t78.5 168.5t138 116.5t197 42.5t197 -42.5t138.5 -116.5t79 -168.5t26.5 -204.5t-26.5 -204.5t-79 -168.5t-138.5 -116.5t-197 -42.5t-197 42.5t-138 116.5t-78.5 168.5t-26.5 204.5zM225 512q0 -95 18.5 -175t57.5 -145t106 -102t156 -37 t156 37t106 102t57.5 145t18.5 175q0 94 -18.5 174t-57.5 145.5t-106 102.5t-156 37t-156 -37t-106 -102.5t-57.5 -145.5t-18.5 -174zM238 1229q67 81 118 112t107 31q33 0 73.5 -20t71.5 -44.5t65.5 -44.5t57.5 -20q68 0 133 107l49 -43q-72 -148 -178 -148q-34 0 -85 32.5 t-101 64.5t-82 32q-41 0 -78.5 -20t-107.5 -90z" />
<glyph unicode="&#xf6;" horiz-adv-x="1126" d="M123 512q0 110 26.5 204.5t78.5 168.5t138 116.5t197 42.5t197 -42.5t138.5 -116.5t79 -168.5t26.5 -204.5t-26.5 -204.5t-79 -168.5t-138.5 -116.5t-197 -42.5t-197 42.5t-138 116.5t-78.5 168.5t-26.5 204.5zM225 512q0 -95 18.5 -175t57.5 -145t106 -102t156 -37 t156 37t106 102t57.5 145t18.5 175q0 94 -18.5 174t-57.5 145.5t-106 102.5t-156 37t-156 -37t-106 -102.5t-57.5 -145.5t-18.5 -174zM303 1241q0 30 18.5 46t45.5 16t45 -16t18 -46q0 -29 -18 -45t-45 -16t-45.5 16t-18.5 45zM696 1241q0 31 18 46.5t46 15.5q27 0 45 -16 t18 -46q0 -29 -18 -45t-45 -16q-28 0 -46 16t-18 45z" />
<glyph unicode="&#xf7;" horiz-adv-x="1024" d="M143 670v73h738v-73h-738zM440 338q0 29 20 47t52 18t52 -18t20 -47t-20 -47.5t-52 -18.5t-52 18.5t-20 47.5zM440 1075q0 29 20 47.5t52 18.5t52 -18.5t20 -47.5t-20 -47t-52 -18t-52 18t-20 47z" />
<glyph unicode="&#xf8;" horiz-adv-x="1126" d="M123 512q0 110 26.5 204.5t78.5 168.5t138 116.5t197 42.5q135 0 230 -61l57 123h45l-70 -145q89 -70 134 -188t45 -261q0 -110 -26.5 -204.5t-79 -168.5t-138.5 -116.5t-197 -42.5q-104 0 -182 34l-45 -96h-45l55 115q-111 64 -167 190.5t-56 288.5zM225 512 q0 -135 38 -241t118 -162l377 798q-80 64 -195 64q-89 0 -156 -37t-106 -102.5t-57.5 -145.5t-18.5 -174zM416 86q68 -33 147 -33q89 0 156 37t106 102t57.5 145t18.5 175q0 246 -113 367z" />
<glyph unicode="&#xf9;" d="M143 307v717h99v-700q0 -263 245 -263q171 0 361 160v803h98v-1024h-86l-12 156h-4q-192 -176 -393 -176q-308 0 -308 327zM268 1319l47 67l269 -229l-39 -51z" />
<glyph unicode="&#xfa;" d="M143 307v717h99v-700q0 -263 245 -263q171 0 361 160v803h98v-1024h-86l-12 156h-4q-192 -176 -393 -176q-308 0 -308 327zM508 1157l270 229l47 -67l-276 -213z" />
<glyph unicode="&#xfb;" d="M143 307v717h99v-700q0 -263 245 -263q171 0 361 160v803h98v-1024h-86l-12 156h-4q-192 -176 -393 -176q-308 0 -308 327zM291 1126l213 295h98l213 -295h-82l-180 230l-180 -230h-82z" />
<glyph unicode="&#xfc;" d="M143 307v717h99v-700q0 -263 245 -263q171 0 361 160v803h98v-1024h-86l-12 156h-4q-192 -176 -393 -176q-308 0 -308 327zM285 1241q0 30 18 46t45 16t45.5 -16t18.5 -46q0 -29 -18.5 -45t-45.5 -16t-45 16t-18 45zM676 1241q0 30 18 46t45 16q28 0 46 -15.5t18 -46.5 q0 -29 -18 -45t-46 -16q-27 0 -45 16t-18 45z" />
<glyph unicode="&#xfd;" horiz-adv-x="1026" d="M53 1024h111q27 -66 73 -187.5t64 -168.5l23 -52q28 -81 92 -255t96 -267h6l84 252q12 31 38 96t38 97l186 485h109l-539 -1393h-94l145 385h-41zM444 1157l269 229l49 -67l-277 -213z" />
<glyph unicode="&#xfe;" horiz-adv-x="1093" d="M143 -369v1762h99v-471h4q136 122 321 122q103 0 182 -40t126.5 -112.5t71.5 -168t24 -211.5t-24.5 -211.5t-73.5 -168t-128.5 -112.5t-183.5 -40q-182 0 -315 120h-4v-469h-99zM242 172q132 -111 293 -111q88 0 154 36t104.5 99.5t56.5 142.5t18 173t-18 173 t-56.5 142.5t-104.5 99.5t-154 36q-159 0 -293 -113v-678z" />
<glyph unicode="&#xff;" horiz-adv-x="1026" d="M53 1024h111q27 -66 73 -187.5t64 -168.5l23 -52q28 -81 92 -255t96 -267h6l84 252q12 31 38 96t38 97l186 485h109l-539 -1393h-94l145 385h-41zM252 1241q0 30 18 46t45 16q28 0 46 -15.5t18 -46.5q0 -29 -18 -45t-46 -16q-27 0 -45 16t-18 45zM645 1241q0 30 18.5 46 t45.5 16t45 -16t18 -46q0 -29 -18 -45t-45 -16t-45.5 16t-18.5 45z" />
<glyph unicode="&#x152;" horiz-adv-x="2113" d="M143 705q0 119 17.5 221t59 193.5t105 155t160.5 101t220 37.5q352 0 479 -315v295h813v-90h-731v-533h639v-90h-639v-590h741v-90h-823v303q-127 -323 -479 -323q-123 0 -220 38.5t-160.5 104t-105 159t-59 197.5t-17.5 226zM250 705q0 -101 13 -189t45 -172t82.5 -143 t131 -95t183.5 -36t183.5 36t130.5 95t82.5 143t45 172t12.5 189t-12.5 187.5t-45 167.5t-82.5 138t-130.5 91t-183.5 34t-183.5 -34t-131 -91t-82.5 -138t-45 -167.5t-13 -187.5z" />
<glyph unicode="&#x153;" horiz-adv-x="1888" d="M123 512q0 110 26.5 204.5t78.5 168.5t138 116.5t197 42.5q279 0 389 -253q51 121 156.5 187t265.5 66q92 0 163.5 -25t113.5 -63t68.5 -90t36 -100t9.5 -100q0 -91 -20 -162h-741q1 -100 21.5 -177.5t66 -140t126.5 -96t195 -33.5q173 0 293 43l14 -73 q-89 -27 -159.5 -37t-163.5 -10q-335 0 -445 253q-52 -119 -149 -186t-240 -67q-111 0 -197 42.5t-138 116.5t-78.5 168.5t-26.5 204.5zM225 512q0 -95 18.5 -175t57.5 -145t106 -102t156 -37t156 37t106 102t57.5 145t18.5 175q0 94 -18.5 174t-57.5 145.5t-106 102.5 t-156 37t-156 -37t-106 -102.5t-57.5 -145.5t-18.5 -174zM1004 578h655q12 52 12 110q0 125 -74.5 206t-224.5 81q-78 0 -140.5 -22.5t-103 -59.5t-68 -89.5t-40.5 -107.5t-16 -118z" />
<glyph unicode="&#x178;" horiz-adv-x="1216" d="M70 1393h114l219 -410l205 -393h4l205 393l219 410h111l-485 -914v-479h-107v479zM360 1610q0 30 18.5 45.5t45.5 15.5t45 -15.5t18 -45.5q0 -29 -18.5 -45.5t-44.5 -16.5t-45 16.5t-19 45.5zM752 1610q0 30 18 45.5t45 15.5q28 0 46 -15t18 -46q0 -30 -18 -46t-46 -16 q-26 0 -44.5 16.5t-18.5 45.5z" />
<glyph unicode="&#x2c6;" horiz-adv-x="712" d="M94 1126l213 295h99l212 -295h-81l-181 230l-180 -230h-82z" />
<glyph unicode="&#x2dc;" horiz-adv-x="864" d="M94 1229q65 80 116.5 111.5t108.5 31.5q33 0 73.5 -20t71.5 -44.5t66 -44.5t58 -20q68 0 133 107l49 -43q-72 -148 -178 -148q-34 0 -85 32.5t-101 64.5t-82 32q-41 0 -79 -20t-108 -90z" />
<glyph unicode="&#x2000;" horiz-adv-x="917" />
<glyph unicode="&#x2001;" horiz-adv-x="1835" />
<glyph unicode="&#x2002;" horiz-adv-x="917" />
<glyph unicode="&#x2003;" horiz-adv-x="1835" />
<glyph unicode="&#x2004;" horiz-adv-x="611" />
<glyph unicode="&#x2005;" horiz-adv-x="458" />
<glyph unicode="&#x2006;" horiz-adv-x="305" />
<glyph unicode="&#x2007;" horiz-adv-x="305" />
<glyph unicode="&#x2008;" horiz-adv-x="229" />
<glyph unicode="&#x2009;" horiz-adv-x="367" />
<glyph unicode="&#x200a;" horiz-adv-x="101" />
<glyph unicode="&#x2010;" horiz-adv-x="921" d="M143 506v74h635v-74h-635z" />
<glyph unicode="&#x2011;" horiz-adv-x="921" d="M143 506v74h635v-74h-635z" />
<glyph unicode="&#x2012;" horiz-adv-x="921" d="M143 506v74h635v-74h-635z" />
<glyph unicode="&#x2013;" horiz-adv-x="1126" d="M143 506v74h840v-74h-840z" />
<glyph unicode="&#x2014;" horiz-adv-x="1740" d="M143 506v74h1454v-74h-1454z" />
<glyph unicode="&#x2018;" horiz-adv-x="372" d="M70 946q4 278 116 447l56 -19q-42 -86 -64 -203.5t-22 -224.5h-86z" />
<glyph unicode="&#x2019;" horiz-adv-x="372" d="M57 965q41 85 62.5 201.5t23.5 226.5h86q-8 -284 -116 -447z" />
<glyph unicode="&#x201a;" horiz-adv-x="372" d="M57 -207q41 85 62.5 201.5t23.5 226.5h86q-8 -283 -116 -446z" />
<glyph unicode="&#x201c;" horiz-adv-x="786" d="M70 946q4 278 116 447l56 -19q-42 -86 -64 -203.5t-22 -224.5h-86zM483 946q4 276 117 447l55 -19q-42 -86 -64 -203.5t-22 -224.5h-86z" />
<glyph unicode="&#x201d;" horiz-adv-x="786" d="M57 965q41 85 62.5 201.5t23.5 226.5h86q-8 -284 -116 -447zM471 965q41 85 62.5 201.5t23.5 226.5h86q-8 -282 -117 -447z" />
<glyph unicode="&#x201e;" horiz-adv-x="786" d="M57 -207q41 85 62.5 201.5t23.5 226.5h86q-8 -283 -116 -446zM471 -207q41 85 62.5 201.5t23.5 226.5h86q-8 -281 -117 -446z" />
<glyph unicode="&#x2022;" horiz-adv-x="561" d="M127 543q0 64 42.5 103.5t111.5 39.5t111 -39.5t42 -103.5q0 -66 -42 -106t-111 -40t-111.5 40t-42.5 106z" />
<glyph unicode="&#x2026;" horiz-adv-x="1191" d="M127 45q0 28 17 42.5t42 14.5t42.5 -14.5t17.5 -42.5t-17.5 -42.5t-42.5 -14.5t-42 14.5t-17 42.5zM537 45q0 28 17 42.5t42 14.5t42 -14.5t17 -42.5t-17 -42.5t-42 -14.5t-42 14.5t-17 42.5zM946 45q0 28 17.5 42.5t42.5 14.5t42 -14.5t17 -42.5t-17 -42.5t-42 -14.5 t-42.5 14.5t-17.5 42.5z" />
<glyph unicode="&#x202f;" horiz-adv-x="367" />
<glyph unicode="&#x2039;" horiz-adv-x="765" d="M143 483v58l480 340v-86l-394 -283l394 -283v-86z" />
<glyph unicode="&#x203a;" horiz-adv-x="765" d="M143 143v86l394 283l-394 283v86l480 -340v-58z" />
<glyph unicode="&#x205f;" horiz-adv-x="458" />
<glyph unicode="&#x20ac;" horiz-adv-x="1323" d="M41 528v41h158q-6 61 -6 127t6 127h-158v41h162q14 123 52 220t104 172.5t169 116t238 40.5q220 0 451 -90l-21 -84q-237 84 -420 84q-110 0 -194.5 -34.5t-139 -98t-87 -144t-46.5 -182.5h445v-41h-449q-6 -61 -6 -127t6 -127h449v-41h-445q14 -102 46.5 -182t87 -143.5 t139 -98t194.5 -34.5q183 0 420 84l21 -84q-231 -90 -451 -90q-135 0 -238 40.5t-169 115.5t-104 172t-52 220h-162z" />
<glyph unicode="&#x2122;" horiz-adv-x="1599" d="M57 1335v58h564v-58h-248v-778h-68v778h-248zM743 557v836h84l181 -346l135 -256h2l133 256l178 346h86v-836h-67v729h-2l-308 -586h-49l-309 586v-729h-64z" />
<glyph unicode="&#x25fc;" horiz-adv-x="1024" d="M0 0v1024h1024v-1024h-1024z" />
</font>
</defs>
</svg>
