<?xml version="1.0" standalone="no"?>
<!DOCTYPE svg PUBLIC "-//W3C//DTD SVG 1.1//EN" "http://www.w3.org/Graphics/SVG/1.1/DTD/svg11.dtd" >
<svg xmlns="http://www.w3.org/2000/svg">
<metadata></metadata>
<defs>
<font id="actolight" horiz-adv-x="1294" >
<font-face units-per-em="2048" ascent="1536" descent="-512" />
<missing-glyph horiz-adv-x="409" />
<glyph unicode="&#xfb01;" horiz-adv-x="1036" d="M49 918v98l154 8v125q0 142 65.5 203t216.5 61q69 0 158 -14l-12 -94q-61 10 -115 10q-100 0 -138 -39.5t-38 -136.5v-115h563v-1024h-137v918h-426v-918h-137v918h-154zM745 1245q0 72 89 72q90 0 90 -72q0 -76 -90 -76q-89 0 -89 76z" />
<glyph unicode="&#xfb02;" horiz-adv-x="1126" d="M49 918v98l154 8v125q0 142 65.5 203t216.5 61q69 0 158 -14l-12 -94q-61 10 -115 10q-100 0 -138 -39.5t-38 -136.5v-115h264v-106h-264v-918h-137v918h-154zM766 172v1221h137v-1209q0 -52 22.5 -76t75.5 -24q43 0 76 8v-100q-86 -12 -123 -12q-49 0 -84.5 12t-55 30 t-31 45t-14.5 50.5t-3 54.5z" />
<glyph unicode="&#xfb03;" horiz-adv-x="1599" d="M49 918v98l154 8v125q0 142 65.5 203t216.5 61q69 0 158 -14l-12 -94q-61 10 -115 10q-100 0 -138 -39.5t-38 -136.5v-115h426v125q0 142 66 203t217 61q68 0 157 -14l-12 -94q-61 10 -115 10q-100 0 -138 -39.5t-38 -136.5v-115h563v-1024h-137v918h-426v-918h-137v918 h-426v-918h-137v918h-154zM1309 1245q0 72 88 72q90 0 90 -72q0 -76 -90 -76q-88 0 -88 76z" />
<glyph unicode="&#xfb04;" horiz-adv-x="1689" d="M49 918v98l154 8v125q0 142 65.5 203t216.5 61q69 0 158 -14l-12 -94q-61 10 -115 10q-100 0 -138 -39.5t-38 -136.5v-115h426v125q0 142 66 203t217 61q68 0 157 -14l-12 -94q-61 10 -115 10q-100 0 -138 -39.5t-38 -136.5v-115h264v-106h-264v-918h-137v918h-426v-918 h-137v918h-154zM1329 172v1221h137v-1209q0 -52 23 -76t76 -24q42 0 75 8v-100q-86 -12 -122 -12q-49 0 -85 12t-55.5 30t-31 45t-14.5 50.5t-3 54.5z" />
<glyph horiz-adv-x="0" />
<glyph horiz-adv-x="682" />
<glyph unicode=" "  horiz-adv-x="409" />
<glyph unicode="&#x09;" horiz-adv-x="409" />
<glyph unicode="&#xa0;" horiz-adv-x="409" />
<glyph unicode="!" horiz-adv-x="434" d="M125 70q0 38 24.5 60t67.5 22q42 0 67 -22t25 -60q0 -37 -25.5 -60.5t-66.5 -23.5q-42 0 -67 23.5t-25 60.5zM139 881v512h156v-512l-31 -596h-94z" />
<glyph unicode="&#x22;" horiz-adv-x="780" d="M133 999v394h119l-43 -394h-76zM528 999v394h119l-43 -394h-76z" />
<glyph unicode="#" horiz-adv-x="1241" d="M133 451l8 81h205l37 349h-205l8 82h205l27 256h88l-27 -256h336l27 256h88l-27 -256h205l-8 -82h-205l-37 -349h205l-8 -81h-205l-29 -256h-88l29 256h-336l-29 -256h-88l29 256h-205zM434 532h336l37 349h-336z" />
<glyph unicode="$" horiz-adv-x="1171" d="M98 43l23 123q251 -63 436 -66l8 553q-49 16 -72.5 24t-69.5 25t-70 29t-61.5 33t-58 40.5t-46 47.5t-38 57.5t-21.5 67.5t-9 80q0 92 35 161.5t97.5 111t143.5 62t180 21.5l3 184h38l-2 -184q211 -3 433 -67l-33 -119q-226 60 -402 63l-6 -502q177 -57 244 -89 q169 -82 209 -220q14 -48 14 -104q0 -189 -132 -291t-347 -104l-2 -185h-39l2 185q-238 3 -457 63zM268 1057q0 -53 22.5 -94t68 -71t92 -49.5t116.5 -41.5l6 489q-163 -3 -234 -67.5t-71 -165.5zM596 100q84 2 149 26t103 62.5t57 83.5t19 93q0 46 -18 84t-44.5 64.5 t-72 51t-85.5 40t-100 34.5z" />
<glyph unicode="%" horiz-adv-x="1558" d="M70 1122q0 126 83.5 208.5t208.5 82.5t209 -83t84 -208q0 -124 -84 -206t-209 -82t-208.5 82t-83.5 206zM152 1122q0 -91 60 -153t150 -62q89 0 150 62t61 153q0 92 -60.5 153.5t-150.5 61.5q-91 0 -150.5 -61.5t-59.5 -153.5zM377 0l694 1393h109l-693 -1393h-110z M903 268q0 125 84 208t209 83q126 0 209.5 -82.5t83.5 -208.5q0 -125 -83 -206.5t-210 -81.5q-125 0 -209 81.5t-84 206.5zM987 268q0 -91 59.5 -153t149.5 -62t150.5 62t60.5 153t-60.5 153t-150.5 62t-149.5 -62t-59.5 -153z" />
<glyph unicode="&#x26;" horiz-adv-x="1458" d="M104 350q0 124 80.5 223.5t274.5 182.5q-3 4 -27 31l-32 36t-29.5 36.5t-31 42.5t-25 42.5t-22 48.5t-12.5 48t-6 53q0 144 107.5 231.5t273.5 87.5q91 0 168.5 -15.5t200.5 -51.5l-31 -107q-96 28 -133.5 38t-88 18t-103.5 8q-67 0 -118 -22.5t-77 -57.5t-38.5 -70.5 t-12.5 -69.5q0 -41 12 -77.5t39.5 -74t49.5 -61.5t65 -67l473 -473q117 151 166 387h127q-52 -284 -207 -473l186 -187l-90 -94l-186 189q-203 -172 -486 -172q-230 0 -348.5 100.5t-118.5 269.5zM246 371q0 -35 8.5 -69.5t32.5 -73.5t61 -67.5t100 -47.5t144 -19 q218 0 383 142l-445 448q-66 -31 -110 -58t-87.5 -64.5t-65 -85t-21.5 -105.5z" />
<glyph unicode="'" horiz-adv-x="385" d="M133 999v394h119l-43 -394h-76z" />
<glyph unicode="(" horiz-adv-x="571" d="M154 696q0 215 76 428.5t233 401.5h67q-225 -429 -225 -830q0 -400 225 -829h-67q-157 188 -233 401t-76 428z" />
<glyph unicode=")" horiz-adv-x="571" d="M41 -133q223 430 223 829q0 400 -223 830h65q158 -188 235 -401.5t77 -428.5t-77 -428t-235 -401h-65z" />
<glyph unicode="*" horiz-adv-x="681" d="M88 1098v78l225 -29l-176 137l53 59l140 -180l-27 230h78l-31 -230l142 180l53 -59l-178 -137l227 29v-78l-227 26l178 -135l-53 -57l-142 178l31 -229h-78l27 229l-140 -178l-53 57l176 135z" />
<glyph unicode="+" horiz-adv-x="1024" d="M133 655v101h328v329h100v-329h330v-101h-330v-327h-100v327h-328z" />
<glyph unicode="," horiz-adv-x="401" d="M61 -201q84 175 84 373h138q-2 -113 -30 -205.5t-97 -191.5z" />
<glyph unicode="-" horiz-adv-x="921" d="M133 492v100h655v-100h-655z" />
<glyph unicode="." horiz-adv-x="421" d="M119 70q0 38 24.5 60t67.5 22q42 0 67 -22t25 -60q0 -37 -25.5 -60.5t-66.5 -23.5q-42 0 -67 23.5t-25 60.5z" />
<glyph unicode="/" horiz-adv-x="1044" d="M121 0l694 1393h109l-695 -1393h-108z" />
<glyph unicode="0" d="M133 702q0 150 29.5 275.5t89.5 224.5t161 155t234 56t234 -56t161 -155t89.5 -224.5t29.5 -275.5q0 -152 -29.5 -279.5t-89.5 -228t-161 -157.5t-234 -57t-234 57t-161 157.5t-89.5 228t-29.5 279.5zM283 702q0 -97 11.5 -181.5t38 -162t67.5 -133t104 -88.5t143 -33 t143 33t104 88.5t68 133t38.5 162.5t11.5 181q0 122 -19 223.5t-60 185t-114 130.5t-172 47q-80 0 -143 -31.5t-104 -85t-67.5 -129.5t-38 -159.5t-11.5 -180.5z" />
<glyph unicode="1" horiz-adv-x="661" d="M78 1223l342 176h2h100v-1399h-147v1227l-94 -51l-162 -89z" />
<glyph unicode="2" horiz-adv-x="1054" d="M63 0v119q406 347 555.5 531t149.5 347q0 80 -28.5 140.5t-75.5 93t-98.5 48t-106.5 15.5q-183 0 -367 -90l-29 107q216 102 426 102q206 0 317.5 -111.5t111.5 -283.5q0 -63 -16.5 -126.5t-42 -117.5t-70.5 -115.5t-87 -109.5t-108 -112t-116.5 -109t-128.5 -114 q-68 -60 -103 -91v-4l233 6h463v-125h-879z" />
<glyph unicode="3" horiz-adv-x="1130" d="M63 74l46 112q172 -88 387 -88q90 0 156.5 20.5t101.5 49t56 69.5t26.5 71.5t5.5 64.5q0 121 -91 193.5t-280 72.5h-166v113h160q157 0 248.5 82t91.5 194q0 34 -6 66t-26 70.5t-52.5 66t-91 46.5t-135.5 19q-188 0 -351 -88l-43 109q191 96 420 96q205 0 319.5 -95.5 t114.5 -266.5q0 -126 -78.5 -213t-203.5 -125v-4q151 -26 238 -119.5t87 -227.5q0 -184 -122 -283t-361 -99q-275 0 -451 94z" />
<glyph unicode="4" horiz-adv-x="1169" d="M84 369v120l629 904h184v-904h188v-120h-188v-369h-149v369h-664zM231 489h517v461l2 283h-5l-192 -283z" />
<glyph unicode="5" horiz-adv-x="1124" d="M92 82l37 111q191 -95 389 -95q156 0 250 81.5t94 221.5q0 83 -34.5 145t-93.5 101t-150 64t-190 35t-228 12l31 635h733v-119h-604l-27 -402q131 -2 236.5 -18.5t196 -51t151.5 -87.5t95 -132t34 -180q0 -190 -133 -306.5t-355 -116.5q-230 0 -432 102z" />
<glyph unicode="6" horiz-adv-x="1204" d="M133 621q0 175 31 312t84 226.5t129 147t160 82t182 24.5q94 0 161.5 -12.5t147.5 -38.5l-20 -109q-144 43 -285 43q-75 0 -138.5 -22.5t-107.5 -58t-79 -85.5t-56 -100t-36 -108t-21 -101.5t-9 -87.5q1 0 2.5 -1t2.5 -1q67 93 159.5 147t196.5 54q201 0 317.5 -124 t116.5 -351q0 -219 -129 -348t-326 -129q-92 0 -167 24.5t-127 69.5t-89.5 103.5t-59 132t-31 149.5t-9.5 162zM283 616q0 -90 7 -159.5t28 -139.5t56.5 -116t96 -74.5t143.5 -28.5q132 0 223 94.5t91 258.5q0 52 -8 99t-30.5 97t-57 86t-93.5 59t-135 23q-94 0 -179 -55.5 t-142 -143.5z" />
<glyph unicode="7" horiz-adv-x="956" d="M70 1274v119h817v-97l-549 -1296h-143l421 997l125 275v4h-196z" />
<glyph unicode="8" horiz-adv-x="1251" d="M133 342q0 250 354 373v4q-142 49 -228.5 134t-86.5 210q0 163 127.5 256.5t329.5 93.5q128 0 228.5 -40t160 -118.5t59.5 -183.5q0 -122 -78.5 -197.5t-234.5 -138.5v-4q82 -33 142 -67t110.5 -78.5t76 -101.5t25.5 -126q0 -180 -132 -279t-363 -99q-227 0 -358.5 95.5 t-131.5 266.5zM285 358q0 -54 17.5 -99t55 -84t106 -61t161.5 -22q90 0 157.5 21.5t105 59t55.5 82.5t18 97q0 50 -22 93.5t-53 72.5t-84 57.5t-93.5 45t-102.5 38.5q-321 -102 -321 -301zM330 1063q0 -56 24 -100.5t69 -76.5t98 -54.5t122 -40.5q64 22 111.5 45t89 54.5 t63 73.5t21.5 93q0 67 -29.5 117.5t-77 76t-96.5 37.5t-100 12q-36 0 -73.5 -6.5t-78 -23.5t-71.5 -43t-51.5 -68.5t-20.5 -95.5z" />
<glyph unicode="9" horiz-adv-x="1204" d="M133 936q0 219 129 348t326 129q92 0 166.5 -24.5t126.5 -69.5t89.5 -103.5t59 -132.5t31.5 -150.5t10 -162.5q0 -175 -31 -312t-84 -226t-129 -146.5t-160.5 -81.5t-183.5 -24q-155 0 -307 49l19 110q151 -45 286 -45q75 0 138.5 22.5t107.5 58t79 86.5t55.5 100.5 t35.5 108t21 101.5t10 88l-4 3q-67 -93 -160.5 -147t-198.5 -54q-200 0 -316 124t-116 351zM276 942q0 -52 8 -99.5t30 -97.5t57 -86.5t93.5 -60t135.5 -23.5q92 0 177.5 56t144.5 143q0 74 -5 134t-18 122t-37.5 107.5t-60 82t-90 55.5t-123.5 19q-131 0 -221.5 -94.5 t-90.5 -257.5z" />
<glyph unicode=":" horiz-adv-x="421" d="M119 70q0 38 24.5 60t67.5 22q42 0 67 -22t25 -60q0 -37 -25.5 -60.5t-66.5 -23.5q-42 0 -67 23.5t-25 60.5zM119 731q0 38 24.5 60t67.5 22q42 0 67 -22t25 -60q0 -37 -25.5 -60.5t-66.5 -23.5q-42 0 -67 23.5t-25 60.5z" />
<glyph unicode=";" horiz-adv-x="421" d="M61 -201q84 175 84 373h138q-2 -113 -30 -205.5t-97 -191.5zM119 731q0 38 24.5 60t67.5 22q42 0 67 -22t25 -60q0 -37 -25.5 -60.5t-66.5 -23.5q-42 0 -67 23.5t-25 60.5z" />
<glyph unicode="&#x3c;" horiz-adv-x="759" d="M133 668v75l494 342v-114l-375 -264l375 -265v-114z" />
<glyph unicode="=" horiz-adv-x="1024" d="M133 614v183h758v-183h-758z" />
<glyph unicode="&#x3e;" horiz-adv-x="759" d="M133 328v114l375 265l-375 264v114l494 -342v-75z" />
<glyph unicode="?" horiz-adv-x="1021" d="M70 1311q216 102 426 102q206 0 317 -111.5t111 -283.5q0 -60 -15 -114t-41 -96t-61.5 -79.5t-74.5 -66t-83 -53.5t-84 -44.5t-79 -37.5q-1 0 -3 -1v-182h-118v258q172 78 241 124q165 119 168 278q0 64 -19 115.5t-49.5 83.5t-72 53t-83 29.5t-85.5 8.5q-183 0 -367 -90 zM332 70q0 38 24.5 60t67.5 22q42 0 67 -22t25 -60q0 -37 -25.5 -60.5t-66.5 -23.5q-42 0 -67 23.5t-25 60.5z" />
<glyph unicode="@" horiz-adv-x="1814" d="M119 514q0 177 59.5 328.5t166.5 259t262 168.5t339 61q340 0 545 -184t205 -483q0 -110 -34 -205.5t-98 -167t-163.5 -113t-222.5 -41.5h-74l-25 80q-49 -42 -94.5 -64t-107.5 -22q-142 0 -211.5 102t-69.5 271q0 166 85 266t251 100q158 0 260 -51v-583q90 0 160.5 28 t112 71.5t68.5 102t36.5 112t9.5 109.5q0 179 -83.5 307.5t-225 191.5t-324.5 63q-327 0 -518.5 -188t-191.5 -519q0 -305 172 -480t469 -175q0 -19 -1.5 -55.5t-1.5 -53.5q-230 0 -403 100.5t-262.5 272.5t-89.5 391zM711 508q0 -295 200 -295q97 0 168 76v467 q-59 26 -147 26q-119 0 -170 -70t-51 -204z" />
<glyph unicode="A" d="M63 0l500 1403h182l486 -1403h-154l-133 381h-598l-135 -381h-148zM375 494h543l-265 761h-6z" />
<glyph unicode="B" horiz-adv-x="1267" d="M154 0v1393h548q196 0 304 -97t108 -258q0 -122 -64.5 -207t-181.5 -116v-4q135 -28 211 -119t76 -221q0 -172 -107 -271.5t-305 -99.5h-589zM303 125h424q134 0 206.5 66t72.5 194q0 123 -78.5 192.5t-229.5 69.5h-395v-522zM303 772h389q273 0 273 248 q0 115 -71.5 181.5t-201.5 66.5h-389v-496z" />
<glyph unicode="C" horiz-adv-x="1275" d="M133 696q0 124 19 228.5t62.5 196t110 155.5t167.5 100.5t229 36.5q229 0 457 -94l-27 -117q-227 86 -414 86q-100 0 -178.5 -31t-129.5 -84t-84.5 -129t-47.5 -161.5t-14 -186.5t14 -187t47.5 -162t84.5 -129t129.5 -83.5t178.5 -30.5q185 0 414 84l27 -114 q-228 -94 -457 -94q-128 0 -229 36.5t-167.5 100t-110 155.5t-62.5 196t-19 228z" />
<glyph unicode="D" horiz-adv-x="1343" d="M154 0v1393h481q125 0 223.5 -35t164 -96.5t108 -149.5t61 -189t18.5 -221q0 -153 -30.5 -276.5t-96 -221t-179 -151t-269.5 -53.5h-481zM297 125h338q96 0 170.5 31t122 83t78 127t43 157t12.5 179q0 566 -426 566h-338v-1143z" />
<glyph unicode="E" horiz-adv-x="1124" d="M154 0v1393h862v-125h-713v-482h619v-124h-619v-537h723v-125h-872z" />
<glyph unicode="F" horiz-adv-x="1067" d="M154 0v1393h835v-125h-686v-523h592v-124h-592v-621h-149z" />
<glyph unicode="G" horiz-adv-x="1331" d="M133 696q0 124 19 228.5t62.5 196t110 155.5t167.5 100.5t229 36.5q229 0 457 -94l-27 -117q-227 86 -414 86q-100 0 -178.5 -31t-129.5 -84t-84.5 -129t-47.5 -161.5t-14 -186.5q0 -127 24 -231t75 -186.5t138 -128.5t205 -46q138 0 303 54v516h150v-600 q-228 -94 -457 -94q-128 0 -229 36.5t-167.5 100t-110 155.5t-62.5 196t-19 228z" />
<glyph unicode="H" horiz-adv-x="1329" d="M154 0v1393h149v-607h723v607h150v-1393h-150v662h-723v-662h-149z" />
<glyph unicode="I" horiz-adv-x="456" d="M154 0v1393h149v-1393h-149z" />
<glyph unicode="J" horiz-adv-x="626" d="M35 -4l14 119q86 -11 115 -11q160 0 160 197v1092h149v-1098q0 -163 -67 -239t-203 -76q-86 0 -168 16z" />
<glyph unicode="K" horiz-adv-x="1251" d="M154 0v1393h149v-1393h-149zM317 698l656 695h184l-663 -688l680 -705h-193z" />
<glyph unicode="L" horiz-adv-x="1062" d="M154 0v1393h149v-1268h696v-125h-845z" />
<glyph unicode="M" horiz-adv-x="1656" d="M154 0v1393h184l280 -551l209 -412h4l207 412l277 551h188v-1393h-147v1163h-4l-478 -930h-106l-477 930v-1163h-137z" />
<glyph unicode="N" horiz-adv-x="1355" d="M154 0v1393h137l772 -1143h2v1143h137v-1393h-145l-766 1130h-4l4 -344v-786h-137z" />
<glyph unicode="O" horiz-adv-x="1417" d="M133 702q0 120 18.5 223t61.5 194t108 155.5t164 101.5t224 37t224 -37t164 -101.5t107.5 -155.5t61 -194t18.5 -223q0 -122 -18.5 -226.5t-61 -197t-107.5 -158t-164 -103t-224 -37.5t-224 37.5t-164 103t-108 158t-61.5 197t-18.5 226.5zM283 702q0 -97 12.5 -181 t43 -162.5t78 -133.5t122 -88t170.5 -33t170.5 33t122 88t78 133.5t43 162.5t12.5 181q0 98 -12.5 181t-43 159.5t-78 129.5t-122 84.5t-170.5 31.5t-170.5 -31.5t-122 -84.5t-78 -129.5t-43 -159.5t-12.5 -181z" />
<glyph unicode="P" horiz-adv-x="1234" d="M154 0v1393h563q196 0 308 -112.5t112 -289.5q0 -185 -110.5 -293t-309.5 -108h-414v-590h-149zM303 715h399q136 0 210.5 70t74.5 206q0 128 -76 202.5t-209 74.5h-399v-553z" />
<glyph unicode="Q" horiz-adv-x="1417" d="M133 702q0 120 18.5 223t61.5 194t108 155.5t164 101.5t224 37t224 -37t164 -101.5t107.5 -155.5t61 -194t18.5 -223q0 -131 -22.5 -242.5t-69.5 -206.5t-128.5 -161t-191.5 -94l258 -250l-94 -84l-327 316q-125 0 -224 37.5t-164 103t-108 158t-61.5 197t-18.5 226.5z M283 702q0 -97 12.5 -181t43 -162.5t78 -133.5t122 -88t170.5 -33t170.5 33t122 88t78 133.5t43 162.5t12.5 181q0 98 -12.5 181t-43 159.5t-78 129.5t-122 84.5t-170.5 31.5t-170.5 -31.5t-122 -84.5t-78 -129.5t-43 -159.5t-12.5 -181z" />
<glyph unicode="R" horiz-adv-x="1253" d="M154 0v1393h563q195 0 307.5 -116t112.5 -294q0 -159 -82.5 -265.5t-233.5 -133.5l361 -584h-170l-355 573h-354v-573h-149zM303 698h399q132 0 208.5 76t76.5 209q0 128 -74.5 206.5t-195.5 78.5h-414v-570z" />
<glyph unicode="S" horiz-adv-x="1171" d="M98 43l23 123q260 -66 459 -66q88 0 156.5 23.5t108 62.5t59.5 84.5t20 94.5q0 59 -27.5 104.5t-74 75.5t-107 55t-127.5 46t-133.5 44t-127 55t-107 72t-74 101.5t-27.5 138.5q0 93 36 163t100.5 111.5t147 61.5t183.5 20q224 0 461 -67l-33 -119q-235 63 -426 63 q-171 0 -245.5 -64.5t-74.5 -168.5q0 -57 27.5 -100.5t74 -72.5t107 -52t127 -43.5t133.5 -42.5t127.5 -54t107 -72.5t74 -103t27.5 -141.5q0 -128 -64 -218t-172 -133.5t-251 -43.5q-263 0 -488 63z" />
<glyph unicode="T" horiz-adv-x="1116" d="M78 1268v125h960v-125h-405v-1268h-150v1268h-405z" />
<glyph unicode="U" horiz-adv-x="1335" d="M154 498v895h149v-895q0 -37 2 -68t10.5 -73.5t23.5 -75t42.5 -67.5t65 -58t95 -37.5t128.5 -14.5q70 0 126.5 14.5t93.5 37.5t64.5 58t42 68t23 75t10.5 73t2 68v895h150v-895q0 -518 -514 -518t-514 518z" />
<glyph unicode="V" d="M63 1393h154l295 -867l129 -379h6l135 379l301 867h148l-500 -1403h-182z" />
<glyph unicode="W" horiz-adv-x="1894" d="M63 1393h154l215 -781l109 -422h2l110 422l215 781h164l217 -781l111 -422h2l108 422l213 781h148l-383 -1403h-178l-320 1159h-4l-321 -1159h-179z" />
<glyph unicode="X" horiz-adv-x="1314" d="M78 0l481 731l-436 662h170l192 -289l172 -262h5l169 264l191 287h164l-438 -662l489 -731h-172l-250 369l-170 254h-4l-166 -256l-239 -367h-158z" />
<glyph unicode="Y" horiz-adv-x="1230" d="M63 1393h158l205 -389l190 -381h7l188 381l205 389h151l-477 -920v-473h-149v473z" />
<glyph unicode="Z" horiz-adv-x="1169" d="M98 0v102l758 1162v4h-717v125h908v-105l-756 -1159v-4h780v-125h-973z" />
<glyph unicode="[" horiz-adv-x="571" d="M154 -104v1601h366v-63h-217v-1475h227v-63h-376z" />
<glyph unicode="\" horiz-adv-x="1044" d="M121 1393h108l695 -1393h-109z" />
<glyph unicode="]" horiz-adv-x="571" d="M41 -41h227v1475h-217v63h367v-1601h-377v63z" />
<glyph unicode="^" horiz-adv-x="753" d="M90 1044l211 390h150l213 -390h-101l-188 308l-185 -308h-100z" />
<glyph unicode="_" horiz-adv-x="1003" d="M133 -82h737v-88h-737v88z" />
<glyph unicode="`" horiz-adv-x="522" d="M90 1313l66 96l276 -231l-53 -72z" />
<glyph unicode="a" horiz-adv-x="1032" d="M98 233q0 167 166 258.5t498 116.5v119q0 104 -62.5 160.5t-181.5 56.5q-131 0 -332 -74l-28 97q228 77 381 77q162 0 261 -79t99 -234v-731h-121l-16 135q-86 -84 -173 -119.5t-190 -35.5q-131 0 -216 67t-85 186zM236 254q0 -77 52.5 -122.5t149.5 -45.5q186 0 324 145 v289q-252 -15 -389 -87t-137 -179z" />
<glyph unicode="b" horiz-adv-x="1097" d="M133 61v1332h137v-471h4q129 122 310 122q103 0 181.5 -40.5t125.5 -113.5t70.5 -168t23.5 -210q0 -91 -18 -170.5t-56 -146t-93.5 -114.5t-135 -74.5t-176.5 -26.5q-218 0 -373 81zM270 133q97 -53 234 -53q172 0 255 116t83 310q0 91 -17.5 166.5t-52.5 134.5t-95 92 t-140 33q-145 0 -267 -101v-698z" />
<glyph unicode="c" horiz-adv-x="935" d="M113 512q0 117 28.5 212.5t86 167.5t151 112t215.5 40q127 0 264 -45l-20 -102q-131 41 -230 41q-76 0 -137 -22.5t-100.5 -61t-66 -93.5t-37.5 -116.5t-11 -132.5t11 -132.5t37.5 -116.5t66 -93.5t100.5 -61t137 -22.5q99 0 230 41l20 -102q-137 -45 -264 -45 q-122 0 -215.5 39.5t-151 111.5t-86 168t-28.5 213z" />
<glyph unicode="d" horiz-adv-x="1097" d="M113 512q0 115 24.5 210t72.5 168t127.5 113.5t182.5 40.5q178 0 303 -118h4v467h138v-1393h-123l-15 102h-4q-129 -122 -309 -122q-103 0 -181.5 40.5t-125.5 113.5t-70.5 168t-23.5 210zM256 512q0 -89 17.5 -163t52.5 -132.5t95 -91.5t140 -33q144 0 266 101v638 q-122 101 -266 101q-64 0 -115.5 -22t-86.5 -60.5t-58.5 -92t-34 -114.5t-10.5 -131z" />
<glyph unicode="e" horiz-adv-x="1112" d="M113 512q0 117 29 213t87 168t151.5 111.5t215.5 39.5q93 0 165.5 -24t116 -62t72 -90.5t39 -103t10.5 -105.5q0 -86 -20 -170h-723q1 -71 13 -129.5t40 -110.5t71.5 -87t110.5 -55.5t154 -20.5q163 0 291 45l16 -102q-157 -49 -331 -49q-134 0 -233.5 39.5t-158.5 112 t-87.5 167.5t-28.5 213zM256 590h602q10 62 10 104q0 108 -68.5 182t-205.5 74q-71 0 -128.5 -21t-95 -55.5t-63.5 -82t-37.5 -97t-13.5 -104.5z" />
<glyph unicode="f" horiz-adv-x="677" d="M49 918v98l154 8v125q0 142 65.5 203t216.5 61q69 0 158 -14l-12 -94q-61 10 -115 10q-100 0 -138 -39.5t-38 -136.5v-115h264v-106h-264v-918h-137v918h-154z" />
<glyph unicode="g" horiz-adv-x="1097" d="M113 512q0 116 29 211.5t86 168t149.5 112.5t212.5 40q210 0 375 -81v-998q0 -158 -115 -256t-315 -98q-181 0 -349 43l23 100q156 -41 307 -41q81 0 143.5 23t97.5 61t52.5 81.5t17.5 90.5v146h-4q-130 -123 -309 -123q-104 0 -182 39t-125 109.5t-70.5 163.5t-23.5 208 zM256 524q0 -123 29.5 -214.5t99.5 -148.5t176 -57q144 0 266 101v686q-106 53 -233 53q-171 0 -254.5 -115.5t-83.5 -304.5z" />
<glyph unicode="h" horiz-adv-x="1091" d="M133 0v1393h137v-519h4q180 170 379 170q305 0 305 -329v-715h-137v692q0 240 -225 240q-155 0 -326 -144v-788h-137z" />
<glyph unicode="i" horiz-adv-x="403" d="M113 1245q0 72 88 72q90 0 90 -72q0 -76 -90 -76q-88 0 -88 76zM133 0v1024h137v-1024h-137z" />
<glyph unicode="j" horiz-adv-x="403" d="M-111 -377l15 103q53 -11 86 -11q56 0 89 33t43.5 80.5t10.5 116.5v1079h137v-1079q0 -163 -59.5 -248.5t-190.5 -85.5q-76 0 -131 12zM113 1245q0 72 88 72q90 0 90 -72q0 -76 -90 -76q-88 0 -88 76z" />
<glyph unicode="k" horiz-adv-x="1007" d="M133 0v1393h137v-1393h-137zM285 543l483 481h162l-494 -473l514 -551h-166z" />
<glyph unicode="l" horiz-adv-x="493" d="M133 172v1221h137v-1209q0 -52 23 -76t76 -24q42 0 75 8v-100q-86 -12 -122 -12q-49 0 -85 12t-55.5 30t-31 45t-14.5 50.5t-3 54.5z" />
<glyph unicode="m" horiz-adv-x="1751" d="M133 0v1024h123l14 -150h4q87 82 173 126t192 44q226 0 283 -186q103 97 194 141.5t197 44.5q305 0 305 -329v-715h-137v692q0 240 -226 240q-152 0 -317 -148q6 -40 6 -92v-692h-137v692q0 240 -225 240q-48 0 -95.5 -14t-90 -39.5t-68 -44.5t-58.5 -46v-788h-137z" />
<glyph unicode="n" horiz-adv-x="1091" d="M133 0v1024h123l14 -141q182 161 383 161q305 0 305 -329v-715h-137v692q0 240 -225 240q-155 0 -326 -144v-788h-137z" />
<glyph unicode="o" horiz-adv-x="1126" d="M113 512q0 110 26.5 204.5t79.5 168.5t141.5 116.5t202.5 42.5t202 -42.5t141.5 -116.5t80.5 -168.5t27 -204.5t-27 -204.5t-80.5 -168.5t-141.5 -116.5t-202 -42.5t-202.5 42.5t-141.5 116.5t-79.5 168.5t-26.5 204.5zM256 512q0 -90 16.5 -165.5t51.5 -136.5t96 -95.5 t143 -34.5t143 34.5t96 95.5t51.5 136.5t16.5 165.5t-16.5 165.5t-51.5 136.5t-96 95.5t-143 34.5t-143 -34.5t-96 -95.5t-51.5 -136.5t-16.5 -165.5z" />
<glyph unicode="p" horiz-adv-x="1097" d="M133 -369v1393h123l14 -102h4q129 122 310 122q103 0 181.5 -40.5t125.5 -113.5t70.5 -168t23.5 -210q0 -91 -15 -170t-47.5 -146t-79.5 -115t-115 -74.5t-150 -26.5q-179 0 -304 118h-4v-467h-137zM270 193q122 -101 267 -101q80 0 140 33t95 91.5t52.5 132.5t17.5 163 q0 70 -10.5 131t-34 114.5t-58.5 92t-86.5 60.5t-115.5 22q-145 0 -267 -101v-638z" />
<glyph unicode="q" horiz-adv-x="1097" d="M113 512q0 114 29 209.5t86 168.5t149.5 113.5t212.5 40.5q210 0 375 -81v-1332h-138v471h-4q-129 -122 -309 -122q-103 0 -181.5 40.5t-125.5 113.5t-70.5 168t-23.5 210zM256 518q0 -91 17.5 -166.5t52.5 -134.5t95 -92t140 -33q144 0 266 101v698q-106 53 -233 53 q-116 0 -193.5 -57t-111 -150t-33.5 -219z" />
<glyph unicode="r" horiz-adv-x="677" d="M133 0v1024h123l14 -180h4q73 92 173 146t210 54v-131q-112 0 -212.5 -44.5t-174.5 -100.5v-768h-137z" />
<glyph unicode="s" horiz-adv-x="983" d="M102 23l23 104q175 -51 334 -51q64 0 113.5 13.5t76.5 33.5t44 46.5t22.5 47.5t5.5 41q0 52 -33 90.5t-85.5 62.5t-116.5 45.5t-128 46.5t-116.5 57t-85.5 85.5t-33 124.5q0 126 107 200t292 74q160 0 336 -45l-20 -102q-171 49 -301 49q-73 0 -126.5 -16t-80.5 -42.5 t-39 -53t-12 -54.5q0 -45 26 -80.5t68 -58t96.5 -44t110.5 -38.5t110.5 -43t96.5 -56t68 -78.5t26 -109.5q0 -138 -109.5 -215t-294.5 -77q-207 0 -375 43z" />
<glyph unicode="t" horiz-adv-x="618" d="M49 918v98l154 8v287h137v-287h229v-106h-229v-691q0 -143 133 -143q63 0 96 8v-100q-86 -12 -149 -12q-66 0 -111 19.5t-67 55t-30.5 73.5t-8.5 87v703h-154z" />
<glyph unicode="u" horiz-adv-x="1091" d="M133 307v717h137v-692q0 -240 226 -240q149 0 325 141v791h137v-1024h-122l-15 150h-4q-180 -170 -379 -170q-305 0 -305 327z" />
<glyph unicode="v" horiz-adv-x="1046" d="M49 1024h156l215 -580l104 -313h4l103 313l219 580h147l-391 -1034h-166z" />
<glyph unicode="w" horiz-adv-x="1617" d="M49 1024h150l184 -580l90 -325h4l84 325l176 580h146l174 -580l84 -325h6l88 325l186 580h148l-336 -1034h-170l-256 876l-258 -876h-164z" />
<glyph unicode="x" horiz-adv-x="1073" d="M63 0l379 518l-376 506h165l197 -260l113 -168h4l121 172l192 256h146l-375 -506l381 -518h-166l-199 258l-115 172h-4l-120 -176l-189 -254h-154z" />
<glyph unicode="y" horiz-adv-x="1046" d="M49 1024h156q97 -265 119 -317l16 -43q64 -184 184 -533h4l86 272q11 29 34 89t34 90l168 442h147l-526 -1393h-131l147 394h-59z" />
<glyph unicode="z" horiz-adv-x="962" d="M70 0v100l635 813v5h-605v106h774v-100l-626 -813v-5h643v-106h-821z" />
<glyph unicode="{" horiz-adv-x="587" d="M92 657v76q85 10 114.5 56.5t29.5 138.5q0 62 -10.5 158t-10.5 149q0 291 332 291v-58q-44 0 -75 -8.5t-60.5 -32.5t-44.5 -74t-15 -126q0 -53 11.5 -152t11.5 -164q0 -176 -172 -215q172 -39 172 -217q0 -66 -11.5 -163.5t-11.5 -149.5q0 -77 15 -127.5t44.5 -74 t60.5 -32t75 -8.5v-57q-332 0 -332 291q0 53 10.5 148t10.5 157q0 91 -29.5 137.5t-114.5 56.5z" />
<glyph unicode="|" horiz-adv-x="401" d="M154 -205v1802h94v-1802h-94z" />
<glyph unicode="}" horiz-adv-x="587" d="M41 -76q34 0 59.5 4.5t52.5 19.5t44 40.5t28 70.5t11 107q0 52 -11.5 149.5t-11.5 163.5q0 178 170 217q-170 39 -170 215q0 65 11.5 164t11.5 152q0 76 -15.5 126t-45 74t-60.5 32.5t-74 8.5v58q332 0 332 -291q0 -53 -10.5 -149t-10.5 -158q0 -92 29.5 -138.5 t114.5 -56.5v-76q-85 -10 -114.5 -56.5t-29.5 -137.5q0 -62 10.5 -157t10.5 -148q0 -291 -332 -291v57z" />
<glyph unicode="~" horiz-adv-x="880" d="M90 629q62 84 118 116.5t116 32.5q42 0 94 -31t99 -61.5t75 -30.5q67 0 133 103l66 -62q-77 -155 -193 -155q-35 0 -86.5 30.5t-101.5 60.5t-82 30q-42 0 -78 -18t-100 -85z" />
<glyph unicode="&#xa1;" horiz-adv-x="434" d="M125 952q0 38 24.5 61t67.5 23q41 0 66.5 -23t25.5 -61q0 -37 -25.5 -59.5t-66.5 -22.5q-42 0 -67 22.5t-25 59.5zM139 143l31 596h94l31 -596v-512h-156v512z" />
<glyph unicode="&#xa2;" horiz-adv-x="1241" d="M98 696q0 122 18.5 226t61.5 195t108 155t164 101.5t224 39.5v184h39v-184q214 -6 430 -94l-27 -117q-220 83 -403 86v-1184q181 3 403 84l27 -114q-216 -88 -430 -94v-185h-39v185q-125 2 -224 39.5t-164 101t-108 154.5t-61.5 195t-18.5 226zM248 696 q0 -98 13.5 -181.5t45 -158.5t79.5 -128.5t121.5 -86.5t166.5 -37v1184q-116 -5 -200.5 -53.5t-132.5 -131.5t-70.5 -183.5t-22.5 -223.5z" />
<glyph unicode="&#xa3;" horiz-adv-x="1234" d="M98 672v76h185q-38 81 -59 155t-21 164q0 89 36 156.5t100.5 108.5t147.5 61t183 20q223 0 460 -67l-32 -119q-235 63 -422 63q-91 0 -156.5 -20t-100.5 -55.5t-51 -77.5t-16 -93q0 -84 20.5 -151.5t57.5 -144.5h416v-76h-381q59 -129 59 -242q0 -108 -45 -188.5 t-119 -122.5v-6l314 12h463v-125h-998v115q114 24 178 110.5t64 202.5q0 109 -64 244h-219z" />
<glyph unicode="&#xa4;" horiz-adv-x="1050" d="M143 928l17 16l162 -184q90 74 204 74q113 0 203 -74l160 184l18 -16l-159 -183q102 -96 102 -235q0 -68 -26.5 -129t-73.5 -105l155 -176l-18 -18l-158 178q-88 -72 -203 -72q-116 0 -204 72l-156 -178l-19 18l156 176q-98 95 -98 234q0 138 98 233zM229 510 q0 -122 87.5 -209.5t209.5 -87.5t210.5 88t88.5 209q0 122 -88.5 210.5t-210.5 88.5q-121 0 -209 -88.5t-88 -210.5z" />
<glyph unicode="&#xa5;" horiz-adv-x="1243" d="M70 1393h157l205 -389l191 -381h6l188 381l205 389h152l-459 -883h286v-51h-305v-459h-149v459h-305v51h286z" />
<glyph unicode="&#xa6;" horiz-adv-x="401" d="M154 -205v778h94v-778h-94zM154 819v778h94v-778h-94z" />
<glyph unicode="&#xa7;" horiz-adv-x="1216" d="M135 -123l35 100q240 -65 414 -65q90 0 158 27.5t106.5 72.5t57 96.5t18.5 106.5q0 87 -24.5 174.5t-71 176.5t-94 165t-115 182.5t-111.5 186.5l53 26q41 -54 111.5 -143.5t109 -140t92.5 -125.5t83.5 -129t59.5 -120t43 -129t13 -128q0 -131 -65 -223t-172 -135 t-244 -43q-235 0 -457 67zM141 1133q0 131 66 223.5t173 136t243 43.5q221 0 458 -68l-34 -100q-238 64 -416 64q-89 0 -157 -27.5t-106.5 -73t-57.5 -97t-19 -106.5q0 -106 42.5 -223.5t95 -204t140.5 -226t138 -230.5l-52 -25q-42 55 -111.5 143t-109 139.5t-93 126 t-84 129t-60.5 120t-43 128.5t-13 128z" />
<glyph unicode="&#xa8;" horiz-adv-x="702" d="M70 1247q0 39 23 57.5t57 18.5t56.5 -18.5t22.5 -57.5q0 -38 -23 -58t-56 -20t-56.5 20t-23.5 58zM473 1247q0 38 23.5 57t56.5 19q34 0 57 -18.5t23 -57.5q0 -38 -23.5 -58t-56.5 -20q-32 0 -56 20.5t-24 57.5z" />
<glyph unicode="&#xa9;" horiz-adv-x="1148" d="M55 891q0 106 40.5 201.5t109.5 164.5t165.5 109.5t202.5 40.5q141 0 261 -68.5t190 -187.5t70 -260t-70 -260t-190 -187.5t-261 -68.5q-106 0 -202.5 40.5t-165.5 109.5t-109.5 164.5t-40.5 201.5zM100 891q0 -97 37 -184.5t100 -150.5t151 -100.5t185 -37.5 q128 0 237.5 63t174 172t64.5 238t-64.5 237.5t-174 171t-237.5 62.5q-97 0 -185 -37t-151 -100t-100 -150t-37 -184zM367 891q0 117 50.5 187.5t162.5 70.5q74 0 163 -35q-1 -10 -10 -45q-91 31 -147 31q-85 0 -123.5 -57.5t-38.5 -151.5q0 -96 38.5 -153.5t123.5 -57.5 q56 0 147 31q8 -27 10 -43q-78 -35 -163 -35q-112 0 -162.5 70.5t-50.5 187.5z" />
<glyph unicode="&#xaa;" horiz-adv-x="747" d="M61 584v65h625v-65h-625zM109 922q0 95 105 153.5t294 67.5v71q0 61 -37.5 96.5t-108.5 35.5q-70 0 -196 -50l-19 62q139 47 230 47q98 0 157.5 -47.5t59.5 -140.5v-439h-78q-5 67 -10 88q-92 -100 -225 -100q-74 0 -123 42t-49 114zM197 932q0 -46 32.5 -72t92.5 -26 q105 0 186 84v172q-151 -7 -231 -50.5t-80 -107.5z" />
<glyph unicode="&#xab;" horiz-adv-x="1271" d="M133 473v76l494 342v-115l-375 -264l375 -264v-115zM645 473v76l494 342v-115l-375 -264l375 -264v-115z" />
<glyph unicode="&#xac;" horiz-adv-x="1208" d="M174 686v100h860v-325h-100v225h-760z" />
<glyph unicode="&#xad;" horiz-adv-x="921" d="M133 492v100h655v-100h-655z" />
<glyph unicode="&#xae;" horiz-adv-x="1148" d="M55 891q0 106 40.5 201.5t109.5 164.5t165.5 109.5t202.5 40.5q141 0 261 -68.5t190 -187.5t70 -260t-70 -260t-190 -187.5t-261 -68.5q-106 0 -202.5 40.5t-165.5 109.5t-109.5 164.5t-40.5 201.5zM100 891q0 -97 37 -184.5t100 -150.5t151 -100.5t185 -37.5 q128 0 237.5 63t174 172t64.5 238t-64.5 237.5t-174 171t-237.5 62.5q-97 0 -185 -37t-151 -100t-100 -150t-37 -184zM408 641v502h204q70 0 111 -42t41 -108q0 -57 -29.5 -95t-83.5 -48l129 -209h-65l-121 205h-129v-205h-57zM465 893h141q45 0 73 27.5t28 72.5 q0 43 -28 72t-73 29h-141v-201z" />
<glyph unicode="&#xaf;" horiz-adv-x="790" d="M90 1196v82h610v-82h-610z" />
<glyph unicode="&#xb0;" horiz-adv-x="530" d="M90 1241q0 73 50.5 122.5t125.5 49.5q74 0 124 -49.5t50 -122.5q0 -75 -50 -124.5t-124 -49.5q-75 0 -125.5 49.5t-50.5 124.5zM152 1241q0 -52 32 -85.5t82 -33.5q49 0 81 34t32 85q0 50 -32 83.5t-81 33.5q-50 0 -82 -33.5t-32 -83.5z" />
<glyph unicode="&#xb1;" horiz-adv-x="1024" d="M133 246v100h758v-100h-758zM133 729v100h328v330h100v-330h330v-100h-330v-328h-100v328h-328z" />
<glyph unicode="&#xb2;" horiz-adv-x="710" d="M90 864v74q243 205 332.5 315t89.5 207q0 49 -17 85.5t-45.5 55.5t-58.5 28t-63 9q-106 0 -222 -53l-16 66q132 61 256 61t191 -67t67 -170q0 -30 -6.5 -59.5t-15 -55t-27 -55.5t-32.5 -51.5t-42.5 -53t-46 -50t-54 -52t-55.5 -50.5t-61 -54t-61 -54v-2l141 4h277v-78 h-531z" />
<glyph unicode="&#xb3;" horiz-adv-x="743" d="M90 909l29 70q100 -53 233 -53q65 0 109 17t63 44.5t26 51t7 48.5q0 72 -55 116t-166 44h-98v70h96q92 0 146.5 49t54.5 115q0 26 -7.5 50t-25.5 50t-57.5 41.5t-96.5 15.5q-112 0 -209 -51l-26 68q114 57 254 57q124 0 192 -58t68 -161q0 -74 -47 -126t-121 -75v-2 q90 -17 142 -73t52 -136q0 -109 -74.5 -169t-218.5 -60q-164 0 -270 57z" />
<glyph unicode="&#xb4;" horiz-adv-x="522" d="M90 1178l277 231l65 -96l-289 -207z" />
<glyph unicode="&#xb5;" horiz-adv-x="1091" d="M-111 -377l15 84q48 -10 86 -10q42 0 71.5 17.5t44.5 50.5t21 71.5t6 89.5v1098h137v-692q0 -240 226 -240q149 0 325 141v791h137v-1024h-122l-15 150h-4q-180 -170 -379 -170q-140 0 -217 71v-137q0 -149 -50 -226t-163 -77q-64 0 -119 12z" />
<glyph unicode="&#xb6;" horiz-adv-x="1220" d="M98 1004q0 169 110 279t279 110h197v-1393h-115v573q-118 0 -211 38t-148 101t-83.5 137.5t-28.5 154.5zM840 0v1393h282v-76h-166v-1317h-116z" />
<glyph unicode="&#xb7;" horiz-adv-x="286" d="M70 676q0 69 73 69q31 0 52.5 -16.5t21.5 -52.5q0 -35 -22 -53.5t-52 -18.5q-31 0 -52 18.5t-21 53.5z" />
<glyph unicode="&#xb8;" horiz-adv-x="514" d="M90 -406l10 68q74 -18 111 -18q55 0 83 28t28 64q0 41 -31.5 73t-112.5 35l19 156h71l-14 -111q69 -3 119.5 -44t50.5 -115q0 -69 -53 -114.5t-140 -45.5q-61 0 -141 24z" />
<glyph unicode="&#xb9;" horiz-adv-x="724" d="M90 864v78h227v655h-2l-55 -32l-143 -80l-27 82l256 137h64v-762h225v-78h-545z" />
<glyph unicode="&#xba;" horiz-adv-x="747" d="M61 584v65h625v-65h-625zM92 1085q0 89 27.5 159.5t90 115.5t152.5 45q135 0 203 -90.5t68 -229.5t-68 -229t-203 -90q-68 0 -121 25.5t-85 70t-48 101t-16 122.5zM180 1085q0 -72 17 -127.5t59 -92t106 -36.5q95 0 139 71.5t44 184.5t-44 184.5t-139 71.5 q-64 0 -106 -36.5t-59 -92t-17 -127.5z" />
<glyph unicode="&#xbb;" horiz-adv-x="1271" d="M133 133v115l375 264l-375 264v115l494 -342v-76zM645 133v115l375 264l-375 264v115l494 -342v-76z" />
<glyph unicode="&#xbc;" horiz-adv-x="1806" d="M90 557v78h227v655h-2l-55 -33l-143 -79l-27 82l256 137h64v-762h225v-78h-545zM567 0l699 1393h73l-696 -1393h-76zM1112 219v76l375 541h117v-541h112v-76h-112v-219h-93v219h-399zM1204 295h307v272v168h-2l-114 -168q-72 -98 -191 -272z" />
<glyph unicode="&#xbd;" horiz-adv-x="1806" d="M90 557v78h227v655h-2l-55 -33l-143 -79l-27 82l256 137h64v-762h225v-78h-545zM555 0l698 1393h74l-696 -1393h-76zM1186 0v74q243 205 332.5 315t89.5 207q0 47 -17.5 83.5t-45.5 56t-59 29t-63 9.5q-103 0 -219 -53l-18 65q135 62 256 62q124 0 191 -67.5t67 -170.5 q0 -37 -10 -74.5t-23 -68t-41 -68t-49 -63t-62.5 -65.5t-66.5 -62.5t-75 -67t-75 -67.5l142 4h276v-78h-530z" />
<glyph unicode="&#xbe;" horiz-adv-x="1806" d="M90 602l29 70q102 -54 233 -54q65 0 109 17t63 45t26 51.5t7 48.5q0 72 -55 116t-166 44h-98v70h96q92 0 146.5 49t54.5 115q0 26 -7.5 50t-25.5 50t-57.5 41.5t-96.5 15.5q-112 0 -209 -51l-26 68q114 57 254 57q124 0 192 -58t68 -161q0 -74 -47 -126t-121 -75v-2 q90 -17 142 -73t52 -136q0 -109 -74.5 -169t-218.5 -60q-164 0 -270 57zM582 0l698 1393h74l-697 -1393h-75zM1112 219v76l375 541h117v-541h112v-76h-112v-219h-93v219h-399zM1204 295h307v440h-2l-114 -168z" />
<glyph unicode="&#xbf;" horiz-adv-x="1021" d="M98 4q0 59 15.5 112.5t38 94t60.5 79t71 64.5t81.5 54.5t80.5 44.5t79 38q10 5 15 7v182h118v-258q-168 -78 -231 -119q-160 -104 -176 -248q-2 -17 -2 -35q0 -64 19 -115.5t49.5 -83.5t72 -53t83 -29.5t85.5 -8.5q180 0 369 88l26 -105q-209 -102 -426 -102 q-205 0 -316.5 111t-111.5 282zM506 952q0 38 25.5 61t66.5 23q43 0 67.5 -23t24.5 -61q0 -37 -25 -59.5t-67 -22.5q-41 0 -66.5 22.5t-25.5 59.5z" />
<glyph unicode="&#xc0;" d="M63 0l500 1403h182l486 -1403h-154l-133 381h-598l-135 -381h-148zM367 1681l67 97l275 -232l-54 -71zM375 494h543l-265 761h-6z" />
<glyph unicode="&#xc1;" d="M63 0l500 1403h182l486 -1403h-154l-133 381h-598l-135 -381h-148zM375 494h543l-265 761h-6zM602 1546l277 232l65 -97l-289 -206z" />
<glyph unicode="&#xc2;" d="M63 0l500 1403h182l486 -1403h-154l-133 381h-598l-135 -381h-148zM375 494h543l-265 761h-6zM391 1495l211 299h137l213 -299h-112l-168 211l-168 -211h-113z" />
<glyph unicode="&#xc3;" d="M63 0l500 1403h182l486 -1403h-154l-133 381h-598l-135 -381h-148zM303 1612q62 84 118 116.5t116 32.5q33 0 73.5 -19t71.5 -42.5t65.5 -42.5t57.5 -19q67 0 133 103l66 -62q-74 -155 -193 -155q-28 0 -66.5 19t-70.5 41.5t-69.5 41.5t-63.5 19q-42 0 -78.5 -18 t-100.5 -85zM375 494h543l-265 761h-6z" />
<glyph unicode="&#xc4;" d="M63 0l500 1403h182l486 -1403h-154l-133 381h-598l-135 -381h-148zM375 494h543l-265 761h-6zM383 1616q0 39 23 57.5t57 18.5t57 -18.5t23 -57.5q0 -38 -23.5 -58t-56.5 -20t-56.5 20t-23.5 58zM786 1616q0 39 23 57.5t57 18.5t57 -18.5t23 -57.5q0 -38 -23.5 -58 t-56.5 -20t-56.5 20t-23.5 58z" />
<glyph unicode="&#xc5;" d="M63 0l500 1403h182l486 -1403h-154l-133 381h-598l-135 -381h-148zM375 494h543l-265 761h-6zM461 1679q0 78 53.5 131.5t132.5 53.5t133 -53.5t54 -131.5q0 -81 -53.5 -132.5t-133.5 -51.5t-133 51.5t-53 132.5zM541 1679q0 -47 30 -78.5t76 -31.5q47 0 78 31.5t31 78.5 q0 46 -31 77.5t-78 31.5q-45 0 -75.5 -31.5t-30.5 -77.5z" />
<glyph unicode="&#xc6;" horiz-adv-x="1851" d="M63 0l746 1393h934v-125h-713v-482h619v-124h-619v-537h723v-125h-872v381h-465l-201 -381h-152zM465 494h416v761h-7l-204 -389z" />
<glyph unicode="&#xc7;" horiz-adv-x="1275" d="M133 696q0 124 19 228.5t62.5 196t110 155.5t167.5 100.5t229 36.5q229 0 457 -94l-27 -117q-227 86 -414 86q-100 0 -178.5 -31t-129.5 -84t-84.5 -129t-47.5 -161.5t-14 -186.5t14 -187t47.5 -162t84.5 -129t129.5 -83.5t178.5 -30.5q185 0 414 84l27 -114 q-216 -88 -428 -94l-11 -91q69 -3 119.5 -44t50.5 -115q0 -69 -52.5 -114.5t-139.5 -45.5q-65 0 -144 24l11 68q74 -18 112 -18q54 0 81.5 28t27.5 64q0 18 -5.5 34t-19.5 33t-43.5 27.5t-72.5 11.5l16 138q-120 6 -213.5 45.5t-155.5 103.5t-102.5 154t-58 191.5 t-17.5 221.5z" />
<glyph unicode="&#xc8;" horiz-adv-x="1124" d="M154 0v1393h862v-125h-713v-482h619v-124h-619v-537h723v-125h-872zM317 1681l66 97l276 -232l-53 -71z" />
<glyph unicode="&#xc9;" horiz-adv-x="1124" d="M154 0v1393h862v-125h-713v-482h619v-124h-619v-537h723v-125h-872zM475 1546l277 232l65 -97l-287 -206z" />
<glyph unicode="&#xca;" horiz-adv-x="1124" d="M154 0v1393h862v-125h-713v-482h619v-124h-619v-537h723v-125h-872zM332 1495l211 299h137l213 -299h-113l-168 211l-168 -211h-112z" />
<glyph unicode="&#xcb;" horiz-adv-x="1124" d="M154 0v1393h862v-125h-713v-482h619v-124h-619v-537h723v-125h-872zM309 1616q0 39 23 57.5t57 18.5t57 -18.5t23 -57.5q0 -38 -23.5 -58t-56.5 -20t-56.5 20t-23.5 58zM715 1616q0 39 23 57.5t57 18.5q33 0 56 -19t23 -57q0 -37 -23.5 -57.5t-55.5 -20.5q-33 0 -56.5 20 t-23.5 58z" />
<glyph unicode="&#xcc;" horiz-adv-x="456" d="M-66 1681l68 97l277 -232l-56 -71zM154 0v1393h149v-1393h-149z" />
<glyph unicode="&#xcd;" horiz-adv-x="456" d="M154 0v1393h149v-1393h-149zM172 1546l277 232l67 -97l-289 -206z" />
<glyph unicode="&#xce;" horiz-adv-x="456" d="M-41 1495l211 299h137l213 -299h-112l-168 211l-168 -211h-113zM152 0v1393h149v-1393h-149z" />
<glyph unicode="&#xcf;" horiz-adv-x="456" d="M-49 1616q0 39 23 57.5t57 18.5t57 -18.5t23 -57.5q0 -38 -23.5 -58t-56.5 -20t-56.5 20t-23.5 58zM154 0v1393h149v-1393h-149zM356 1616q0 39 23 57.5t57 18.5q33 0 56.5 -19t23.5 -57q0 -37 -24 -57.5t-56 -20.5q-33 0 -56.5 20t-23.5 58z" />
<glyph unicode="&#xd0;" horiz-adv-x="1343" d="M57 653v101h97v639h481q125 0 223.5 -35t164 -96.5t108 -149.5t61 -189t18.5 -221q0 -153 -30.5 -276.5t-96 -221t-179 -151t-269.5 -53.5h-481v653h-97zM297 125h338q96 0 170.5 31t122 83t78 127t43 157t12.5 179q0 566 -426 566h-338v-514h272v-101h-272v-528z" />
<glyph unicode="&#xd1;" horiz-adv-x="1355" d="M154 0v1393h137l772 -1143h2v1143h137v-1393h-145l-766 1130h-4l4 -344v-786h-137zM334 1612q60 83 116.5 116t116.5 33q33 0 73.5 -19t71.5 -42.5t66 -42.5t58 -19q67 0 133 103l65 -62q-37 -73 -82 -114t-110 -41q-35 0 -86.5 30t-102 60.5t-82.5 30.5q-42 0 -78 -18 t-100 -85z" />
<glyph unicode="&#xd2;" horiz-adv-x="1417" d="M133 702q0 120 18.5 223t61.5 194t108 155.5t164 101.5t224 37t224 -37t164 -101.5t107.5 -155.5t61 -194t18.5 -223q0 -122 -18.5 -226.5t-61 -197t-107.5 -158t-164 -103t-224 -37.5t-224 37.5t-164 103t-108 158t-61.5 197t-18.5 226.5zM283 702q0 -97 12.5 -181 t43 -162.5t78 -133.5t122 -88t170.5 -33t170.5 33t122 88t78 133.5t43 162.5t12.5 181q0 98 -12.5 181t-43 159.5t-78 129.5t-122 84.5t-170.5 31.5t-170.5 -31.5t-122 -84.5t-78 -129.5t-43 -159.5t-12.5 -181zM449 1681l65 97l277 -232l-54 -71z" />
<glyph unicode="&#xd3;" horiz-adv-x="1417" d="M133 702q0 120 18.5 223t61.5 194t108 155.5t164 101.5t224 37t224 -37t164 -101.5t107.5 -155.5t61 -194t18.5 -223q0 -122 -18.5 -226.5t-61 -197t-107.5 -158t-164 -103t-224 -37.5t-224 37.5t-164 103t-108 158t-61.5 197t-18.5 226.5zM283 702q0 -97 12.5 -181 t43 -162.5t78 -133.5t122 -88t170.5 -33t170.5 33t122 88t78 133.5t43 162.5t12.5 181q0 98 -12.5 181t-43 159.5t-78 129.5t-122 84.5t-170.5 31.5t-170.5 -31.5t-122 -84.5t-78 -129.5t-43 -159.5t-12.5 -181zM629 1546l274 232l68 -97l-289 -206z" />
<glyph unicode="&#xd4;" horiz-adv-x="1417" d="M133 702q0 120 18.5 223t61.5 194t108 155.5t164 101.5t224 37t224 -37t164 -101.5t107.5 -155.5t61 -194t18.5 -223q0 -122 -18.5 -226.5t-61 -197t-107.5 -158t-164 -103t-224 -37.5t-224 37.5t-164 103t-108 158t-61.5 197t-18.5 226.5zM283 702q0 -97 12.5 -181 t43 -162.5t78 -133.5t122 -88t170.5 -33t170.5 33t122 88t78 133.5t43 162.5t12.5 181q0 98 -12.5 181t-43 159.5t-78 129.5t-122 84.5t-170.5 31.5t-170.5 -31.5t-122 -84.5t-78 -129.5t-43 -159.5t-12.5 -181zM453 1495l211 299h137l213 -299h-113l-168 211l-168 -211 h-112z" />
<glyph unicode="&#xd5;" horiz-adv-x="1417" d="M133 702q0 120 18.5 223t61.5 194t108 155.5t164 101.5t224 37t224 -37t164 -101.5t107.5 -155.5t61 -194t18.5 -223q0 -122 -18.5 -226.5t-61 -197t-107.5 -158t-164 -103t-224 -37.5t-224 37.5t-164 103t-108 158t-61.5 197t-18.5 226.5zM283 702q0 -97 12.5 -181 t43 -162.5t78 -133.5t122 -88t170.5 -33t170.5 33t122 88t78 133.5t43 162.5t12.5 181q0 98 -12.5 181t-43 159.5t-78 129.5t-122 84.5t-170.5 31.5t-170.5 -31.5t-122 -84.5t-78 -129.5t-43 -159.5t-12.5 -181zM365 1612q60 83 116.5 116t116.5 33q33 0 73.5 -19 t71.5 -42.5t65.5 -42.5t57.5 -19q67 0 133 103l66 -62q-77 -155 -193 -155q-28 0 -66.5 19t-70.5 41.5t-69.5 41.5t-63.5 19q-42 0 -78 -18t-100 -85z" />
<glyph unicode="&#xd6;" horiz-adv-x="1417" d="M133 702q0 120 18.5 223t61.5 194t108 155.5t164 101.5t224 37t224 -37t164 -101.5t107.5 -155.5t61 -194t18.5 -223q0 -122 -18.5 -226.5t-61 -197t-107.5 -158t-164 -103t-224 -37.5t-224 37.5t-164 103t-108 158t-61.5 197t-18.5 226.5zM283 702q0 -97 12.5 -181 t43 -162.5t78 -133.5t122 -88t170.5 -33t170.5 33t122 88t78 133.5t43 162.5t12.5 181q0 98 -12.5 181t-43 159.5t-78 129.5t-122 84.5t-170.5 31.5t-170.5 -31.5t-122 -84.5t-78 -129.5t-43 -159.5t-12.5 -181zM444 1616q0 39 23 57.5t57 18.5t57 -18.5t23 -57.5 q0 -38 -23.5 -58t-56.5 -20t-56.5 20t-23.5 58zM848 1616q0 38 23.5 57t56.5 19q34 0 57 -18.5t23 -57.5q0 -38 -23.5 -58t-56.5 -20q-32 0 -56 20.5t-24 57.5z" />
<glyph unicode="&#xd7;" horiz-adv-x="989" d="M133 416l289 291l-289 288l72 72l289 -289l290 289l72 -72l-291 -288l291 -291l-72 -72l-290 291l-289 -291z" />
<glyph unicode="&#xd8;" horiz-adv-x="1417" d="M133 702q0 120 18.5 223t61.5 194t108 155.5t164 101.5t224 37q150 0 266 -55l55 117h78l-72 -152q248 -169 248 -621q0 -122 -18.5 -226.5t-61 -197t-107.5 -158t-164 -103t-224 -37.5q-160 0 -279 61l-57 -123h-78l76 160q-238 176 -238 624zM283 702q0 -344 149 -493 l486 1030q-87 49 -209 49q-96 0 -170.5 -31.5t-122 -84.5t-78 -129.5t-43 -159.5t-12.5 -181zM489 164q88 -60 220 -60q96 0 170.5 33t122 88t78 133.5t43 162.5t12.5 181q0 351 -158 494z" />
<glyph unicode="&#xd9;" horiz-adv-x="1335" d="M154 498v895h149v-895q0 -37 2 -68t10.5 -73.5t23.5 -75t42.5 -67.5t65 -58t95 -37.5t128.5 -14.5q70 0 126.5 14.5t93.5 37.5t64.5 58t42 68t23 75t10.5 73t2 68v895h150v-895q0 -518 -514 -518t-514 518zM387 1681l68 97l274 -232l-53 -71z" />
<glyph unicode="&#xda;" horiz-adv-x="1335" d="M154 498v895h149v-895q0 -37 2 -68t10.5 -73.5t23.5 -75t42.5 -67.5t65 -58t95 -37.5t128.5 -14.5q70 0 126.5 14.5t93.5 37.5t64.5 58t42 68t23 75t10.5 73t2 68v895h150v-895q0 -518 -514 -518t-514 518zM604 1546l277 232l67 -97l-289 -206z" />
<glyph unicode="&#xdb;" horiz-adv-x="1335" d="M154 498v895h149v-895q0 -37 2 -68t10.5 -73.5t23.5 -75t42.5 -67.5t65 -58t95 -37.5t128.5 -14.5q70 0 126.5 14.5t93.5 37.5t64.5 58t42 68t23 75t10.5 73t2 68v895h150v-895q0 -518 -514 -518t-514 518zM412 1495l211 299h137l213 -299h-113l-168 211l-168 -211h-112z " />
<glyph unicode="&#xdc;" horiz-adv-x="1335" d="M154 498v895h149v-895q0 -37 2 -68t10.5 -73.5t23.5 -75t42.5 -67.5t65 -58t95 -37.5t128.5 -14.5q70 0 126.5 14.5t93.5 37.5t64.5 58t42 68t23 75t10.5 73t2 68v895h150v-895q0 -518 -514 -518t-514 518zM403 1616q0 39 23 57.5t57 18.5t57 -18.5t23 -57.5 q0 -38 -23.5 -58t-56.5 -20t-56.5 20t-23.5 58zM807 1616q0 38 23.5 57t56.5 19q34 0 57 -18.5t23 -57.5q0 -38 -23.5 -58t-56.5 -20q-32 0 -56 20.5t-24 57.5z" />
<glyph unicode="&#xdd;" horiz-adv-x="1230" d="M63 1393h158l205 -389l190 -381h7l188 381l205 389h151l-477 -920v-473h-149v473zM557 1546l277 232l65 -97l-287 -206z" />
<glyph unicode="&#xde;" horiz-adv-x="1234" d="M154 0v1393h149v-291h414q196 0 308 -112.5t112 -289.5q0 -185 -110.5 -293t-309.5 -108h-414v-299h-149zM303 424h399q136 0 210.5 70t74.5 206q0 128 -76 202.5t-209 74.5h-399v-553z" />
<glyph unicode="&#xdf;" horiz-adv-x="1282" d="M49 918v98l154 8q0 190 117 289.5t301 99.5q168 0 278.5 -78.5t110.5 -214.5q0 -61 -27 -115.5t-65.5 -91.5t-77 -68.5t-65.5 -61t-27 -54.5q0 -35 44.5 -71t108 -70t127 -74t108 -99t44.5 -128q0 -150 -111.5 -228.5t-288.5 -78.5q-142 0 -270 40l18 107 q131 -41 240 -41q65 0 114 15t76.5 36.5t44.5 51t22 53.5t5 49q0 44 -30.5 84t-76.5 69t-100 61.5t-100 61t-76.5 68t-30.5 82.5q0 33 24.5 66t59.5 63.5t70 64t59.5 81t24.5 100.5q0 99 -69.5 153.5t-174.5 54.5q-136 0 -203 -81t-67 -213v-1006h-137v918h-154z" />
<glyph unicode="&#xe0;" horiz-adv-x="1032" d="M98 233q0 167 166 258.5t498 116.5v119q0 104 -62.5 160.5t-181.5 56.5q-131 0 -332 -74l-28 97q228 77 381 77q162 0 261 -79t99 -234v-731h-121l-16 135q-86 -84 -173 -119.5t-190 -35.5q-131 0 -216 67t-85 186zM236 254q0 -77 52.5 -122.5t149.5 -45.5q186 0 324 145 v289q-252 -15 -389 -87t-137 -179zM293 1313l65 96l277 -231l-53 -72z" />
<glyph unicode="&#xe1;" horiz-adv-x="1032" d="M98 233q0 167 166 258.5t498 116.5v119q0 104 -62.5 160.5t-181.5 56.5q-131 0 -332 -74l-28 97q228 77 381 77q162 0 261 -79t99 -234v-731h-121l-16 135q-86 -84 -173 -119.5t-190 -35.5q-131 0 -216 67t-85 186zM236 254q0 -77 52.5 -122.5t149.5 -45.5q186 0 324 145 v289q-252 -15 -389 -87t-137 -179zM446 1178l277 231l68 -96l-289 -207z" />
<glyph unicode="&#xe2;" horiz-adv-x="1032" d="M98 233q0 167 166 258.5t498 116.5v119q0 104 -62.5 160.5t-181.5 56.5q-131 0 -332 -74l-28 97q228 77 381 77q162 0 261 -79t99 -234v-731h-121l-16 135q-86 -84 -173 -119.5t-190 -35.5q-131 0 -216 67t-85 186zM236 254q0 -77 52.5 -122.5t149.5 -45.5q186 0 324 145 v289q-252 -15 -389 -87t-137 -179zM272 1126l211 299h138l213 -299h-113l-168 211l-168 -211h-113z" />
<glyph unicode="&#xe3;" horiz-adv-x="1032" d="M98 233q0 167 166 258.5t498 116.5v119q0 104 -62.5 160.5t-181.5 56.5q-131 0 -332 -74l-28 97q228 77 381 77q162 0 261 -79t99 -234v-731h-121l-16 135q-86 -84 -173 -119.5t-190 -35.5q-131 0 -216 67t-85 186zM201 1243q108 150 233 150q33 0 73.5 -19t71.5 -42.5 t65.5 -42.5t57.5 -19q69 0 134 102l65 -61q-37 -74 -82 -115t-110 -41q-35 0 -86.5 30.5t-102 60.5t-82.5 30q-42 0 -78 -17.5t-100 -84.5zM236 254q0 -77 52.5 -122.5t149.5 -45.5q186 0 324 145v289q-252 -15 -389 -87t-137 -179z" />
<glyph unicode="&#xe4;" horiz-adv-x="1032" d="M98 233q0 167 166 258.5t498 116.5v119q0 104 -62.5 160.5t-181.5 56.5q-131 0 -332 -74l-28 97q228 77 381 77q162 0 261 -79t99 -234v-731h-121l-16 135q-86 -84 -173 -119.5t-190 -35.5q-131 0 -216 67t-85 186zM236 254q0 -77 52.5 -122.5t149.5 -45.5q186 0 324 145 v289q-252 -15 -389 -87t-137 -179zM252 1247q0 39 23 57.5t57 18.5t57 -18.5t23 -57.5q0 -38 -23.5 -58t-56.5 -20t-56.5 20t-23.5 58zM655 1247q0 39 23 57.5t57 18.5t57 -18.5t23 -57.5q0 -38 -23.5 -58t-56.5 -20t-56.5 20t-23.5 58z" />
<glyph unicode="&#xe5;" horiz-adv-x="1032" d="M98 233q0 167 166 258.5t498 116.5v119q0 104 -62.5 160.5t-181.5 56.5q-131 0 -332 -74l-28 97q228 77 381 77q162 0 261 -79t99 -234v-731h-121l-16 135q-86 -84 -173 -119.5t-190 -35.5q-131 0 -216 67t-85 186zM236 254q0 -77 52.5 -122.5t149.5 -45.5q186 0 324 145 v289q-252 -15 -389 -87t-137 -179zM371 1311q0 78 54 131t134 53q78 0 132 -53t54 -131q0 -81 -53.5 -133t-132.5 -52q-80 0 -134 52t-54 133zM451 1311q0 -48 30.5 -79.5t77.5 -31.5q46 0 77.5 32t31.5 79q0 46 -31.5 77t-77.5 31q-47 0 -77.5 -31t-30.5 -77z" />
<glyph unicode="&#xe6;" horiz-adv-x="1759" d="M98 233q0 167 166 258.5t498 116.5v119q0 104 -62.5 160.5t-181.5 56.5q-131 0 -332 -74l-28 97q228 77 381 77q117 0 202 -40.5t125 -122.5q128 163 377 163q93 0 165.5 -24t116.5 -62t72.5 -90.5t39 -103t10.5 -105.5q0 -81 -21 -170h-723q1 -71 13 -129.5t40 -110.5 t71.5 -87t110.5 -55.5t154 -20.5q163 0 291 45l16 -102q-157 -49 -331 -49q-304 0 -428 202q-215 -202 -441 -202q-131 0 -216 67t-85 186zM236 254q0 -77 52.5 -122.5t149.5 -45.5q108 0 195.5 48.5t167.5 127.5q-41 105 -41 250v8q-251 -15 -387.5 -87t-136.5 -179z M903 590h602q11 68 11 104q0 108 -69 182t-206 74q-71 0 -128.5 -21t-95 -55.5t-63.5 -82t-37.5 -97t-13.5 -104.5z" />
<glyph unicode="&#xe7;" horiz-adv-x="935" d="M113 512q0 117 28.5 212.5t86 167.5t151 112t215.5 40q127 0 264 -45l-20 -102q-131 41 -230 41q-76 0 -137 -22.5t-100.5 -61t-66 -93.5t-37.5 -116.5t-11 -132.5t11 -132.5t37.5 -116.5t66 -93.5t100.5 -61t137 -22.5q99 0 230 41l20 -102q-137 -45 -260 -45l-12 -91 q69 -3 119.5 -44t50.5 -115q0 -69 -53 -114.5t-140 -45.5q-65 0 -141 24l8 68q74 -18 113 -18q55 0 82.5 28t27.5 64q0 18 -5.5 34t-20 33t-44.5 27.5t-73 11.5l16 142q-207 21 -310 162.5t-103 365.5z" />
<glyph unicode="&#xe8;" horiz-adv-x="1112" d="M113 512q0 117 29 213t87 168t151.5 111.5t215.5 39.5q93 0 165.5 -24t116 -62t72 -90.5t39 -103t10.5 -105.5q0 -86 -20 -170h-723q1 -71 13 -129.5t40 -110.5t71.5 -87t110.5 -55.5t154 -20.5q163 0 291 45l16 -102q-157 -49 -331 -49q-134 0 -233.5 39.5t-158.5 112 t-87.5 167.5t-28.5 213zM256 590h602q10 62 10 104q0 108 -68.5 182t-205.5 74q-71 0 -128.5 -21t-95 -55.5t-63.5 -82t-37.5 -97t-13.5 -104.5zM324 1313l65 96l277 -231l-54 -72z" />
<glyph unicode="&#xe9;" horiz-adv-x="1112" d="M113 512q0 117 29 213t87 168t151.5 111.5t215.5 39.5q93 0 165.5 -24t116 -62t72 -90.5t39 -103t10.5 -105.5q0 -86 -20 -170h-723q1 -71 13 -129.5t40 -110.5t71.5 -87t110.5 -55.5t154 -20.5q163 0 291 45l16 -102q-157 -49 -331 -49q-134 0 -233.5 39.5t-158.5 112 t-87.5 167.5t-28.5 213zM256 590h602q10 62 10 104q0 108 -68.5 182t-205.5 74q-71 0 -128.5 -21t-95 -55.5t-63.5 -82t-37.5 -97t-13.5 -104.5zM524 1178l275 231l67 -96l-288 -207z" />
<glyph unicode="&#xea;" horiz-adv-x="1112" d="M113 512q0 117 29 213t87 168t151.5 111.5t215.5 39.5q93 0 165.5 -24t116 -62t72 -90.5t39 -103t10.5 -105.5q0 -86 -20 -170h-723q1 -71 13 -129.5t40 -110.5t71.5 -87t110.5 -55.5t154 -20.5q163 0 291 45l16 -102q-157 -49 -331 -49q-134 0 -233.5 39.5t-158.5 112 t-87.5 167.5t-28.5 213zM256 590h602q10 62 10 104q0 108 -68.5 182t-205.5 74q-71 0 -128.5 -21t-95 -55.5t-63.5 -82t-37.5 -97t-13.5 -104.5zM319 1126l213 299h138l211 -299h-113l-168 211l-168 -211h-113z" />
<glyph unicode="&#xeb;" horiz-adv-x="1112" d="M113 512q0 117 29 213t87 168t151.5 111.5t215.5 39.5q93 0 165.5 -24t116 -62t72 -90.5t39 -103t10.5 -105.5q0 -86 -20 -170h-723q1 -71 13 -129.5t40 -110.5t71.5 -87t110.5 -55.5t154 -20.5q163 0 291 45l16 -102q-157 -49 -331 -49q-134 0 -233.5 39.5t-158.5 112 t-87.5 167.5t-28.5 213zM256 590h602q10 62 10 104q0 108 -68.5 182t-205.5 74q-71 0 -128.5 -21t-95 -55.5t-63.5 -82t-37.5 -97t-13.5 -104.5zM295 1247q0 38 23.5 57t56.5 19q34 0 57 -18.5t23 -57.5q0 -38 -23.5 -58t-56.5 -20q-32 0 -56 20.5t-24 57.5zM700 1247 q0 39 23 57.5t57 18.5t57 -18.5t23 -57.5q0 -38 -23.5 -58t-56.5 -20t-56.5 20t-23.5 58z" />
<glyph unicode="&#xec;" horiz-adv-x="403" d="M-106 1313l65 96l277 -231l-54 -72zM133 0v1024h137v-1024h-137z" />
<glyph unicode="&#xed;" horiz-adv-x="403" d="M133 0v1024h137v-1024h-137zM139 1178l277 231l65 -96l-286 -207z" />
<glyph unicode="&#xee;" horiz-adv-x="403" d="M-68 1126l211 299h138l213 -299h-113l-168 211l-168 -211h-113zM133 0v1024h137v-1024h-137z" />
<glyph unicode="&#xef;" horiz-adv-x="403" d="M-82 1247q0 39 23 57.5t57 18.5t57 -18.5t23 -57.5q0 -38 -23.5 -58t-56.5 -20t-56.5 20t-23.5 58zM133 0v1024h137v-1024h-137zM324 1247q0 39 22.5 57.5t56.5 18.5q33 0 56.5 -19t23.5 -57q0 -37 -24 -57.5t-56 -20.5q-33 0 -56 20t-23 58z" />
<glyph unicode="&#xf0;" horiz-adv-x="1138" d="M113 457q0 228 110.5 351.5t308.5 123.5q105 0 198.5 -54t160.5 -147q1 0 2 1t2 1q-4 51 -12.5 100t-26 115t-47.5 121t-72 105t-106.5 82t-143.5 38v-225h-75v227q-114 -6 -238 -43l-18 109q51 17 80 25t76 16t100 10v82h75v-82q94 -5 172 -32.5t147.5 -87t117 -148 t75 -222t27.5 -302.5q0 -641 -471 -641q-196 0 -319 128.5t-123 348.5zM244 451q0 -164 90 -258.5t221 -94.5q83 0 144 28.5t97 74.5t57.5 116t28.5 140t7 159q-59 88 -144 143.5t-178 55.5q-77 0 -135.5 -23t-93.5 -59t-57 -86t-29.5 -97t-7.5 -99z" />
<glyph unicode="&#xf1;" horiz-adv-x="1091" d="M133 0v1024h123l14 -141q182 161 383 161q305 0 305 -329v-715h-137v692q0 240 -225 240q-155 0 -326 -144v-788h-137zM215 1243q61 84 116.5 117t114.5 33q34 0 75 -19t72 -42.5t66 -42.5t58 -19q32 0 63 21t70 81l65 -61q-37 -74 -82 -115t-110 -41q-35 0 -86.5 30.5 t-101.5 60.5t-82 30q-29 0 -47.5 -4.5t-53 -28t-80.5 -69.5z" />
<glyph unicode="&#xf2;" horiz-adv-x="1126" d="M113 512q0 110 26.5 204.5t79.5 168.5t141.5 116.5t202.5 42.5t202 -42.5t141.5 -116.5t80.5 -168.5t27 -204.5t-27 -204.5t-80.5 -168.5t-141.5 -116.5t-202 -42.5t-202.5 42.5t-141.5 116.5t-79.5 168.5t-26.5 204.5zM256 512q0 -90 16.5 -165.5t51.5 -136.5t96 -95.5 t143 -34.5t143 34.5t96 95.5t51.5 136.5t16.5 165.5t-16.5 165.5t-51.5 136.5t-96 95.5t-143 34.5t-143 -34.5t-96 -95.5t-51.5 -136.5t-16.5 -165.5zM270 1313l66 96l276 -231l-53 -72z" />
<glyph unicode="&#xf3;" horiz-adv-x="1126" d="M113 512q0 110 26.5 204.5t79.5 168.5t141.5 116.5t202.5 42.5t202 -42.5t141.5 -116.5t80.5 -168.5t27 -204.5t-27 -204.5t-80.5 -168.5t-141.5 -116.5t-202 -42.5t-202.5 42.5t-141.5 116.5t-79.5 168.5t-26.5 204.5zM256 512q0 -90 16.5 -165.5t51.5 -136.5t96 -95.5 t143 -34.5t143 34.5t96 95.5t51.5 136.5t16.5 165.5t-16.5 165.5t-51.5 136.5t-96 95.5t-143 34.5t-143 -34.5t-96 -95.5t-51.5 -136.5t-16.5 -165.5zM508 1178l276 231l66 -96l-289 -207z" />
<glyph unicode="&#xf4;" horiz-adv-x="1126" d="M113 512q0 110 26.5 204.5t79.5 168.5t141.5 116.5t202.5 42.5t202 -42.5t141.5 -116.5t80.5 -168.5t27 -204.5t-27 -204.5t-80.5 -168.5t-141.5 -116.5t-202 -42.5t-202.5 42.5t-141.5 116.5t-79.5 168.5t-26.5 204.5zM256 512q0 -90 16.5 -165.5t51.5 -136.5t96 -95.5 t143 -34.5t143 34.5t96 95.5t51.5 136.5t16.5 165.5t-16.5 165.5t-51.5 136.5t-96 95.5t-143 34.5t-143 -34.5t-96 -95.5t-51.5 -136.5t-16.5 -165.5zM295 1126l211 299h137l213 -299h-113l-168 211l-167 -211h-113z" />
<glyph unicode="&#xf5;" horiz-adv-x="1126" d="M113 512q0 110 26.5 204.5t79.5 168.5t141.5 116.5t202.5 42.5t202 -42.5t141.5 -116.5t80.5 -168.5t27 -204.5t-27 -204.5t-80.5 -168.5t-141.5 -116.5t-202 -42.5t-202.5 42.5t-141.5 116.5t-79.5 168.5t-26.5 204.5zM231 1243q108 150 234 150q33 0 73.5 -19 t71.5 -42.5t65.5 -42.5t57.5 -19q68 0 133 102l66 -61q-37 -73 -82.5 -114.5t-110.5 -41.5q-35 0 -86.5 30.5t-101.5 60.5t-82 30q-42 0 -78 -17.5t-100 -84.5zM256 512q0 -90 16.5 -165.5t51.5 -136.5t96 -95.5t143 -34.5t143 34.5t96 95.5t51.5 136.5t16.5 165.5 t-16.5 165.5t-51.5 136.5t-96 95.5t-143 34.5t-143 -34.5t-96 -95.5t-51.5 -136.5t-16.5 -165.5z" />
<glyph unicode="&#xf6;" horiz-adv-x="1126" d="M113 512q0 110 26.5 204.5t79.5 168.5t141.5 116.5t202.5 42.5t202 -42.5t141.5 -116.5t80.5 -168.5t27 -204.5t-27 -204.5t-80.5 -168.5t-141.5 -116.5t-202 -42.5t-202.5 42.5t-141.5 116.5t-79.5 168.5t-26.5 204.5zM256 512q0 -90 16.5 -165.5t51.5 -136.5t96 -95.5 t143 -34.5t143 34.5t96 95.5t51.5 136.5t16.5 165.5t-16.5 165.5t-51.5 136.5t-96 95.5t-143 34.5t-143 -34.5t-96 -95.5t-51.5 -136.5t-16.5 -165.5zM281 1247q0 39 22.5 57.5t56.5 18.5t57 -18.5t23 -57.5q0 -38 -23.5 -58t-56.5 -20t-56 20t-23 58zM684 1247 q0 38 23.5 57t56.5 19q34 0 57 -18.5t23 -57.5q0 -38 -23.5 -58t-56.5 -20q-32 0 -56 20.5t-24 57.5z" />
<glyph unicode="&#xf7;" horiz-adv-x="1024" d="M133 655v101h758v-101h-758zM420 334q0 37 25 59.5t67 22.5q41 0 66.5 -22.5t25.5 -59.5q0 -38 -25.5 -61t-66.5 -23q-43 0 -67.5 23t-24.5 61zM420 1081q0 37 25 59.5t67 22.5q41 0 66.5 -22.5t25.5 -59.5q0 -38 -25.5 -61t-66.5 -23q-43 0 -67.5 23t-24.5 61z" />
<glyph unicode="&#xf8;" horiz-adv-x="1126" d="M113 512q0 110 26.5 204.5t79.5 168.5t141.5 116.5t202.5 42.5q129 0 225 -55l56 117h53l-68 -143q92 -70 138.5 -188t46.5 -263q0 -110 -27 -204.5t-80.5 -168.5t-141.5 -116.5t-202 -42.5q-100 0 -182 32l-45 -94h-53l55 117q-113 64 -169 190t-56 287zM256 512 q0 -269 131 -375l352 750q-69 57 -176 57q-82 0 -143 -34.5t-96 -95.5t-51.5 -136.5t-16.5 -165.5zM426 111q60 -31 137 -31q82 0 143 34.5t96 95.5t51.5 136.5t16.5 165.5q0 227 -94 338z" />
<glyph unicode="&#xf9;" horiz-adv-x="1091" d="M133 307v717h137v-692q0 -240 226 -240q149 0 325 141v791h137v-1024h-122l-15 150h-4q-180 -170 -379 -170q-305 0 -305 327zM250 1313l67 96l277 -231l-55 -72z" />
<glyph unicode="&#xfa;" horiz-adv-x="1091" d="M133 307v717h137v-692q0 -240 226 -240q149 0 325 141v791h137v-1024h-122l-15 150h-4q-180 -170 -379 -170q-305 0 -305 327zM492 1178l274 231l68 -96l-289 -207z" />
<glyph unicode="&#xfb;" horiz-adv-x="1091" d="M133 307v717h137v-692q0 -240 226 -240q149 0 325 141v791h137v-1024h-122l-15 150h-4q-180 -170 -379 -170q-305 0 -305 327zM276 1126l211 299h138l213 -299h-113l-168 211l-168 -211h-113z" />
<glyph unicode="&#xfc;" horiz-adv-x="1091" d="M133 307v717h137v-692q0 -240 226 -240q149 0 325 141v791h137v-1024h-122l-15 150h-4q-180 -170 -379 -170q-305 0 -305 327zM262 1247q0 39 23 57.5t57 18.5t57 -18.5t23 -57.5q0 -38 -23.5 -58t-56.5 -20t-56.5 20t-23.5 58zM668 1247q0 39 23 57.5t57 18.5 q33 0 56 -19t23 -57q0 -37 -23.5 -57.5t-55.5 -20.5q-33 0 -56.5 20t-23.5 58z" />
<glyph unicode="&#xfd;" horiz-adv-x="1046" d="M49 1024h156q97 -265 119 -317l16 -43q64 -184 184 -533h4l86 272q11 29 34 89t34 90l168 442h147l-526 -1393h-131l147 394h-59zM440 1178l277 231l65 -96l-288 -207z" />
<glyph unicode="&#xfe;" horiz-adv-x="1097" d="M133 -369v1762h137v-471h4q129 122 310 122q103 0 181.5 -40.5t125.5 -113.5t70.5 -168t23.5 -210q0 -91 -15 -170t-47.5 -146t-79.5 -115t-115 -74.5t-150 -26.5q-179 0 -304 118h-4v-467h-137zM270 193q122 -101 267 -101q80 0 140 33t95 91.5t52.5 132.5t17.5 163 q0 70 -10.5 131t-34 114.5t-58.5 92t-86.5 60.5t-115.5 22q-145 0 -267 -101v-638z" />
<glyph unicode="&#xff;" horiz-adv-x="1046" d="M49 1024h156q97 -265 119 -317l16 -43q64 -184 184 -533h4l86 272q11 29 34 89t34 90l168 442h147l-526 -1393h-131l147 394h-59zM242 1247q0 39 23 57.5t57 18.5q33 0 56 -19t23 -57q0 -37 -23.5 -57.5t-55.5 -20.5q-33 0 -56.5 20t-23.5 58zM645 1247q0 39 23 57.5 t57 18.5t57 -18.5t23 -57.5q0 -38 -23.5 -58t-56.5 -20t-56.5 20t-23.5 58z" />
<glyph unicode="&#x152;" horiz-adv-x="2105" d="M133 702q0 120 18.5 223t61.5 194t108 155.5t164 101.5t224 37q324 0 462 -272v252h826v-125h-713v-482h619v-124h-619v-537h723v-125h-836v256q-138 -276 -462 -276q-125 0 -224 37.5t-164 103t-108 158t-61.5 197t-18.5 226.5zM283 702q0 -97 12.5 -181t43 -162.5 t78 -133.5t122 -88t170.5 -33t170.5 33t122 88t78 133.5t43 162.5t12.5 181q0 98 -12.5 181t-43 159.5t-78 129.5t-122 84.5t-170.5 31.5t-170.5 -31.5t-122 -84.5t-78 -129.5t-43 -159.5t-12.5 -181z" />
<glyph unicode="&#x153;" horiz-adv-x="1869" d="M113 512q0 110 26.5 204.5t79.5 168.5t141.5 116.5t202.5 42.5q262 0 379 -215q123 215 412 215q93 0 165.5 -24t116 -62t72 -90.5t39 -103t10.5 -105.5q0 -86 -20 -170h-723q1 -71 13 -129.5t40 -110.5t71.5 -87t110.5 -55.5t154 -20.5q163 0 291 45l16 -102 q-157 -49 -332 -49q-313 0 -436 215q-55 -101 -150.5 -158t-228.5 -57q-114 0 -202.5 42.5t-141.5 116.5t-79.5 168.5t-26.5 204.5zM256 512q0 -90 16.5 -165.5t51.5 -136.5t96 -95.5t143 -34.5t143 34.5t96 95.5t51.5 136.5t16.5 165.5t-16.5 165.5t-51.5 136.5t-96 95.5 t-143 34.5t-143 -34.5t-96 -95.5t-51.5 -136.5t-16.5 -165.5zM1014 590h602q10 62 10 104q0 108 -68.5 182t-205.5 74q-71 0 -128.5 -21t-95 -55.5t-63.5 -82t-37.5 -97t-13.5 -104.5z" />
<glyph unicode="&#x178;" horiz-adv-x="1230" d="M63 1393h158l205 -389l190 -381h7l188 381l205 389h151l-477 -920v-473h-149v473zM350 1616q0 39 23 57.5t57 18.5t57 -18.5t23 -57.5q0 -38 -23.5 -58t-56.5 -20t-56.5 20t-23.5 58zM756 1616q0 39 23 57.5t57 18.5q33 0 56 -19t23 -57q0 -37 -23.5 -57.5t-55.5 -20.5 q-33 0 -56.5 20t-23.5 58z" />
<glyph unicode="&#x2c6;" horiz-adv-x="741" d="M90 1126l211 299h137l213 -299h-112l-168 211l-168 -211h-113z" />
<glyph unicode="&#x2dc;" horiz-adv-x="880" d="M90 1243q62 84 118.5 117t115.5 33q33 0 73.5 -19t71.5 -42.5t65.5 -42.5t57.5 -19q68 0 133 102l66 -61q-37 -73 -82.5 -114.5t-110.5 -41.5q-35 0 -86.5 30.5t-101.5 60.5t-82 30q-42 0 -78 -17.5t-100 -84.5z" />
<glyph unicode="&#x2000;" horiz-adv-x="932" />
<glyph unicode="&#x2001;" horiz-adv-x="1864" />
<glyph unicode="&#x2002;" horiz-adv-x="932" />
<glyph unicode="&#x2003;" horiz-adv-x="1864" />
<glyph unicode="&#x2004;" horiz-adv-x="621" />
<glyph unicode="&#x2005;" horiz-adv-x="466" />
<glyph unicode="&#x2006;" horiz-adv-x="310" />
<glyph unicode="&#x2007;" horiz-adv-x="310" />
<glyph unicode="&#x2008;" horiz-adv-x="233" />
<glyph unicode="&#x2009;" horiz-adv-x="372" />
<glyph unicode="&#x200a;" horiz-adv-x="103" />
<glyph unicode="&#x2010;" horiz-adv-x="921" d="M133 492v100h655v-100h-655z" />
<glyph unicode="&#x2011;" horiz-adv-x="921" d="M133 492v100h655v-100h-655z" />
<glyph unicode="&#x2012;" horiz-adv-x="921" d="M133 492v100h655v-100h-655z" />
<glyph unicode="&#x2013;" horiz-adv-x="1126" d="M133 492v100h860v-100h-860z" />
<glyph unicode="&#x2014;" horiz-adv-x="1740" d="M133 492v100h1475v-100h-1475z" />
<glyph unicode="&#x2018;" horiz-adv-x="385" d="M68 938q8 285 127 455l75 -25q-41 -86 -61.5 -202.5t-22.5 -227.5h-118z" />
<glyph unicode="&#x2019;" horiz-adv-x="385" d="M49 963q42 87 63 204t21 226h119q-4 -279 -127 -455z" />
<glyph unicode="&#x201a;" horiz-adv-x="385" d="M49 -201q42 87 63 204t21 226h119q-4 -278 -127 -454z" />
<glyph unicode="&#x201c;" horiz-adv-x="800" d="M68 938q8 285 127 455l75 -25q-41 -86 -61.5 -202.5t-22.5 -227.5h-118zM483 938q8 285 127 455l76 -25q-41 -86 -61.5 -202.5t-22.5 -227.5h-119z" />
<glyph unicode="&#x201d;" horiz-adv-x="800" d="M49 963q42 87 63 204t21 226h119q-4 -279 -127 -455zM465 963q42 87 63 204t21 226h119q-4 -279 -127 -455z" />
<glyph unicode="&#x201e;" horiz-adv-x="800" d="M49 -201q42 87 63 204t21 226h119q-4 -278 -127 -454zM465 -201q42 87 63 204t21 226h119q-4 -278 -127 -454z" />
<glyph unicode="&#x2022;" horiz-adv-x="593" d="M119 543q0 74 48.5 119t131.5 45q79 0 127.5 -45t48.5 -119t-48.5 -120t-127.5 -46q-82 0 -131 46t-49 120z" />
<glyph unicode="&#x2026;" horiz-adv-x="1204" d="M119 57q0 36 21 53t53 17q31 0 52 -17t21 -53q0 -35 -21.5 -53t-51.5 -18q-32 0 -53 18t-21 53zM528 57q0 36 21 53t53 17q31 0 52.5 -17t21.5 -53q0 -35 -22 -53t-52 -18q-32 0 -53 18t-21 53zM938 57q0 36 21 53t53 17q31 0 52 -17t21 -53q0 -35 -21.5 -53t-51.5 -18 q-32 0 -53 18t-21 53z" />
<glyph unicode="&#x202f;" horiz-adv-x="372" />
<glyph unicode="&#x2039;" horiz-adv-x="759" d="M133 473v76l494 342v-115l-375 -264l375 -264v-115z" />
<glyph unicode="&#x203a;" horiz-adv-x="759" d="M133 133v115l375 264l-375 264v115l494 -342v-76z" />
<glyph unicode="&#x205f;" horiz-adv-x="466" />
<glyph unicode="&#x20ac;" horiz-adv-x="1329" d="M41 526v52h149q-4 78 -4 118q0 41 4 119h-149v51h156q15 122 54.5 219t107.5 172t173 115.5t242 40.5q229 0 457 -94l-27 -117q-227 86 -413 86q-103 0 -182 -31.5t-131.5 -89.5t-84 -132.5t-45.5 -168.5h414v-51h-420q-6 -58 -6 -119q0 -60 6 -118h420v-52h-414 q64 -422 443 -422q184 0 413 84l27 -114q-228 -94 -457 -94q-137 0 -242 40.5t-173 115t-107.5 171.5t-54.5 219h-156z" />
<glyph unicode="&#x2122;" horiz-adv-x="1619" d="M55 1315v78h580v-78h-244v-758h-92v758h-244zM754 557v836h114l168 -328l123 -246h4l121 246l162 328h119v-836h-92v692h-3l-280 -553h-68l-282 553h-2v-692h-84z" />
<glyph unicode="&#x25fc;" horiz-adv-x="1024" d="M0 0v1024h1024v-1024h-1024z" />
</font>
</defs>
</svg>
