<svg width="23" height="22" viewBox="0 0 23 22" xmlns="http://www.w3.org/2000/svg"><title>Path</title><path d="M21.06 21.94c.938-.19 1.706-.94 1.89-1.844.02-.097.033-.197.05-.295V2.2c-.016-.098-.03-.194-.05-.29C22.75.922 21.9.157 20.855.02 20.812.016 20.77.007 20.727 0H2.273c-.11.02-.223.034-.333.057C.92.28.167 1.065.022 2.052c-.006.04-.014.082-.022.123v17.65c.02.113.038.225.064.337.225.953 1.076 1.69 2.088 1.816.05.005.098.014.147.022h18.4c.12-.02.24-.035.36-.06zM2.487 8.98v9.767c0 .468.424.87.914.87h16.192c.494 0 .916-.4.916-.873V8.92h-2.196a6.594 6.594 0 0 1-.708 5.638 6.95 6.95 0 0 1-2.096 2.103c-2.22 1.447-5.142 1.574-7.498.31-1.19-.64-2.126-1.53-2.777-2.677-.973-1.712-1.128-3.51-.558-5.373h-2.19v.06zm4.352 1.952c-.037 2.495 2.05 4.472 4.553 4.524 2.604.053 4.71-1.937 4.765-4.358.057-2.496-2.048-4.558-4.658-4.556-2.55-.002-4.625 1.96-4.66 4.39zm12.786-5.29c.487-.01.884-.41.884-.877V2.68c0-.497-.413-.893-.933-.894h-2.172c-.52 0-.933.398-.933.896 0 .69-.002 1.378.003 2.066 0 .103.02.21.055.307.13.367.48.592.91.594l1.05-.002c.378-.004.757.003 1.136-.006z" fill="#469CB6" fill-rule="evenodd"/></svg>