<?xml version="1.0" encoding="UTF-8" standalone="no"?>
<svg width="23px" height="22px" viewBox="0 0 23 22" version="1.1" xmlns="http://www.w3.org/2000/svg" xmlns:xlink="http://www.w3.org/1999/xlink" xmlns:sketch="http://www.bohemiancoding.com/sketch/ns">
    <!-- Generator: Sketch 3.2.2 (9983) - http://www.bohemiancoding.com/sketch -->
    <title>Path</title>
    <desc>Created with Sketch.</desc>
    <defs></defs>
    <g id="HOME" stroke="none" stroke-width="1" fill="none" fill-rule="evenodd" sketch:type="MSPage">
        <g id="Desktop-HD" sketch:type="MSArtboardGroup" transform="translate(-1241.000000, -3714.000000)" fill="#469CB6">
            <g id="FOOTER" sketch:type="MSLayerGroup" transform="translate(176.000000, 3679.000000)">
                <g id="ICONS-+-Follow-us:--+-2015-Disruptive-Ange" transform="translate(0.000000, 32.000000)" sketch:type="MSShapeGroup">
                    <g id="ICONS" transform="translate(889.000000, 0.000000)">
                        <path d="M197.058896,24.9400057 C197.998087,24.7493432 198.765531,23.9998858 198.9491,23.0962022 C198.968803,22.9985151 198.983252,22.8992576 199,22.8012564 L199,5.19874358 C198.983909,5.10231296 198.970117,5.00556825 198.950413,4.90945174 C198.749111,3.9234723 197.898913,3.15830954 196.854967,3.02167333 C196.811619,3.01633352 196.769257,3.00722444 196.726567,3 L178.273433,3 C178.16211,3.01916048 178.050129,3.03360937 177.940447,3.05748144 C176.921458,3.27955454 176.167478,4.064506 176.02233,5.05205597 C176.016419,5.09320388 176.007553,5.13403769 176,5.17518561 L176,22.8257567 C176.021017,22.9375785 176.037765,23.0503427 176.064036,23.1615363 C176.28931,24.1145346 177.139836,24.8533124 178.151601,24.9776985 C178.200531,24.9833524 178.249789,24.9924615 178.298719,25 L196.701281,25 C196.820814,24.9805254 196.940676,24.964506 197.058896,24.9400057 Z M178.488199,11.9796688 C178.488199,15.2353798 178.487871,18.4910908 178.488528,21.7468018 C178.488528,22.2151342 178.912477,22.6178184 179.402105,22.6178184 C184.799497,22.6181325 190.196562,22.6181325 195.593955,22.6178184 C196.088179,22.6178184 196.50983,22.2157624 196.50983,21.7439749 C196.510159,18.4920331 196.50983,15.2404055 196.50983,11.9887778 L196.50983,11.921245 L194.314225,11.921245 C194.624224,12.8689035 194.719456,13.8328955 194.597953,14.8154198 C194.475792,15.7982581 194.144776,16.7129355 193.605563,17.5575671 C193.06602,18.4031411 192.366553,19.1035979 191.510116,19.6611365 C189.29021,21.1072816 186.367552,21.2344946 184.012022,19.9699029 C182.821285,19.331325 181.886363,18.4408338 181.234512,17.2934038 C180.262154,15.5812107 180.106826,13.784209 180.677237,11.9196745 C179.948871,11.9203027 179.223461,11.9203027 178.488199,11.9203027 L178.488199,11.9796688 Z M182.839675,13.9324672 C182.802896,16.4267847 184.890461,18.4040834 187.39311,18.4555968 C189.99723,18.5089949 192.103514,16.5188178 192.158355,14.0983152 C192.214509,11.6021131 190.109539,9.54031982 187.500164,9.54189035 C184.949243,9.54031982 182.875469,11.5034837 182.839675,13.9324672 Z M195.625808,8.64229012 C196.112809,8.63066819 196.509502,8.23143918 196.509502,7.76499143 C196.50983,7.07050257 196.50983,6.3756996 196.509502,5.68121074 C196.509502,5.18303826 196.097374,4.78663621 195.577207,4.7863221 C194.85311,4.786008 194.129014,4.78569389 193.404589,4.7863221 C192.885735,4.78695031 192.472294,5.18429469 192.471966,5.68246716 C192.471637,6.37098801 192.469667,7.05950885 192.474593,7.7483438 C192.47525,7.85105654 192.49561,7.95785266 192.529762,8.05522559 C192.659804,8.42178755 193.010851,8.64668761 193.440712,8.64857224 C193.790117,8.64920046 194.139522,8.64825814 194.489256,8.64825814 C194.86756,8.64417476 195.247177,8.65108509 195.625808,8.64229012 Z" id="Path"></path>
                    </g>
                </g>
            </g>
        </g>
    </g>
</svg>