<?xml version="1.0" encoding="UTF-8" standalone="no"?>
<svg width="26px" height="22px" viewBox="0 0 26 22" version="1.1" xmlns="http://www.w3.org/2000/svg" xmlns:xlink="http://www.w3.org/1999/xlink" xmlns:sketch="http://www.bohemiancoding.com/sketch/ns">
    <!-- Generator: Sketch 3.2.2 (9983) - http://www.bohemiancoding.com/sketch -->
    <title>Path</title>
    <desc>Created with Sketch.</desc>
    <defs></defs>
    <g id="HOME" stroke="none" stroke-width="1" fill="none" fill-rule="evenodd" sketch:type="MSPage">
        <g id="Desktop-HD" sketch:type="MSArtboardGroup" transform="translate(-1115.000000, -3714.000000)" fill="#469CB6">
            <g id="FOOTER" sketch:type="MSLayerGroup" transform="translate(176.000000, 3679.000000)">
                <g id="ICONS-+-Follow-us:--+-2015-Disruptive-Ange" transform="translate(0.000000, 32.000000)" sketch:type="MSShapeGroup">
                    <g id="ICONS" transform="translate(889.000000, 0.000000)">
                        <path d="M62.6244836,8.85234447 L62.6808429,9.80390651 L61.7415212,9.68738871 C58.3223902,9.24073714 55.3353472,7.72600573 52.7991787,5.18203374 L51.559274,3.91975756 L51.2399046,4.85189997 C50.563593,6.92980075 50.995681,9.12421934 52.4046635,10.6001115 C53.1561209,11.4157361 52.987043,11.5322539 51.6907791,11.0467631 C51.2399046,10.891406 50.8453895,10.7748882 50.8078167,10.8331471 C50.6763116,10.9690845 51.127186,12.7362712 51.4841283,13.435378 C51.9725756,14.4063596 52.9682566,15.3579217 54.0578697,15.9210911 L54.978405,16.3677426 L53.8887918,16.3871623 C52.8367515,16.3871623 52.7991787,16.4065819 52.9118973,16.8143942 C53.2876259,18.0766704 54.7717542,19.4166251 56.4249604,19.9992141 L57.5897193,20.4070264 L56.5752519,21.0284547 C55.0723372,21.9217578 53.3064124,22.4266683 51.5404876,22.4655075 C50.6950981,22.4849272 50,22.5626057 50,22.6208646 C50,22.8150609 52.2919449,23.9025604 53.6257817,24.3297924 C57.6272922,25.5920685 62.38026,25.0483188 65.9496824,22.8927395 C68.485851,21.3585884 71.0220196,18.309706 72.2055649,15.3579217 C72.8443037,13.7849314 73.4830424,10.9108256 73.4830424,9.53203164 C73.4830424,8.6387285 73.5394017,8.5222107 74.591442,7.45413086 C75.2113943,6.83270258 75.7937738,6.15301541 75.9064924,5.95881908 C76.0943567,5.58984604 76.0755703,5.58984604 75.1174622,5.91997981 C73.5206153,6.50256881 73.2951781,6.42489028 74.0842083,5.55100677 C74.6665878,4.9295785 75.3616858,3.80323976 75.3616858,3.47310599 C75.3616858,3.41484709 75.0798893,3.51194526 74.7605199,3.68672196 C74.4223641,3.88091829 73.6709068,4.1722128 73.1073137,4.3469895 L72.0928463,4.67712327 L71.172311,4.03627536 C70.6650773,3.68672196 69.9511928,3.29832929 69.5754642,3.18181149 C68.617356,2.90993662 67.1520142,2.94877589 66.2878382,3.25949002 C63.939534,4.13337353 62.4554057,6.38605101 62.6244836,8.85234447 Z" id="Path"></path>
                    </g>
                </g>
            </g>
        </g>
    </g>
</svg>