<svg width="48" height="48" viewBox="0 0 48 48" xmlns="http://www.w3.org/2000/svg"><title>icon-medium</title><g fill="none" fill-rule="evenodd"><path d="M33.186 4.487c-.722-.363-1.312.005-1.312.816v32.294l13.172 6.626c1.45.73 2.625.219 2.625-1.14V11.985a.345.345 0 0 0-.189-.307l-14.296-7.19" fill="#00FC87"/><path d="M16.077 29.651L31.105 5.084c.423-.691 1.36-.96 2.081-.597l14.312 7.2a.179.179 0 0 1 .072.252L31.874 37.597l-15.797-7.946" fill="#00E468"/><path d="M2.467 4.928c-1.203-.606-1.61-.158-.905.994l14.515 23.73 15.797 7.945L16.11 11.83a.228.228 0 0 0-.092-.085L2.467 4.928" fill="#00C860"/><path d="M16.077 43.083c0 1.353-.984 1.965-2.187 1.36L1.593 38.257C.87 37.894.28 36.933.28 36.121V5.795c0-1.082.788-1.572 1.75-1.088l13.962 7.023c.052.027.085.08.085.138v31.215" fill="#00AC68"/></g></svg>