<svg width="26" height="22" viewBox="0 0 26 22" xmlns="http://www.w3.org/2000/svg"><title>Path</title><path d="M12.624 5.852l.057.952-.938-.117C8.322 6.24 5.335 4.727 2.8 2.182L1.56.92l-.32.932C.564 3.93.996 6.124 2.405 7.6c.75.816.582.932-.714.447-.45-.156-.845-.272-.882-.214-.132.136.32 1.903.676 2.602.49.97 1.484 1.923 2.574 2.486l.92.448-1.09.02c-1.05 0-1.09.02-.976.426.376 1.263 1.86 2.603 3.513 3.185l1.165.407-1.015.62a10.39 10.39 0 0 1-5.035 1.44c-.845.018-1.54.096-1.54.154 0 .195 2.292 1.283 3.626 1.71 4 1.262 8.754.718 12.324-1.437 2.536-1.534 5.072-4.583 6.256-7.535.638-1.573 1.277-4.447 1.277-5.826 0-.893.056-1.01 1.108-2.078.62-.62 1.204-1.3 1.316-1.495.188-.37.17-.37-.79-.04-1.595.583-1.82.505-1.032-.37.583-.62 1.278-1.747 1.278-2.077 0-.058-.282.04-.6.214-.34.194-1.09.485-1.655.66l-1.014.33-.92-.64c-.508-.35-1.222-.74-1.598-.855-.958-.272-2.423-.233-3.287.077-2.348.873-3.833 3.126-3.664 5.592z" fill="#469CB6" fill-rule="evenodd"/></svg>