<?xml version="1.0" encoding="UTF-8" standalone="no"?>
<svg width="23px" height="27px" viewBox="0 0 23 27" version="1.1" xmlns="http://www.w3.org/2000/svg" xmlns:xlink="http://www.w3.org/1999/xlink" xmlns:sketch="http://www.bohemiancoding.com/sketch/ns">
    <!-- Generator: Sketch 3.2.2 (9983) - http://www.bohemiancoding.com/sketch -->
    <title>Path</title>
    <desc>Created with Sketch.</desc>
    <defs></defs>
    <g id="HOME" stroke="none" stroke-width="1" fill="none" fill-rule="evenodd" sketch:type="MSPage">
        <g id="Desktop-HD" sketch:type="MSArtboardGroup" transform="translate(-1179.000000, -3711.000000)" fill="#469CB6">
            <g id="FOOTER" sketch:type="MSLayerGroup" transform="translate(176.000000, 3679.000000)">
                <g id="ICONS-+-Follow-us:--+-2015-Disruptive-Ange" transform="translate(0.000000, 32.000000)" sketch:type="MSShapeGroup">
                    <g id="ICONS" transform="translate(889.000000, 0.000000)">
                        <path d="M115.816023,13.4488243 C116.987902,15.4462157 119.247956,16.6889195 123.059784,17.0326461 C122.515697,17.4201884 121.862149,18.1559899 121.772004,19.0066188 C121.087871,19.4221125 119.712361,19.5588476 118.642699,19.242317 C117.144046,18.7981165 116.570179,16.012798 114.326223,16.4094056 C113.840086,16.4955261 113.936669,16.7961924 114.356807,17.0515322 C115.04094,17.4670259 115.68483,17.9867707 116.18143,19.0934947 C116.562935,19.9433682 117.364578,21.4618087 119.899894,21.4618087 C120.905972,21.4618087 121.611032,21.3484922 121.611032,21.3484922 C121.611032,21.3484922 121.630348,23.5173692 121.630348,24.3604436 C121.630348,25.3326988 120.232303,25.6069246 120.232303,26.0745439 C120.232303,26.2596274 120.695098,26.2770026 121.066945,26.2770026 C121.801784,26.2770026 123.331023,25.701355 123.331023,24.6905722 C123.331023,23.8875363 123.344705,21.1875828 123.344705,20.7154309 C123.344705,19.6827403 123.934669,19.3556335 123.934669,19.3556335 C123.934669,19.3556335 124.007912,24.8681013 123.793818,25.6069246 C123.542701,26.4756841 123.089564,26.3525469 123.089564,26.7400892 C123.089564,27.3164922 124.930284,26.881357 125.54037,25.6159899 C126.012019,24.6308922 125.805974,19.2234309 125.805974,19.2234309 L126.309013,19.2136102 C126.309013,19.2136102 126.337184,21.689197 126.320281,22.8208507 C126.302574,23.9925429 126.218064,25.4747221 126.959342,26.1735069 C127.446284,26.6328163 129.025424,27.438874 129.025424,26.702317 C129.025424,26.2739808 128.160197,25.9219444 128.160197,24.7630948 L128.160197,19.4311778 C128.850769,19.4311778 128.746941,21.1845611 128.746941,21.1845611 L128.797648,24.4420315 C128.797648,24.4420315 128.645529,25.6288325 130.165109,26.125914 C130.701147,26.3019322 131.848881,26.3495251 131.902807,26.0541469 C131.956732,25.7580132 130.520858,25.3175899 130.50798,24.3982158 C130.499932,23.837677 130.534541,23.5105702 130.534541,21.0742664 C130.534541,18.6379626 130.186035,17.7374745 128.971498,17.0198036 C132.719742,16.6579464 135.039355,15.7876004 136.170187,13.4563788 C136.258487,13.4591003 136.630526,12.3674089 136.582276,12.3677853 C136.835808,11.4876942 136.972635,10.4466937 137,9.21381064 C136.993561,5.87097518 135.288863,4.68870682 134.961284,4.13345619 C135.444201,1.602722 134.880797,0.450671363 134.619217,0.0555746523 C133.653382,-0.266999526 131.258917,0.885051111 129.951016,1.69715238 C127.81813,1.11168402 123.310901,1.16834225 121.62069,1.84824099 C118.501849,-0.24811345 116.851881,0.0729498422 116.851881,0.0729498422 C116.851881,0.0729498422 115.785438,1.86712706 116.570179,4.49229163 C115.543979,5.71988657 114.77936,6.58864607 114.77936,8.89123646 C114.77936,10.1883322 114.941942,11.3494481 115.30896,12.3632527 C115.263968,12.3631486 115.801189,13.4491588 115.816023,13.4488243 Z" id="Path"></path>
                    </g>
                </g>
            </g>
        </g>
    </g>
</svg>