<svg width="48" height="48" viewBox="0 0 48 48" xmlns="http://www.w3.org/2000/svg" xmlns:xlink="http://www.w3.org/1999/xlink"><title>Artboard</title><defs><path id="a" d="M17.606.024v16.843H.011V.024z"/><path id="c" d="M15.616 15.755H.027V0h15.59v15.754z"/></defs><g fill="none" fill-rule="evenodd"><path d="M22.864 33.345l.035.017c.023-.038.053-.072.067-.112.086-.243.163-.49.254-.73.123-.324.257-.645.387-.967.04-.1.102-.086.163-.02.088.095.178.187.258.287.336.424.668.851 1.004 1.276.013.018.041.024.067.038.12-1.468-.494-3.473-1.21-3.924-.823 1.262-1.127 2.648-1.025 4.135M28.88 22.25c-.217.026-.437.038-.652.078-.706.132-1.348.395-1.851.936a1.906 1.906 0 0 0-.516 1.131c-.061.616.207 1.081.7 1.436.425.306.908.46 1.409.582.662.163 1.276.426 1.753.937.231.247.38.537.414.883.027.275.328.593.652.395a3.253 3.253 0 0 0 1.178-1.27c.243-.45.276-.947.302-1.44a4.433 4.433 0 0 0-.158-1.424 2.806 2.806 0 0 0-1.456-1.805 3.922 3.922 0 0 0-1.775-.439m-13.22 3.438c.01.185.016.382.033.579.015.168.022.34.068.5.219.766.658 1.371 1.34 1.794.302.187.675.005.699-.35.016-.24.1-.453.228-.647.386-.589.985-.874 1.62-1.094.396-.136.81-.224 1.202-.371a2.05 2.05 0 0 0 .97-.729c.233-.329.305-.698.238-1.103a1.934 1.934 0 0 0-.448-.975 2.771 2.771 0 0 0-1.065-.747 3.824 3.824 0 0 0-1.952-.277c-.528.066-1.028.211-1.484.49-.438.266-.784.62-1.031 1.073-.314.577-.397 1.202-.419 1.857m10.736 10.481h-.553c.017.214.054.425.045.633-.015.303-.028.613-.104.903-.16.615-.57 1.003-1.195 1.14-.457.102-.917.101-1.374-.007-.682-.16-1.064-.613-1.216-1.276-.104-.457-.08-.918-.003-1.388h-.58c0 .219.012.44-.003.66-.071 1.087-.696 1.885-1.947 1.976-.422.03-.832.01-1.221-.162-.61-.27-.93-.781-1.107-1.395a4.425 4.425 0 0 1-.145-1.702c.013-.122-.02-.186-.129-.252-.709-.428-1.3-.996-1.831-1.623-1.2-1.415-2.07-3.02-2.654-4.778-.252-.756-.361-1.542-.414-2.338a12.022 12.022 0 0 1 .092-2.52c.4-2.77 1.461-5.235 3.433-7.26.884-.907 1.946-1.554 3.112-2.035a12.075 12.075 0 0 1 3.131-.828c.695-.086 1.4-.13 2.1-.135.7-.005 1.406.022 2.101.106 2.006.243 3.874.87 5.505 2.104.998.756 1.787 1.7 2.448 2.755.914 1.462 1.496 3.051 1.8 4.744.168.936.231 1.882.194 2.832a10.405 10.405 0 0 1-1.074 4.191c-.647 1.326-1.409 2.569-2.442 3.632-.44.453-.909.87-1.459 1.188-.094.054-.078.124-.07.2.056.548.014 1.09-.119 1.623-.098.395-.264.76-.54 1.064-.428.47-.982.628-1.591.6a3.315 3.315 0 0 1-.87-.143c-.765-.248-1.158-.823-1.271-1.595-.043-.296-.034-.599-.05-.914M.086 7.045l3.857 3.477 4.005-4.924-3.922-3.285c.284-.065.534-.145.79-.178.471-.061.945-.128 1.418-.134 1.074-.015 2.105.196 3.04.748 1.35.797 2.182 1.992 2.61 3.482.203.702.285 1.42.28 2.15 0 .027.005.057-.003.083-.095.302.063.484.273.682 1.685 1.586 3.36 3.183 5.038 4.777.037.035.076.068.126.113-1.963 1.177-3.64 2.607-4.527 4.801-.087-.07-.17-.132-.248-.2-1.755-1.515-3.51-3.03-5.262-4.548-.067-.058-.122-.069-.21-.05a8.48 8.48 0 0 1-2.382.17c-.843-.064-1.656-.25-2.358-.749-.557-.396-1.028-.888-1.477-1.402a4.33 4.33 0 0 1-.928-1.7A5.4 5.4 0 0 1 0 8.937c-.003-.627.017-1.254.027-1.881l.059-.01" fill="#000"/><g transform="translate(30.331 2.171)"><mask id="b" fill="#fff"><use xlink:href="#a"/></mask><path d="M.011 12.063l1.514-1.437c1.292-1.227 2.584-2.455 3.88-3.68.08-.075.064-.155.058-.24a6.93 6.93 0 0 1 .452-3.03c.583-1.499 1.584-2.61 3.09-3.23.656-.268 1.342-.39 2.05-.417.818-.03 1.62.066 2.408.285.026.007.051.018.1.037L9.658 3.62l4.004 4.925 3.884-3.5c.022.287.057.546.058.805.002.518.01 1.038-.03 1.554-.073.983-.41 1.87-1.058 2.626-.447.521-.927 1.01-1.478 1.421-.524.391-1.132.591-1.772.702a6.883 6.883 0 0 1-1.767.077c-.427-.037-.85-.117-1.274-.172a.223.223 0 0 0-.157.04c-1.518 1.31-3.032 2.622-4.547 3.933-.322.278-.648.55-.983.835-.886-2.194-2.56-3.627-4.527-4.804" fill="#000" mask="url(#b)"/></g><path d="M43.717 45.423c-.289.066-.545.134-.805.183a7.31 7.31 0 0 1-2.015.11c-2.128-.19-3.684-1.239-4.64-3.154a6.071 6.071 0 0 1-.622-2.254c-.033-.427-.027-.858-.029-1.288 0-.1-.023-.17-.095-.242-1.072-1.076-2.14-2.155-3.21-3.232-.05-.05-.105-.09-.164-.142 1.85-1.424 3.163-3.2 3.876-5.425.294.254.582.5.866.75 1.108.976 2.214 1.954 3.324 2.929a.208.208 0 0 0 .156.043 8.498 8.498 0 0 1 2.714-.147c1.03.117 1.951.481 2.682 1.245.36.378.735.745 1.063 1.15.522.645.777 1.406.874 2.226.1.835.063 1.669-.008 2.537L43.8 37.214l-4.005 4.923 3.923 3.286" fill="#000"/><g transform="translate(.028 30.207)"><mask id="d" fill="#fff"><use xlink:href="#c"/></mask><path d="M15.616 5.406l-.105.112c-1.076 1.085-2.15 2.171-3.23 3.252-.098.097-.12.19-.112.317.083 1.345-.16 2.627-.822 3.805-.865 1.538-2.17 2.476-3.921 2.767-1.093.182-2.17.098-3.236-.194a.95.95 0 0 1-.078-.025c-.009-.003-.015-.011-.032-.025l3.896-3.262-4.004-4.924-3.865 3.478-.052-.012C.045 10.064.02 9.432.03 8.8a5.13 5.13 0 0 1 .382-1.916c.197-.47.473-.89.813-1.266.458-.504.925-1.001 1.494-1.383.547-.366 1.164-.549 1.81-.642.798-.116 1.595-.083 2.39.03.155.021.31.047.46.088.09.025.144.007.21-.052C8.904 2.5 10.22 1.34 11.538.181c.069-.06.142-.116.221-.18.71 2.214 2.02 3.986 3.857 5.405" fill="#000" mask="url(#d)"/></g><path d="M15.66 25.687c.02-.655.104-1.28.418-1.857a2.818 2.818 0 0 1 1.03-1.073c.457-.279.957-.424 1.485-.49a3.825 3.825 0 0 1 1.952.277c.415.17.774.411 1.065.747.243.279.386.605.448.975.067.405-.005.774-.238 1.103a2.05 2.05 0 0 1-.97.729c-.392.147-.806.235-1.202.371-.635.22-1.234.505-1.62 1.094a1.326 1.326 0 0 0-.228.647c-.024.355-.397.537-.7.35-.68-.423-1.12-1.028-1.34-1.794-.045-.16-.052-.332-.067-.5-.017-.197-.023-.394-.034-.58M28.88 22.25a3.922 3.922 0 0 1 1.775.438c.743.39 1.23.99 1.456 1.805.13.468.182.943.158 1.423-.026.494-.06.991-.302 1.442a3.253 3.253 0 0 1-1.178 1.269c-.324.198-.625-.12-.652-.395a1.482 1.482 0 0 0-.414-.883c-.477-.511-1.09-.774-1.753-.937-.5-.123-.984-.276-1.409-.582-.493-.355-.761-.82-.7-1.435.043-.43.217-.81.516-1.132.503-.54 1.145-.804 1.851-.936.215-.04.435-.052.652-.078M22.864 33.345c-.102-1.487.202-2.873 1.024-4.135.717.45 1.332 2.456 1.21 3.924-.025-.014-.053-.02-.066-.038-.336-.425-.668-.852-1.004-1.276-.08-.1-.17-.192-.258-.286-.061-.067-.122-.08-.163.02-.13.32-.264.642-.387.966-.091.24-.168.487-.254.73-.014.04-.044.074-.067.112l-.035-.017" fill="#FFF"/></g></svg>