<svg width="26" height="22" viewBox="0 0 26 22" xmlns="http://www.w3.org/2000/svg"><title>Path</title><path d="M12.624 5.852l.057.952-.937-.117C8.323 6.24 5.335 4.727 2.8 2.182L1.56.92l-.32.932C.564 3.93.996 6.124 2.405 7.6c.75.816.582.932-.714.447-.45-.156-.844-.272-.88-.214-.133.136.32 1.903.675 2.602.49.97 1.484 1.923 2.574 2.486l.92.45-1.09.02c-1.05 0-1.09.02-.977.425.376 1.263 1.86 2.603 3.513 3.185l1.165.407-1.014.62a10.39 10.39 0 0 1-5.035 1.44c-.844.018-1.54.096-1.54.154 0 .196 2.293 1.284 3.627 1.71 4 1.263 8.754.72 12.324-1.436 2.537-1.534 5.073-4.583 6.257-7.535.638-1.574 1.277-4.448 1.277-5.827 0-.893.056-1.01 1.108-2.078.62-.62 1.204-1.3 1.316-1.495.188-.37.17-.37-.79-.04-1.595.583-1.82.505-1.032-.37.583-.62 1.278-1.747 1.278-2.077 0-.058-.282.04-.6.214-.34.194-1.09.485-1.655.66l-1.015.33-.92-.64c-.508-.35-1.222-.74-1.598-.855C18.62-.09 17.154-.05 16.29.26c-2.348.872-3.833 3.125-3.664 5.59z" fill="#469CB6" fill-rule="evenodd"/></svg>