<svg width="48" height="48" viewBox="0 0 48 48" xmlns="http://www.w3.org/2000/svg"><title>icon-linkedin</title><path d="M46 44h-9.725V29.938c0-3.68-1.52-6.193-4.866-6.193-2.558 0-3.981 1.696-4.643 3.33-.249.586-.21 1.403-.21 2.22V44h-9.634s.124-24.909 0-27.173h9.634v4.265c.57-1.865 3.648-4.526 8.56-4.526C41.211 16.566 46 20.474 46 28.89V44zM7.18 13.428h-.063C4.013 13.428 2 11.351 2 8.718 2 6.034 4.072 4 7.239 4c3.164 0 5.11 2.029 5.171 4.71 0 2.633-2.007 4.718-5.23 4.718zm-4.07 3.399h8.576V44H3.11V16.827z" fill="#007EBB" fill-rule="evenodd"/></svg>