<svg width="23" height="27" viewBox="0 0 23 27" xmlns="http://www.w3.org/2000/svg"><title>Path</title><path d="M1.816 13.45c1.172 1.996 3.432 3.24 7.244 3.583-.544.387-1.198 1.123-1.288 1.974-.684.415-2.06.552-3.13.235-1.498-.444-2.072-3.23-4.316-2.833-.486.085-.39.385.03.64.685.416 1.33.936 1.825 2.04.384.85 1.186 2.37 3.72 2.37 1.007 0 1.71-.113 1.71-.113s.02 2.17.02 3.012c0 .972-1.397 1.246-1.397 1.714 0 .185.463.202.835.202.735 0 2.264-.576 2.264-1.586 0-.802.015-3.502.015-3.975 0-1.032.59-1.36.59-1.36s.073 5.513-.14 6.252c-.252.87-.705.746-.705 1.133 0 .576 1.84.14 2.45-1.124.472-.985.266-6.393.266-6.393l.503-.01s.028 2.476.01 3.608c-.016 1.174-.1 2.656.64 3.355.487.46 2.066 1.265 2.066.528 0-.428-.865-.78-.865-1.94v-5.33c.69 0 .588 1.753.588 1.753l.05 3.257s-.15 1.187 1.368 1.684c.536.176 1.684.224 1.738-.072.054-.296-1.382-.736-1.395-1.656-.01-.56.026-.888.026-3.325 0-2.436-.35-3.337-1.564-4.054 3.75-.36 6.07-1.23 7.2-3.563.088.003.46-1.09.412-1.088.254-.88.39-1.92.418-3.155-.006-3.343-1.71-4.525-2.04-5.08.484-2.53-.08-3.683-.34-4.078-.967-.323-3.36.83-4.67 1.64-2.132-.584-6.64-.528-8.33.152C4.502-.25 2.852.072 2.852.072s-1.066 1.794-.28 4.42C1.543 5.72.78 6.588.78 8.89c0 1.298.162 2.46.53 3.473-.046 0 .49 1.086.506 1.086z" fill="#469CB6" fill-rule="evenodd"/></svg>