<svg width="165" height="60" fill="#469CB6" viewBox="0 0 165 60" xmlns="http://www.w3.org/2000/svg"><path d="M24.033 11.94C10.88 11.94.18 22.61.18 35.724c0 13.118 10.7 23.79 23.853 23.79 13.154 0 23.854-10.672 23.854-23.79 0-13.115-10.7-23.786-23.854-23.786zm0 43.03c-10.64 0-19.295-8.634-19.295-19.245 0-10.61 8.656-19.24 19.295-19.24 10.64 0 19.296 8.63 19.296 19.24 0 10.61-8.657 19.244-19.298 19.244zM9.44 7.114c2.497.525 7.728.834 13.284.834 8.44 0 17.627-.714 19.115-2.46.42-.495.536-1.14.31-1.726-.297-.757-.99-2.53-15.585-2.847-6.412-.14-15.132.12-18.613 1.308-2.368.808-2.238 2.19-2.072 2.746.39 1.312 2.02 1.82 3.56 2.144zm27.997-2.742c-6.355 1.144-22.257 1.232-27.54.097 5.334-1.16 21.22-1.184 27.54-.098zm28.516 21.695c0-3.413-2.008-6.163-5.988-6.163H55.67v12.36h4.295c3.648 0 5.988-2.454 5.988-6.197zm-8.71-4.77h2.722c2.81 0 4.4 1.985 4.4 4.77 0 2.733-1.537 4.805-4.4 4.805h-2.723v-9.575zm12.012-1.375h1.57v12.342h-1.57v-12.34zm10.003 5.483c-2.234-.504-3.264-.852-3.264-2.176 0-1.254.872-2.02 2.793-2.02 1.484 0 2.793.644 3.37 1.29l.732-1.273c-1.05-.853-2.41-1.41-4.07-1.41-2.565 0-4.45 1.288-4.45 3.657 0 1.966 1.31 2.645 3.823 3.254 2.303.556 3.578.975 3.578 2.367 0 1.236-1.03 1.88-2.793 1.88-1.885 0-3.578-.87-4.33-1.653l-.75 1.322c1.398 1.132 3.143 1.74 5.046 1.74 2.55 0 4.503-1.06 4.503-3.446 0-2.228-1.605-2.96-4.19-3.534zm16.83-1.55c0-1.95-1.57-3.95-3.753-3.95H87.03v12.36h1.57v-4.44h3.28l2.83 4.44h1.78l-3.002-4.736c1.57-.4 2.6-1.95 2.6-3.674zm-7.488 2.58V21.3h3.648c1.205 0 2.252 1.166 2.252 2.56 0 1.356-.855 2.575-2.146 2.575H88.6zm19.624-.28c0 2.37-.838 4.79-3.72 4.79-2.828 0-3.7-2.35-3.7-4.79v-6.25h-1.572v6.25c0 3.17 1.345 6.2 5.29 6.2 3.806 0 5.272-2.857 5.272-6.2v-6.25h-1.57v6.25zm10.563-6.25h-5.167v12.36h1.57v-4.438h3.702c2.182 0 3.648-1.932 3.648-3.97 0-1.95-1.57-3.95-3.753-3.95zm.018 6.53h-3.614V21.3h3.51c1.205 0 2.253 1.096 2.253 2.56 0 1.41-.856 2.575-2.147 2.575zm5.483-5.136h4.276v10.966h1.572V21.298h4.276v-1.393h-10.124v1.393zm12.972-1.376h1.572v12.342h-1.572V19.923zM147.7 30.3l-4.1-10.395h-1.66l5.08 12.36h1.363l5.063-12.36h-1.658L147.7 30.298zm9.917.574V26.61h5.813v-1.307h-5.813V21.3h6.686v-1.394h-8.257v12.36h8.414v-1.392h-6.843zm-78.633 16.12l-6.686-8.397h-1.933V51.39h2.493v-8.198l6.595 8.198h2.023V38.615h-2.492v8.38zm12.45-.36h2.585v.9c-.96 1.172-2.026 1.75-3.2 1.75-2.097 0-3.633-1.876-3.633-4.29 0-2.306 1.392-4.288 3.488-4.288 1.32 0 2.493.703 3.108 1.964l1.86-1.37c-.83-1.695-2.547-2.794-4.878-2.794-3.47 0-6.088 2.92-6.088 6.415 0 3.426 2.636 6.56 5.925 6.56 1.3 0 2.403-.485 3.416-1.53v1.44h2.06v-6.575h-4.645v1.82zm11.098-.757h5.402V43.86h-5.402v-3.083h6.25v-2.18h-8.745V51.39h8.91v-2.18h-6.415v-3.334zm12.722-7.28h-2.494V51.39h9.035v-2.18h-6.54V38.596zm14.293 5.352c-1.934-.505-2.927-.775-2.927-1.82 0-.92.686-1.44 2.042-1.44 1.535 0 3.126.9 3.45 1.26l1.103-2.02c-1.12-.755-2.692-1.423-4.48-1.423-2.603 0-4.68 1.406-4.68 4.02 0 1.962 1.192 2.792 3.63 3.46 2.007.54 3.326.863 3.326 2 0 .846-.704 1.314-2.06 1.314-1.95 0-3.884-1.134-4.317-1.566l-1.102 2.143c1.483 1.046 3.47 1.658 5.385 1.658 2.53 0 4.752-1.045 4.752-3.8 0-2.344-1.59-3.137-4.12-3.786zM60.48 38.595L55.42 51.39h2.638l3.432-10.11 3.415 10.11h2.64L62.5 38.596h-2.02zm-44.45-8.434a4.042 4.042 0 0 0-4.048 4.036 4.04 4.04 0 0 0 4.048 4.037 4.04 4.04 0 0 0 4.046-4.037 4.043 4.043 0 0 0-4.046-4.036zm15.988 0a4.043 4.043 0 0 0-4.046 4.036 4.04 4.04 0 0 0 4.046 4.037 4.043 4.043 0 0 0 4.05-4.037 4.044 4.044 0 0 0-4.05-4.036z" class="logo-svg" fill="#FFF" fill-rule="evenodd"/></svg>