<svg width="165" height="60" viewBox="0 0 165 60" xmlns="http://www.w3.org/2000/svg"><path d="M24.033 11.94C10.88 11.94.18 22.61.18 35.724c0 13.118 10.7 23.79 23.853 23.79 13.154 0 23.854-10.672 23.854-23.79 0-13.115-10.7-23.786-23.854-23.786zm0 43.03c-10.64 0-19.295-8.634-19.295-19.245 0-10.61 8.656-19.24 19.295-19.24 10.64 0 19.296 8.63 19.296 19.24 0 10.61-8.656 19.244-19.297 19.244zM9.44 7.114c2.497.525 7.728.834 13.284.834 8.44 0 17.627-.714 19.115-2.46.42-.495.537-1.14.31-1.726-.296-.757-.988-2.53-15.584-2.847-6.412-.14-15.132.12-18.613 1.308-2.368.808-2.238 2.19-2.072 2.746.39 1.313 2.02 1.82 3.56 2.145zm27.997-2.742c-6.355 1.144-22.257 1.232-27.54.097 5.334-1.158 21.22-1.183 27.54-.097zm28.516 21.695c0-3.413-2.008-6.163-5.988-6.163H55.67v12.36h4.295c3.648 0 5.988-2.454 5.988-6.197zm-8.71-4.77h2.722c2.81 0 4.4 1.985 4.4 4.77 0 2.733-1.537 4.805-4.4 4.805h-2.723v-9.575zm12.012-1.375h1.57v12.342h-1.57V19.923zm10.003 5.483c-2.234-.504-3.264-.852-3.264-2.176 0-1.253.872-2.02 2.793-2.02 1.484 0 2.793.645 3.37 1.29l.732-1.272c-1.048-.853-2.41-1.41-4.068-1.41-2.566 0-4.452 1.288-4.452 3.657 0 1.966 1.31 2.645 3.824 3.254 2.303.556 3.578.975 3.578 2.367 0 1.236-1.03 1.88-2.794 1.88-1.885 0-3.578-.87-4.33-1.653l-.75 1.322c1.398 1.132 3.143 1.74 5.046 1.74 2.55 0 4.503-1.06 4.503-3.446 0-2.228-1.605-2.96-4.19-3.534zm16.83-1.55c0-1.95-1.57-3.95-3.753-3.95H87.03v12.36h1.57v-4.44h3.28l2.83 4.44h1.78l-3.002-4.736c1.57-.4 2.6-1.95 2.6-3.673zM88.6 26.435v-5.136h3.648c1.205 0 2.252 1.167 2.252 2.56 0 1.357-.855 2.576-2.146 2.576H88.6zm19.624-.28c0 2.37-.838 4.79-3.72 4.79-2.828 0-3.7-2.35-3.7-4.79v-6.25h-1.572v6.25c0 3.17 1.345 6.2 5.29 6.2 3.806 0 5.272-2.857 5.272-6.2v-6.25h-1.57v6.25zm10.563-6.25h-5.167v12.36h1.57v-4.438h3.702c2.182 0 3.648-1.932 3.648-3.97 0-1.95-1.57-3.95-3.753-3.95zm.018 6.53h-3.614v-5.136h3.51c1.204 0 2.252 1.097 2.252 2.56 0 1.41-.856 2.576-2.147 2.576zm5.483-5.136h4.276v10.967h1.572V21.298h4.276v-1.393h-10.124v1.393zm12.972-1.375h1.572v12.342h-1.572V19.923zm10.44 10.375L143.6 19.905h-1.66l5.08 12.36h1.363l5.063-12.36h-1.658L147.7 30.298zm9.917.575v-4.265h5.813v-1.306h-5.813v-4.004h6.686v-1.393h-8.257v12.36h8.414v-1.392h-6.843zm-78.633 16.12l-6.686-8.397h-1.933V51.39h2.493v-8.198l6.595 8.198h2.023V38.615h-2.492v8.38zm12.45-.36h2.585v.9c-.96 1.172-2.025 1.75-3.2 1.75-2.096 0-3.632-1.876-3.632-4.29 0-2.306 1.392-4.288 3.488-4.288 1.32 0 2.493.703 3.108 1.964l1.86-1.37c-.83-1.695-2.547-2.794-4.878-2.794-3.47 0-6.088 2.92-6.088 6.415 0 3.425 2.636 6.56 5.925 6.56 1.3 0 2.403-.486 3.416-1.532v1.442h2.06v-6.576h-4.645v1.82zm11.098-.757h5.402v-2.018h-5.402v-3.082h6.25v-2.18h-8.745V51.39h8.91v-2.18h-6.415v-3.334zm12.722-7.28h-2.494V51.39h9.035v-2.18h-6.54V38.596zm14.293 5.352c-1.934-.504-2.927-.774-2.927-1.82 0-.92.686-1.44 2.042-1.44 1.535 0 3.126.9 3.45 1.26l1.103-2.018c-1.12-.756-2.692-1.424-4.48-1.424-2.603 0-4.68 1.406-4.68 4.02 0 1.962 1.192 2.792 3.63 3.46 2.007.54 3.326.863 3.326 2 0 .846-.705 1.314-2.06 1.314-1.95 0-3.885-1.135-4.318-1.567l-1.102 2.143c1.482 1.046 3.47 1.658 5.384 1.658 2.53 0 4.752-1.045 4.752-3.8 0-2.344-1.59-3.137-4.12-3.786zM60.48 38.596L55.42 51.39h2.638l3.432-10.11 3.415 10.11h2.64L62.5 38.596H60.48zm-44.45-8.434a4.042 4.042 0 0 0-4.048 4.036 4.04 4.04 0 0 0 4.048 4.037 4.04 4.04 0 0 0 4.046-4.037 4.043 4.043 0 0 0-4.046-4.036zm15.988 0a4.043 4.043 0 0 0-4.046 4.036 4.04 4.04 0 0 0 4.046 4.037 4.043 4.043 0 0 0 4.05-4.037 4.044 4.044 0 0 0-4.05-4.036z" class="logo-svg" fill="#FFF" fill-rule="evenodd"/></svg>