<?xml version="1.0" encoding="UTF-8"?>
<svg width="497px" height="337px" viewBox="0 0 497 337" version="1.1" xmlns="http://www.w3.org/2000/svg" xmlns:xlink="http://www.w3.org/1999/xlink">
    <!-- Generator: Sketch 45.2 (43514) - http://www.bohemiancoding.com/sketch -->
    <title>Combined Shape</title>
    <desc>Created with Sketch.</desc>
    <defs></defs>
    <g id="Page-1" stroke="none" stroke-width="1" fill="none" fill-rule="evenodd">
        <g id="Map" transform="translate(-473.000000, -255.000000)" fill="#469CB6">
            <g id="Group-3" transform="translate(473.000000, 255.000000)">
                <g id="Page-1">
                    <path d="M324.2256,268.7781 C326.5256,269.7381 326.2656,272.4381 325.8356,274.1481 C325.2756,276.4081 323.5556,277.6481 322.1456,279.3381 C321.4156,280.2181 320.5456,281.3281 320.2956,282.4981 C320.1656,283.1581 321.0156,285.8281 320.0856,284.3581 C320.6156,285.6781 318.4856,286.8381 318.5256,288.1681 C322.5456,287.6681 317.6656,290.1981 318.7756,291.4881 C318.9356,290.8781 319.4056,290.4281 320.0956,290.4281 C319.2056,292.0081 319.1756,293.9581 318.5656,295.6581 C318.0656,297.0481 316.8956,299.7881 317.0656,301.3581 C314.8256,299.2581 316.0456,297.6581 315.2556,295.3681 C314.1156,296.2381 314.1956,296.2671 313.7156,297.4581 C313.3356,298.4181 312.4956,298.3781 311.7156,298.8481 C310.0456,299.8481 309.1756,302.6881 308.5056,304.4281 C307.8456,303.8181 305.8956,302.6681 305.6456,304.1281 C305.4556,305.2581 305.3456,304.9981 303.7356,304.9981 L293.1456,304.9981 C292.3456,304.9981 290.0056,304.4681 290.0256,305.6681 C290.0356,306.6581 290.2256,307.6881 290.2656,308.6781 C290.3756,311.3181 288.3156,310.4981 286.2056,310.4981 C287.8756,311.9881 289.0756,313.8481 291.1556,314.7881 C292.9756,315.6081 292.9456,317.6681 294.6856,318.5281 C295.2756,318.8181 295.0256,321.6281 294.5556,321.9881 C293.8256,322.5581 290.6556,321.9881 289.7556,321.9881 C288.0656,321.9881 285.5856,321.5381 284.0956,322.2671 C282.6456,322.9771 281.3656,324.8581 280.9756,326.3281 C280.6256,327.6281 279.2856,329.4981 280.5156,331.1181 C280.9956,331.7581 279.8556,336.0881 279.3256,336.7981 C278.4356,335.8181 277.4556,334.9281 276.5656,333.9481 C276.0456,333.3781 273.4056,329.3881 275.1456,331.5381 C274.6856,330.3581 273.1656,329.8881 272.2656,329.1081 C270.9356,327.9681 269.9356,326.5581 268.5256,325.4281 C265.7156,323.1781 264.0856,321.0781 260.5356,319.9681 C260.4956,321.2381 263.7756,321.8181 264.5256,322.7181 C262.4056,321.6981 260.2256,320.7081 257.9456,320.7781 C258.5156,320.5481 258.9356,320.0681 259.0756,319.4771 C258.3956,319.3881 257.8756,319.5981 257.5356,320.1281 C257.4156,318.1581 255.6356,318.7781 255.5756,320.2081 C256.1756,320.1481 256.7656,320.2581 257.3456,320.5281 C254.3256,320.7381 253.1056,322.5481 250.4456,323.3681 C248.0556,324.1181 246.1456,325.2381 243.6756,325.7271 C241.8056,326.0981 240.9556,325.8681 238.9256,324.8581 C236.6756,323.7481 235.3356,323.5881 232.9556,323.2271 C231.7156,323.0381 230.8956,322.4181 229.8856,321.6381 C228.6056,320.6481 227.4656,320.4381 226.0156,319.9381 C224.8456,319.5381 224.4656,318.5981 223.5256,317.8981 C222.3856,317.0381 220.5656,316.8681 219.2656,316.5581 C217.9756,316.2381 216.5356,316.1181 215.3056,315.5581 C214.0056,314.9771 212.9556,313.9881 211.6156,313.4381 C208.5056,312.1681 205.4556,311.4481 202.5856,309.4881 C200.2256,307.8681 198.7156,305.6081 196.5256,303.8981 C195.6656,303.2271 194.7556,303.4981 193.9156,303.6681 C192.6456,303.9181 190.2656,302.9981 188.9556,302.5681 C186.7756,301.8481 183.7856,300.8781 182.1356,299.0781 C181.3256,298.1781 180.6956,297.1881 179.9756,296.2381 C178.7456,294.6181 177.3756,294.5581 175.7756,293.5881 C175.2056,292.0881 171.2456,291.3181 169.6956,290.1381 C168.8756,289.5171 168.9156,288.5171 168.1056,287.8481 C167.1956,287.0981 166.1656,285.3481 165.5356,284.3581 C164.8056,283.1981 163.2156,279.9981 164.5356,279.1081 C165.4556,278.4771 166.7156,278.8181 167.4256,277.8581 C168.0856,276.9581 166.0956,276.2081 165.4456,276.3481 C165.6056,275.1381 169.2656,271.0881 167.7656,269.5881 C166.3856,268.1981 165.8156,267.3981 164.9156,265.6981 C163.9456,263.8681 164.4856,262.4581 163.9456,260.6381 C162.8056,256.7181 158.3856,253.4381 155.9056,250.0171 C153.0456,246.0681 150.2256,243.1481 146.0656,240.3381 C147.1256,240.7581 148.1656,241.9381 148.3256,240.4281 C146.7956,240.5981 143.8156,239.1581 144.0956,237.4771 C144.3056,236.2671 143.7256,232.7881 141.6456,233.7081 C141.3556,232.2781 141.3556,233.3581 140.2156,232.8281 C139.4356,232.4581 138.7156,231.8481 137.8956,231.5981 C138.9456,231.7981 139.0256,231.7271 138.1056,231.3981 C137.5556,230.8981 137.5156,230.1681 136.9156,229.6581 C136.4956,230.1081 135.9756,230.4281 135.3656,230.6281 C134.9156,229.6081 136.1656,229.5171 136.1156,228.6081 C135.0856,229.7381 134.2956,229.0481 132.6356,228.6881 C132.9056,228.5081 133.1756,228.3181 133.4356,228.1181 C132.5756,227.5171 132.2456,227.6881 132.4556,228.6081 C132.1756,227.4381 131.9956,226.2781 132.2456,225.2271 C132.3456,224.8381 133.0856,222.1881 133.3256,223.6681 C133.4556,223.0481 133.8556,221.8681 134.6656,222.8581 C134.5756,222.0171 134.2356,221.2981 133.3956,221.9681 C133.5156,220.9281 132.9556,219.5881 131.6756,218.9581 C130.6656,218.4581 130.0356,219.3481 128.8556,218.5481 C127.5856,217.6681 127.9656,214.9771 126.6256,214.6581 C125.7056,214.4381 122.8356,214.1381 122.4056,212.9581 C121.9456,211.7081 120.5656,207.4881 122.2056,207.4881 C121.3756,207.3981 119.4056,207.1181 119.4656,206.4381 C119.1956,206.7381 119.0656,207.1181 119.0556,207.5681 C118.6456,206.3681 116.9156,206.3081 116.0356,205.5171 C115.2856,204.8481 114.7656,203.7081 114.1956,202.9181 C113.6156,202.1181 112.6456,202.0781 111.9656,201.4181 C110.9156,200.3981 110.5456,198.5381 109.4856,197.6781 C107.6256,196.1981 108.2556,194.7781 107.2556,193.0781 C106.1256,194.1881 105.6456,191.1081 105.2456,190.4081 C103.9156,188.1081 103.4956,186.7981 102.9356,184.4881 C102.4856,182.6081 100.5556,180.8981 100.4356,179.0171 C100.3756,178.1381 101.1656,175.9481 100.6056,175.2781 C99.6756,174.1881 97.7956,174.1981 96.6756,173.8681 C94.8456,173.3281 96.1056,171.2671 93.5056,171.0981 C92.6156,171.0381 92.6556,171.9981 91.6556,171.9281 C90.6956,171.8581 89.6556,171.1581 88.8356,170.5281 C87.0956,169.2081 85.3456,168.7981 83.5456,167.4281 C84.0656,168.4581 85.6756,169.4081 85.6556,170.4681 C85.6456,171.7781 85.2456,173.2081 85.0956,174.5081 C84.9456,175.8081 86.4756,177.0981 86.6256,178.4381 C86.7856,179.9081 87.1456,181.4381 87.0156,182.8381 C86.6756,186.2581 88.6756,187.6081 91.7156,190.1281 C94.4656,192.4081 95.5156,194.0281 96.2856,196.9681 C97.3956,195.9181 98.8556,198.4081 99.3456,199.3081 C99.5956,199.7781 99.8456,200.7271 100.3556,201.0781 C100.7756,201.3681 102.1656,201.6581 102.0656,202.2981 C101.8256,203.7781 102.6656,207.8181 104.4056,209.0581 C106.7556,210.7271 107.4656,213.7081 110.0256,214.9281 C109.0456,215.8381 111.0256,218.7481 111.5156,220.0281 C112.1456,219.3181 111.1056,217.5881 110.6556,216.7081 C115.1256,217.4081 115.6256,230.6181 118.3356,229.9881 C118.3956,231.3281 118.5956,232.8781 119.2856,234.1881 C120.0156,235.5781 121.2956,236.3281 120.5456,237.7981 C119.5856,239.6781 121.2056,243.1881 123.8956,243.0171 C123.9556,242.9881 124.0156,242.9481 124.0356,242.8981 C124.2556,242.4581 124.1756,241.8881 124.4456,241.4771 C125.1056,242.5281 127.1556,243.9981 128.1756,244.7081 C128.7456,245.0981 129.1256,247.5171 129.5656,248.1881 C130.5756,249.7181 133.0556,250.7981 131.3956,252.6581 C130.7356,253.3981 128.2156,255.6981 127.0256,255.2271 C125.4656,254.5981 125.5856,251.4581 124.7456,250.2581 C124.1256,249.3781 123.2056,248.7271 122.3356,248.1081 C120.9256,247.1081 119.9856,245.6481 118.7056,244.5081 C116.8456,242.8481 114.3156,242.1181 112.6456,240.1881 C111.2556,238.5781 108.4856,237.6281 108.6256,235.3281 C108.5856,235.8781 108.5056,236.4181 108.3856,236.9381 C107.6456,232.2671 110.9856,229.2981 107.3056,224.4581 C105.8056,222.5881 103.6456,222.3481 101.8856,220.6181 C101.0756,219.8281 99.8356,218.5981 99.4856,217.5981 C99.2356,216.8881 100.0556,216.7181 99.5456,215.8981 C99.2156,216.5171 99.5356,217.7381 98.8056,218.0881 C98.0656,218.4381 97.1256,217.7081 96.4456,218.3281 C95.8856,218.8281 95.1156,217.7481 94.7756,217.2981 C93.9656,216.2081 93.0156,216.0171 91.9256,215.3381 C91.6456,214.9981 91.3456,214.6981 90.9956,214.4181 C90.4756,214.3081 89.9456,214.1781 89.4256,214.0381 C88.3356,213.4081 88.6556,213.0681 88.2156,212.2271 C87.1956,210.2271 83.9056,209.8881 83.0556,207.6481 C85.1156,207.8381 87.9756,208.8781 89.2556,207.4081 C89.8456,209.5081 93.5356,208.9481 93.1056,211.1281 C93.8856,210.3581 93.5756,207.7081 92.1856,206.8381 C92.3456,207.3381 92.5356,209.3581 91.3656,208.8781 C90.6856,208.5881 90.9856,206.9381 90.9056,206.5171 C90.6556,206.6981 90.4056,206.8881 90.1656,207.0781 C90.4956,205.0081 92.9856,203.0281 90.9256,200.4481 C88.7756,197.7671 86.1956,194.2881 83.0856,192.4881 C80.5256,191.0081 78.4656,189.8181 77.1356,187.2381 C76.6356,186.2671 77.1056,185.5681 77.0356,184.6481 C76.9256,183.4381 75.5556,182.9181 75.9256,182.2381 C75.7356,182.4771 75.5256,182.6881 75.2856,182.8881 C74.0456,180.7181 76.0656,179.7581 73.5256,177.7381 C72.3456,176.8181 73.1256,176.1081 72.7156,175.1181 C72.1656,173.7881 70.6856,172.9181 69.9756,171.6881 C69.4456,170.7781 69.6656,170.0281 70.0756,169.4581 C70.4256,168.9581 69.3356,168.1581 68.8956,167.6581 C68.4956,167.3381 68.1156,166.9881 67.7656,166.6181 C67.6656,166.0881 67.5556,165.5481 67.4356,165.0081 C67.1756,164.5681 66.8256,164.1981 66.4956,163.8481 C67.9356,163.7181 69.3556,163.5581 70.7856,163.4081 C74.8556,162.9771 79.0456,162.5281 83.2856,162.2881 L83.3056,163.5881 L84.5856,164.0681 C90.2956,166.1881 96.3656,168.4181 102.3756,170.4481 C103.7956,170.9281 105.2256,171.3781 106.6156,171.8081 C108.3056,172.3381 110.0656,172.8881 111.7656,173.4881 C112.3556,173.6881 112.9656,173.9381 113.6156,174.2081 C115.4556,174.9481 117.3556,175.7271 119.2956,175.8081 C120.2256,175.8481 121.1756,175.8681 122.2256,175.8681 C124.1456,175.8681 126.0556,175.7981 127.9156,175.7381 C129.7256,175.6681 131.5956,175.5981 133.4256,175.5981 C133.8456,175.5981 134.5456,175.6681 135.2856,175.7381 C136.3456,175.8481 137.5456,175.9681 138.6956,175.9681 C142.8956,175.9681 143.9356,174.1181 144.0756,172.5781 C144.0956,172.2981 144.1156,172.0381 144.1256,171.7881 C144.1456,171.5981 144.1556,171.3681 144.1756,171.1781 L144.3556,171.1781 C144.4556,171.1781 144.5656,171.1781 144.6856,171.1881 C145.6656,171.2381 146.7156,171.2671 147.9856,171.2671 C148.7456,171.2671 149.4956,171.2581 150.2456,171.2481 C150.9756,171.2381 151.7156,171.2271 152.4456,171.2271 C152.7556,171.2271 153.1156,171.2081 153.5056,171.1881 C153.8956,171.1681 154.2956,171.1381 154.6856,171.1381 C156.2256,171.1381 156.4656,171.5381 156.5756,171.7081 C157.5156,173.2271 158.5056,173.7781 159.3056,174.2081 C159.7456,174.4481 160.0556,174.6281 160.4156,174.9881 C160.8056,175.3681 161.2156,175.7981 161.6356,176.2481 C163.0656,177.7581 164.6756,179.4681 166.4456,180.4581 C166.6656,180.5781 166.8856,180.6981 167.1156,180.8181 C168.1256,181.3581 168.7456,181.7181 168.8256,182.1481 C169.0056,183.0381 169.3856,183.7781 169.7256,184.4381 C169.8356,184.6581 169.9556,184.8781 170.0556,185.1081 C170.1356,185.2881 170.1456,185.4481 170.1656,185.8781 C170.1756,186.2781 170.1956,186.7881 170.3356,187.3681 C170.5256,188.1381 171.6056,191.9771 174.6456,193.0081 C174.8256,193.1081 175.2056,193.4581 175.4456,193.6681 C175.8956,194.0881 176.3756,194.5171 176.9156,194.8281 C177.5256,195.1681 178.1256,195.4681 178.7156,195.7581 C179.2056,195.9981 179.6656,196.2271 180.1256,196.4771 C180.3156,196.5881 180.5456,196.7181 180.7856,196.8681 C181.9256,197.5681 183.3456,198.4281 184.7956,198.4281 C185.4056,198.4281 185.9556,198.2781 186.4556,197.9881 C188.3656,196.8381 189.0056,194.9081 189.5156,193.3581 C189.8556,192.3281 190.1456,191.4381 190.6656,191.0781 C191.4856,190.5281 192.6256,190.2581 194.1556,190.2581 C194.9756,190.2581 195.9056,190.3381 197.0756,190.4981 L197.2656,190.5171 C198.1856,190.6381 198.7656,190.7271 199.1356,190.7881 C199.6756,191.4981 200.3856,191.9881 200.9456,192.3681 C201.2556,192.5781 201.7056,192.8981 201.7956,193.0481 C202.1356,193.9081 202.8356,194.4581 203.3956,194.8981 C203.5856,195.0481 203.8756,195.2781 203.9456,195.3781 C204.1956,195.8081 204.4956,196.1681 204.7556,196.4981 C204.9656,196.7381 205.1556,196.9771 205.2556,197.1681 C205.5756,197.7671 205.7956,198.4281 206.0356,199.1281 C206.2756,199.8281 206.5156,200.5481 206.8756,201.2981 C207.5956,202.7981 208.4256,204.3781 209.9856,205.8581 C210.5256,206.3581 210.8956,206.9981 211.3356,207.7271 C211.7156,208.3681 212.1456,209.0981 212.7356,209.7881 C213.2256,210.3781 213.8456,210.7581 214.3456,211.0681 C214.5156,211.1781 214.7556,211.3281 214.8956,211.4281 C214.9056,211.5581 214.9056,211.7271 214.9056,211.9081 C214.8956,212.2671 214.8956,212.7181 214.9856,213.2181 C215.2556,214.6581 215.8156,215.8581 216.3556,217.0171 C216.5456,217.4281 216.7456,217.8581 216.9356,218.2981 C217.0256,218.5281 217.1256,218.7581 217.2156,218.9771 C218.0756,221.1081 219.0456,223.5281 222.6756,224.0171 C223.2856,224.0981 224.3156,224.7881 225.1456,225.3381 C225.7156,225.7181 226.2556,226.0781 226.7956,226.3581 C227.8556,226.9081 228.9356,226.9771 229.6556,226.9771 C230.0156,226.9771 230.3756,226.9581 230.7156,226.9381 C230.9456,226.9181 231.1556,226.9081 231.3656,226.9081 C231.5556,226.9881 231.9756,227.2981 232.2256,227.4881 C232.9856,228.0481 233.9156,228.7381 235.1156,228.7381 C235.2556,228.7381 235.3956,228.7271 235.5256,228.7081 C235.7656,228.6781 236.3556,228.5281 236.9956,228.2381 C235.8856,231.6381 234.0556,234.7271 233.2856,238.3081 C233.0856,239.2381 232.7056,247.1481 231.4656,246.9681 C233.0156,248.8081 231.8656,251.4481 232.0256,253.3681 C232.1756,255.7481 230.9556,257.6681 231.2356,260.1181 C231.5356,262.6281 232.1956,264.8881 234.0656,266.9771 C236.0756,269.2181 235.3156,269.1181 234.7656,271.4081 C234.5056,270.5081 235.4456,269.2381 234.7456,268.4881 C233.4356,267.0681 232.9156,265.4181 231.8456,263.8881 C232.4556,265.2981 232.1056,266.7981 232.8956,268.1781 C233.6056,269.4181 234.2656,269.5481 234.6156,271.0581 C235.3456,274.2081 237.1856,277.4771 239.2356,280.1181 C241.5956,283.1581 242.6556,285.6081 244.0256,288.9881 C244.5956,290.3981 245.8356,291.4481 246.5356,292.8081 C247.1356,293.9681 247.4556,295.0381 248.8356,295.6081 C248.1356,295.5481 247.5156,294.7381 247.1256,295.1981 C247.8356,295.3781 247.9656,295.8681 247.8656,296.4081 C247.9356,296.3481 248.0256,296.3081 248.1556,296.2881 C248.5856,296.3181 248.8256,296.1181 248.8456,295.6881 C249.6856,296.1081 250.5956,296.1681 251.4656,296.1981 C254.2656,296.3181 256.8156,297.7271 258.4856,300.0781 C259.8956,302.0681 261.0156,301.9081 263.2056,301.3481 C264.5256,301.0081 266.7856,300.5581 267.7556,299.5281 C270.6656,298.7481 275.2456,297.9381 275.5856,298.8381 C274.7056,296.5781 281.2956,295.3581 282.4656,297.1481 C280.6156,296.8281 282.6756,298.3681 282.5456,299.1681 C283.0756,298.6581 283.6056,298.8981 284.3056,298.8381 C284.7456,298.9381 285.1956,298.9881 285.6456,299.0081 C285.7056,298.6881 285.8056,298.3881 285.9556,298.1081 C286.9056,297.7181 288.8656,295.5381 286.2956,295.3681 C286.7856,294.9081 287.2956,294.4771 287.8256,294.0681 C287.0856,294.5481 286.3756,295.0581 285.5756,295.4481 C286.3156,293.7781 288.4756,293.1481 289.9356,292.2271 C291.9756,290.9381 291.6556,289.0581 292.3456,286.9981 C292.7056,285.9281 293.5956,285.4181 294.1656,284.5171 C294.7556,283.6081 294.3756,282.3581 294.3256,281.2881 C294.2156,278.7181 295.2956,276.8681 295.5556,274.4881 C295.4156,274.8081 295.2456,275.1081 295.0256,275.3781 C295.7856,271.7581 300.9356,271.0581 304.2156,270.6881 C306.5756,270.4181 308.4056,269.7881 310.5456,268.9681 C313.3456,267.8981 316.0556,269.1181 319.0456,269.3881 C318.5156,269.1881 317.9756,269.0781 317.4256,269.0681 C318.5756,268.7671 319.8256,269.3681 320.9956,269.7481 C319.8456,269.2481 322.8256,268.1881 324.2256,268.7781 Z M9.2933,99.3125 C8.3053,96.5135 9.3943,93.9915 7.8403,91.1415 C7.2373,90.0355 3.7513,87.5945 3.7103,86.8025 C3.5973,84.5805 3.7073,82.5915 5.6303,81.5905 C5.3853,80.6415 5.7143,79.9175 5.2973,79.0015 C4.6063,77.4825 5.9563,76.4705 5.7413,75.0665 C5.5743,73.9775 3.9603,72.4005 4.1533,71.5785 C4.4773,70.2085 3.4543,69.8165 2.7083,68.2705 C2.1803,67.1755 2.5303,66.3165 2.6453,65.4545 C2.7873,64.3895 1.9153,63.4165 1.7103,62.3165 C1.4633,61.0765 1.8383,59.9975 2.2193,59.0415 C2.3773,58.6465 3.2163,56.3815 3.4973,57.7195 C3.3653,57.0855 3.8603,57.1275 4.3693,56.9765 C3.9423,55.5525 3.8453,53.7345 5.5753,53.6735 C3.9103,54.1115 4.7673,52.6315 4.8433,52.0325 C4.9573,51.1535 5.1643,50.3195 5.3583,49.4795 C5.6513,48.2085 5.3153,46.6295 5.9503,45.5245 C6.8773,43.9145 6.9243,41.1845 6.8233,39.0965 C6.7893,38.3315 6.4053,36.3975 7.8653,36.5995 C6.4413,35.3375 6.8273,33.6645 7.0443,32.8265 C7.3253,31.7485 6.3973,30.0375 8.1593,29.9525 C9.4803,29.8885 12.9843,30.9515 13.4523,30.1245 C12.9383,30.4055 11.4293,29.6645 10.6473,29.3995 C9.1433,28.8885 8.7623,29.1855 7.7413,29.3445 C6.2033,29.5835 6.1063,26.7645 6.0553,26.3205 C6.2403,26.8975 6.3923,27.4645 6.5083,28.0215 C7.8353,27.7265 6.1303,24.6025 8.5223,25.3515 C7.6093,24.9095 6.8193,24.7475 6.1513,24.8645 C5.0573,23.0055 6.8643,23.0285 8.2043,22.5985 C7.4783,22.6435 6.5273,22.2975 5.6793,21.7895 C5.5953,22.0405 5.5523,22.3085 5.5533,22.5985 C4.3823,19.9595 4.3873,17.2705 1.8463,14.4415 C0.6353,13.0925 -1.0187,8.8305 0.8243,9.1865 C3.7613,9.7525 6.5233,10.9805 9.4563,11.3745 C11.2223,11.6115 14.9633,11.2615 16.0993,12.6445 C15.7683,12.0125 15.9693,11.5575 16.5883,11.4305 C16.6763,12.0555 17.6253,12.8575 17.9413,13.5235 C18.3233,14.3265 16.9323,15.2365 16.5743,15.7195 C14.8013,16.6195 14.3983,17.5375 13.8883,18.3895 C15.3603,19.0885 15.8743,18.4605 16.3753,18.0655 C15.8703,18.2155 15.4133,18.4045 15.0043,18.6325 C14.0053,17.4085 15.0763,16.6885 15.8573,16.3145 C17.2033,15.6755 17.5703,14.6005 18.5173,13.6965 C20.0793,14.9635 17.1643,15.8195 17.7603,17.1755 C18.8563,16.3095 19.5383,19.3715 18.1113,19.5225 C18.1663,19.2525 18.2223,18.9835 18.2753,18.7135 C17.1873,18.8415 17.3743,19.8665 17.2273,20.5745 C16.6033,19.8935 16.5683,19.3055 16.9153,18.9565 C15.8773,19.3685 15.9813,20.6125 14.6803,20.8165 C15.5343,20.6945 15.8883,20.8295 16.1953,21.7885 C15.8353,20.9005 16.3363,20.4565 17.7183,20.9345 C18.5903,21.2365 18.9733,20.1255 19.2023,19.8625 C20.0513,18.8895 21.8663,18.3025 20.3483,16.1235 C19.2383,14.5325 22.2573,13.5855 20.8723,12.3775 C19.7073,11.3625 20.3193,10.5335 19.0073,9.4065 C18.0203,8.5585 17.6623,9.6345 17.1963,8.1935 C20.1453,9.1675 18.5863,6.8235 18.9053,5.8455 C17.6403,6.0265 16.6073,4.4105 16.7383,3.8285 C16.9783,2.7755 21.2083,3.4175 22.6833,3.4175 L40.6813,3.4175 L75.9243,3.4175 L147.1803,3.4175 L218.7363,3.4175 L253.1203,3.4175 C254.5313,3.4175 253.9803,2.0545 253.8933,1.0525 C253.8203,0.2085 255.2573,-0.6825 256.5063,0.7795 C257.9553,2.4755 256.6063,5.6825 259.7403,6.2375 C260.6723,6.4035 264.7333,6.3835 265.4373,7.5045 C266.2053,8.7295 269.4053,7.1685 270.0023,6.9005 C271.3123,6.3125 273.9653,7.5575 275.7453,7.8685 C275.6853,8.5245 276.3493,8.9575 277.1923,9.0025 C277.0473,9.3465 277.9573,10.8065 278.5883,10.5025 C278.8573,10.3745 278.3663,9.6565 278.7973,9.6515 C279.8433,9.6365 280.8223,10.2305 281.9183,10.7295 C282.8033,11.1325 283.3013,10.8585 283.6483,11.5475 C283.8753,11.9965 284.4113,12.1705 284.8713,12.2075 C287.5423,12.4175 288.7313,10.7235 291.1603,10.7005 C291.1453,12.2655 294.1143,11.9465 294.9443,11.8865 C295.7293,11.8305 296.6453,11.6905 297.6343,12.1625 C299.5853,13.0905 300.2343,12.5325 301.9863,12.8865 C297.5533,14.3435 292.8343,15.7685 289.3413,18.0885 C287.8943,19.0525 286.8293,20.3085 285.4243,21.3015 C283.8173,22.4125 281.6093,23.0695 280.4283,24.5385 C283.5783,26.9435 289.4903,22.9965 291.7073,22.8385 C292.0633,23.9565 291.4303,25.2775 290.6533,25.8335 C291.3513,25.9915 292.0673,25.2825 292.6183,25.5685 C293.5893,26.0755 293.4853,26.2085 294.5743,26.2085 C296.4673,26.2095 297.7733,25.1505 299.0913,24.5005 C300.6543,23.7315 303.0403,24.2085 304.4833,23.3925 C306.3913,22.3155 308.4013,21.4825 309.9893,20.1685 C310.0873,20.9765 311.1033,21.5285 311.6863,22.2725 C312.2923,23.0545 311.6363,23.6745 311.8363,24.3765 C312.1053,24.0375 314.7583,21.8085 313.4903,23.7295 C314.9933,22.0905 317.6533,23.5195 319.9463,25.4895 C322.0973,27.3405 322.9883,26.6175 325.2593,27.2515 C328.4013,28.1295 329.7453,25.9375 331.9323,25.3855 C333.2423,25.0565 334.8973,25.3425 336.3513,25.2415 C338.1783,25.1145 339.7983,24.6895 341.5543,24.4575 C341.4253,25.3325 341.2613,26.1945 341.5543,27.2085 C343.5343,27.5775 345.0783,27.4195 346.6413,27.2155 C348.0503,27.0315 348.9793,29.6435 347.8853,29.8805 C349.0983,29.9515 349.8563,31.1335 350.8663,31.7395 C349.9023,33.1965 345.8163,30.9015 344.3663,31.9335 C344.3103,31.9725 343.7273,33.1875 343.7693,33.1855 C342.6233,33.2495 341.7973,31.7445 340.5403,31.3755 C336.8253,30.2875 336.0053,32.3175 332.8673,32.1765 C329.5423,32.0255 329.6203,34.6945 327.1293,35.3815 C327.0783,34.4015 327.8913,33.8745 328.2593,33.1155 C326.4703,33.3975 326.2283,34.4735 324.6893,34.8955 C324.4693,34.2715 324.4323,33.7035 324.5803,33.1955 C322.0013,34.2355 321.2623,37.7495 319.6923,39.5955 C319.2933,40.0645 319.4623,40.8285 319.0513,41.2875 C318.5833,41.7995 317.5223,41.7545 317.0123,42.2725 C316.2343,43.0615 315.2443,44.3655 315.6733,45.7385 C317.7013,45.3405 318.2403,41.9685 321.1503,42.8545 C322.2083,43.1775 320.4093,45.6365 320.2543,45.9705 C319.7433,47.0705 319.9363,48.5575 319.2633,49.5555 C317.9023,51.5845 318.1333,54.0405 316.9673,56.1885 C316.3773,57.2785 316.0923,58.6935 316.3703,60.1435 C316.6303,61.4935 317.6093,62.8925 317.1483,64.0605 C316.3983,65.9675 317.5883,70.2795 319.5643,72.6535 C321.2073,74.6285 323.7663,73.4265 324.8453,72.8835 C327.3383,71.6355 328.6803,69.4995 329.7363,67.1735 C330.3093,65.9175 330.7493,64.6055 330.8053,63.1045 C330.8503,61.8285 329.3723,58.8025 330.4713,58.1205 C327.5393,56.8625 328.3653,54.5305 328.7723,53.1745 C329.0363,52.2995 328.4253,51.3845 328.4643,50.4685 C328.5053,49.5135 329.8123,48.7855 330.2123,47.9765 C330.6663,47.0585 330.5493,46.1605 330.5633,45.0675 C330.5773,44.0885 331.5583,44.0095 332.1033,43.4055 C332.7873,42.6475 332.6363,42.1735 333.9013,41.9015 C335.3913,41.5815 335.3583,40.0385 336.6023,39.5065 C336.2253,40.6035 336.7033,42.1015 336.0003,43.0665 C336.5523,42.7685 336.9173,42.3375 337.0913,41.7725 C337.2973,42.4515 337.1363,43.0565 336.7363,43.4725 C338.2883,42.7605 338.2443,41.0785 338.2753,39.5405 C338.3153,37.6315 341.0433,38.3785 342.3043,37.4845 C339.1573,37.0565 341.8463,34.0845 343.0213,33.8745 C343.7333,33.7475 345.9893,34.7015 346.9003,35.0575 C349.0543,35.8975 351.0203,36.9495 353.2003,37.6375 C355.0063,38.2085 356.6573,40.0615 355.5793,40.6685 C354.5433,41.2515 355.8853,43.0675 356.1313,44.1225 C356.4293,45.4105 356.3013,47.5875 355.0223,48.0155 C353.6193,48.4865 353.8933,49.9985 352.6753,50.6175 C351.5243,51.2025 349.9903,51.8795 350.4603,53.4965 C351.0673,55.5855 353.3843,53.9405 353.9403,53.7675 C355.0923,53.4105 357.7423,48.7135 360.1933,50.6895 C362.0963,52.2255 362.1693,56.0265 362.7363,57.6295 C363.4763,59.7175 364.3993,64.6225 361.4253,64.8355 C362.0233,63.8565 360.2983,63.3145 359.9463,64.1555 C359.6483,64.8705 359.8203,65.8455 359.3253,66.4555 C358.7993,67.1035 357.9553,67.4775 357.4153,68.1085 C356.8363,68.7825 356.7663,69.7125 356.1543,70.3785 C355.7063,70.8705 353.3143,72.7045 355.4363,73.3065 C356.1953,73.5225 356.9643,73.6455 357.7253,73.8985 C358.0923,74.0745 358.4273,74.2965 358.7293,74.5655 C359.3113,74.8775 360.1263,74.5695 360.8353,74.8705 C359.9993,75.0485 359.0223,75.0345 358.3543,75.4365 C359.4843,75.9165 360.0643,75.2285 361.0603,75.3565 C361.7223,75.4415 362.4603,75.7285 363.0993,75.7465 C365.1743,75.8035 366.6943,74.9585 368.8313,75.0165 C370.8953,75.0695 371.9933,73.4175 373.3813,72.6505 C374.9963,71.7575 377.0743,71.2705 378.9403,70.6645 C382.8273,69.4035 386.6893,67.9245 389.6843,65.6825 C390.9553,64.7335 392.4353,63.8515 393.5813,62.8015 C394.2473,62.1915 394.0623,59.7075 392.2393,59.6595 C393.0293,57.7135 394.0193,57.2625 396.7833,56.9075 C398.2743,56.7165 400.0333,56.7205 401.7103,56.9625 C403.0463,57.1575 404.5773,58.4345 405.7163,58.1445 C407.1633,57.7765 408.7063,58.0025 410.2563,57.8305 C411.9613,57.6425 412.9993,56.6015 414.3733,56.0105 C415.4193,55.5625 416.9183,55.5915 416.7573,54.2025 C416.5943,52.7785 417.1883,51.7995 418.0823,50.9185 C417.4803,51.2095 416.3993,51.4685 416.8143,50.2705 C416.1473,49.2315 416.9243,48.9025 417.5403,48.6085 C419.3773,47.7345 420.5663,46.5155 421.9633,45.2225 C423.4753,43.8305 425.3503,41.9935 427.8073,41.5695 C430.9603,41.0215 434.8123,41.4835 438.2373,41.4245 C443.3113,41.3385 448.2943,41.2265 453.5033,41.4555 C454.5033,41.4995 457.4963,41.8915 457.7913,40.9965 C458.0243,40.2605 458.1713,39.3315 458.8653,38.8745 C459.6413,38.3665 461.0273,38.6435 461.8793,38.0505 C462.1563,38.3195 462.4293,38.5895 462.7013,38.8605 C463.6263,38.4325 462.7513,37.4415 464.0983,37.5745 C463.7923,37.5435 466.0983,34.4445 466.3763,34.2205 C467.5023,33.3115 468.2153,33.0555 467.9073,31.4525 C467.6653,30.1995 468.6253,29.0095 469.4433,28.3465 C470.4343,27.5425 469.8913,26.1475 470.4013,25.1025 C471.1123,23.6515 472.6433,22.6185 473.7473,21.4335 C474.6483,20.4255 477.0753,15.5455 478.5233,19.4895 C479.2993,21.5995 483.7113,19.3845 484.3373,19.2155 C488.0753,18.2085 489.4993,22.8455 489.4643,24.8545 C489.4343,26.6515 489.5973,28.4995 489.6593,30.3205 C489.6923,31.2695 488.9213,33.9815 490.0823,34.9805 C491.3093,36.0395 492.4823,35.0035 492.4013,36.5845 C492.3433,37.7025 491.9633,38.8515 493.4083,39.9945 C493.8643,39.3125 494.7593,39.5985 495.3823,40.4785 C496.1173,41.5165 495.0553,41.8125 495.2683,42.7445 C496.2133,41.9945 496.5073,42.8525 496.1983,43.4105 C495.8673,44.0125 494.9033,44.2025 494.1493,44.3455 C493.2303,44.5205 492.4523,44.6515 491.7843,45.1625 C491.3043,45.5285 489.6313,47.0255 489.7303,45.1725 C488.9993,45.4175 488.7633,46.3065 487.8353,46.3065 C487.1393,46.3065 487.7603,47.4895 487.0283,47.6825 C486.8313,47.1805 486.3273,45.8625 485.4293,46.0675 C484.4183,46.3015 484.3593,47.8015 483.5643,46.2265 C482.2293,46.7965 482.8963,48.3425 483.0023,48.6535 C481.2333,47.8185 480.9833,46.7645 480.7283,45.4165 C480.7563,46.3535 479.5913,46.4785 479.1543,47.1155 C478.6553,47.8425 478.6943,48.8595 478.2573,49.6235 C477.2423,51.4135 475.2933,50.4995 474.4703,52.4575 C474.0563,51.9325 473.8593,51.8175 473.8813,51.2435 C473.6853,51.4895 473.4823,51.7325 473.2773,51.9705 C473.0213,49.8965 472.2353,52.1645 472.3253,52.6985 C472.0283,51.8055 471.7933,50.9065 472.3293,50.2705 C471.8753,50.4985 471.5953,50.8485 471.4953,51.3235 C472.3423,51.1195 472.0173,53.4165 471.6683,53.7505 C471.4803,53.3985 471.2803,53.0485 471.0673,52.6985 C469.4873,52.7845 467.6863,53.3485 468.0963,54.5875 C468.2153,54.9455 466.8733,56.5205 466.5363,56.7555 C465.2143,57.6835 461.0333,62.4055 464.5093,64.2695 C463.8353,64.7295 460.8843,65.8985 461.5173,67.0995 C461.8153,67.6665 463.3363,67.8705 463.8813,68.3765 C465.2563,69.6565 464.5853,71.2195 466.6463,72.4955 C468.3813,73.5705 470.5373,72.5215 470.2153,70.9855 C469.1303,70.9855 469.6453,70.0065 468.3353,69.3685 C470.1883,69.2925 470.9043,71.8085 470.6753,72.7685 C470.4103,73.8995 466.0253,74.6195 464.6093,74.4665 C464.6483,73.8875 464.7183,73.3215 464.8213,72.7665 C463.3203,73.6435 461.8663,74.9025 459.8823,75.0325 C459.9243,74.1845 459.7623,73.2295 460.3233,72.6045 C459.6083,73.0065 459.0643,74.0825 458.2793,72.6045 C457.4063,74.4425 458.0023,76.1265 455.2533,76.5485 C454.7123,76.6325 450.2183,77.3295 449.8913,76.3275 C450.2823,77.3895 448.5313,77.3945 447.7333,77.3855 C445.9923,77.3645 445.0973,77.3875 443.6933,77.9945 C440.8913,79.2045 438.0913,80.2115 436.0733,82.1535 C436.7913,80.5715 437.4433,79.0475 436.2333,76.8935 C435.8353,78.6735 438.0343,82.0455 435.4103,82.8645 C433.3613,83.5035 433.7983,85.1515 436.3643,85.3905 C436.7063,87.4985 435.8723,89.3475 435.3433,91.1365 C435.4343,90.5965 435.5263,90.0575 435.6183,89.5175 C433.6603,89.4765 435.0073,94.4225 432.7453,94.2475 C432.0223,94.1915 431.2573,96.8545 430.9723,97.3135 C430.3313,98.3445 429.4363,99.7115 427.8383,99.7945 C427.8583,99.2825 428.7883,98.0025 427.7713,97.4845 C426.0783,96.6215 425.1333,96.5705 423.6133,95.1085 C420.8773,92.4855 425.0853,91.6315 426.0693,90.4885 C424.2343,91.3265 420.9683,92.5965 423.1183,95.4125 C424.3603,97.0415 424.3263,98.6705 425.7243,100.3845 C426.8453,101.7595 426.9053,102.7715 426.1063,103.2745 C427.5063,103.5225 427.3243,104.6655 427.0443,105.2975 C426.7053,106.1715 425.8143,106.6255 425.4283,107.0675 C424.3893,108.2625 423.8413,109.5675 423.1183,110.9615 C422.4723,112.2105 421.3123,113.1375 420.6963,114.3675 C420.3333,115.0925 420.2963,117.0625 419.0613,117.0325 C418.0573,115.2165 419.2303,113.3155 420.0063,112.0815 C420.3973,111.4615 421.2743,109.4025 421.9753,109.2635 C421.1793,109.0005 420.5363,109.0815 420.0483,109.5065 C420.0313,108.7245 421.7753,107.1575 419.5553,107.1595 C419.8153,106.6425 419.9573,106.0765 419.9683,105.4585 C419.5283,106.8045 418.3063,104.8115 418.7113,106.6725 C418.4133,106.2355 416.8433,105.4535 416.8123,105.0075 C416.7543,104.2115 417.8793,103.8015 416.7943,102.8705 C417.4143,102.8795 418.0463,103.0145 418.6933,103.2755 C418.2633,102.6015 416.8633,101.1985 416.0903,101.7375 C416.0733,100.5985 417.0403,101.3585 417.6633,100.9045 C418.7113,100.1395 416.4003,99.6245 415.8493,100.2005 C415.7703,98.8705 417.9203,99.3585 417.6533,97.8535 C417.4603,98.0835 417.2523,98.2985 417.0283,98.5005 C415.4393,96.2965 418.7103,95.6915 420.2543,95.5065 C419.8763,95.3005 419.5013,95.0855 419.1313,94.8595 C419.6943,94.5605 420.0843,94.1285 420.3043,93.5645 C419.8353,93.9095 419.3473,94.2335 418.8373,94.5365 C419.0083,94.2515 419.1593,93.9535 419.2883,93.6455 C418.3363,93.5435 418.0843,94.0275 417.8873,94.6685 C416.6323,95.1115 416.4493,95.5425 416.4483,96.0735 C415.5103,94.5335 414.5883,96.3195 414.9863,97.0445 C414.2313,97.2545 414.7263,97.7925 415.3563,98.2585 C414.2933,98.3595 414.4913,98.5235 415.4443,99.1485 C412.3993,97.7195 415.8603,104.9175 415.4953,105.6225 C413.8883,104.8145 413.1923,103.6205 413.1703,102.3045 C413.1773,103.3805 413.2423,104.3345 414.4813,105.3105 C415.4183,106.0695 416.6733,107.2055 415.8393,108.0505 C415.0963,106.7925 411.9333,106.7735 411.9703,105.2995 C411.4883,105.2215 411.4783,105.4905 411.9173,106.1085 C411.2063,105.7935 410.5273,105.2715 410.0703,104.6525 C409.0963,105.8315 407.8433,104.3135 408.6523,103.2455 C409.2713,102.4295 411.1163,101.6235 409.7893,100.1215 C410.4473,101.6635 406.6703,104.5025 408.0543,105.3655 C408.8773,105.8895 409.6693,105.2095 410.4693,106.0205 C411.7633,107.3835 411.9053,107.0015 413.5853,107.3835 C414.2723,107.5395 415.1173,108.8225 415.8113,109.2525 C416.9713,109.9665 416.9543,110.3605 416.3913,111.2245 C414.9093,113.5065 412.4123,110.0215 411.0743,108.3755 C411.4763,109.8875 413.5053,112.1635 415.1413,112.9035 C417.1513,113.8145 417.2133,115.1775 414.9763,114.8495 C415.1973,115.1425 415.4103,115.4395 415.6123,115.7395 C414.5133,116.4655 413.2913,114.7325 412.3773,114.0405 C413.7903,115.5765 417.9993,117.8745 415.1543,118.8945 C413.1443,115.9915 411.1923,116.2205 408.0853,115.2535 C408.5573,115.8025 410.4813,115.9295 411.3553,116.4085 C412.5593,117.0695 415.1423,118.6975 414.3673,119.9465 C414.7363,119.4015 415.4513,119.4545 416.1243,120.0275 C415.5653,118.7225 417.1513,119.1555 418.0223,119.3695 C419.1203,119.6415 419.1283,120.3935 419.4183,121.3025 C419.8013,122.5075 420.0523,123.6785 420.3243,124.8775 C420.6723,126.4175 422.1573,128.0755 422.1223,129.5755 C421.6223,128.2715 421.1333,126.9195 420.3353,125.6575 C419.5623,124.4335 420.1953,123.1665 418.8513,122.0495 C418.7073,124.1205 420.3683,125.7635 420.0233,127.3095 C419.9033,126.6755 419.5503,126.1095 418.9603,125.6105 C418.8943,126.4825 418.2433,126.5845 417.3923,125.8535 C417.6533,126.1385 417.8933,126.4365 418.1103,126.7435 C417.5653,127.1445 416.9343,127.0635 416.2193,126.5005 C415.1103,126.8375 415.4263,127.1065 415.7293,127.3905 C414.9473,127.5935 414.5153,128.4865 413.4113,127.9575 C412.2383,127.3955 412.2813,126.1255 412.5983,125.4485 C412.2583,125.8195 411.9213,128.4405 412.8143,128.8765 C413.6063,129.2645 414.2403,128.3775 414.9883,128.6085 C415.5963,128.7955 418.0023,127.9315 418.2533,129.0815 C418.4203,129.8685 418.3093,131.0035 417.9313,131.5985 C418.6293,131.3595 418.7403,130.7555 418.7233,130.0735 C418.7003,129.1765 419.8353,129.4325 420.2493,128.8475 C421.2933,130.1035 420.3333,130.9895 420.5173,132.1655 C419.0533,131.3455 418.8273,133.2275 418.3933,133.8555 C417.5903,135.0205 415.1993,134.3565 413.7513,133.6225 C413.8403,133.3365 413.9563,133.0675 414.0963,132.8115 C413.4673,132.9615 413.1533,133.4185 413.5613,134.1065 C412.2663,133.5835 410.9413,133.7195 409.6723,132.9735 C410.4963,133.5935 415.2293,135.1515 413.6513,135.8045 C413.0493,136.0535 413.7403,136.8665 413.2473,137.2775 C412.1563,138.1905 411.3793,138.0955 409.7033,137.1015 C410.1713,138.2235 411.1103,138.6275 412.1783,138.4985 C412.9023,138.4105 414.9873,137.4395 414.9533,138.4765 C415.7623,138.7065 415.2543,139.6145 414.5833,140.0135 C414.2023,140.2395 411.5463,140.0485 412.3873,140.6615 C410.9633,140.4515 409.0343,140.2555 408.2943,141.1055 C407.7913,141.6875 406.6713,142.6835 406.5723,140.9845 C406.2513,141.3505 406.4943,142.0175 406.5013,142.4995 C406.5063,143.0165 405.3993,143.2255 405.0273,143.4575 C403.4053,144.4635 402.8713,146.2135 402.3133,147.9445 C402.2913,147.4135 402.1723,146.8755 401.9593,146.3265 C402.2153,149.4645 398.8043,148.4565 396.3523,149.2215 C393.5723,150.0925 392.4783,152.6955 391.2923,154.9845 C390.6643,154.4005 390.6783,153.7615 391.1663,153.3665 C390.3113,153.9045 391.6073,155.6575 390.5273,155.8755 C389.9443,155.9925 390.3163,156.3915 390.0213,156.7325 C389.4963,157.3365 389.1113,156.7155 388.5783,157.0885 C388.0113,157.4855 385.9753,161.0805 384.9233,158.8695 C385.8333,160.6935 384.3043,160.9435 383.1883,161.6015 C382.4903,162.0135 381.9483,162.4155 380.9273,162.2435 C377.7913,163.0825 382.1303,162.7795 379.7353,163.8045 C381.7353,163.6145 378.7953,165.2325 378.5723,163.3195 C378.9903,165.5055 377.5403,162.9945 377.3143,162.5105 C377.5513,163.2315 378.0253,163.9175 378.2543,164.6375 C376.8473,167.1865 376.8993,167.8915 374.6943,168.5795 C374.8893,168.8475 375.0813,169.1185 375.2733,169.3895 C374.8303,169.7085 374.2803,169.7615 373.6263,169.5515 C373.6843,169.8535 373.8003,170.1495 373.9753,170.4415 C374.8983,171.1175 374.0033,171.5395 373.0183,171.4965 C374.2343,172.0475 374.1633,173.5405 373.1483,172.7885 C373.8203,174.1175 372.9213,173.5915 371.7933,173.3545 C372.5023,173.5605 373.1233,173.9385 373.6543,174.4885 C373.0823,175.2245 372.0813,175.1345 371.9903,176.2645 C371.9193,177.0695 371.0293,179.1005 371.9063,179.9035 C372.2733,180.1855 372.3123,180.4395 372.0193,180.6625 C371.3153,181.1985 371.9413,181.3795 372.2953,182.2645 C372.9813,183.9905 373.0063,186.0085 373.4043,187.7585 C374.2603,191.5285 376.1403,195.3335 378.2913,198.8575 C379.3493,200.5915 379.3163,200.9695 379.1863,202.6155 C379.0533,204.2385 379.9613,205.7265 380.5013,207.3415 C379.4283,205.6735 378.7163,203.8935 379.0603,202.1885 C379.4513,200.2355 377.5433,200.6905 377.0873,199.0875 C377.7773,202.0505 378.8293,204.8765 380.3013,207.7285 C381.1003,209.2775 382.9503,212.4535 382.0843,213.8965 C384.7383,213.5255 383.8793,224.7765 383.5973,226.0025 C383.0943,228.0075 382.4373,232.2145 380.5953,233.3175 C378.8703,234.0925 377.8283,233.2775 377.0663,233.5625 C375.7943,234.0375 373.6683,233.4135 374.8753,231.8605 C375.2363,232.4385 375.8223,232.8895 376.4793,233.0745 C376.6913,232.1915 374.9993,231.2925 374.5293,230.6295 C373.4953,229.1715 373.8383,227.5825 371.8653,226.5635 C370.6913,225.9615 369.6083,225.8765 369.1663,224.4955 C368.7303,223.1345 369.1723,221.2255 367.3043,220.4495 C368.2233,220.1225 368.4933,219.1325 369.2093,218.5885 C368.4023,218.8425 368.1043,219.8365 367.3163,220.1485 C366.6563,220.4095 366.5183,216.5765 366.8683,216.0815 C366.3783,216.4605 365.8153,216.4335 365.1783,216.0005 C362.9133,214.5185 363.0033,211.9615 361.1583,210.9835 C362.4453,210.8985 364.3113,207.9645 363.2523,206.6945 C362.4593,206.5615 361.8723,206.0075 361.1813,205.7235 C360.9123,206.2995 361.0043,206.7745 361.7273,207.1955 C362.3663,207.5685 361.4533,208.7815 361.2873,209.0415 C358.8613,205.7355 361.5053,202.5985 361.5723,199.5445 C361.5963,198.4575 361.3573,197.4815 360.8703,196.3795 C360.0393,194.5065 359.4123,195.1025 357.9373,193.9965 C355.7933,192.3895 354.6483,190.0545 353.1663,188.0435 C352.4473,187.0685 351.0903,186.0005 349.9193,185.6565 C348.2113,185.1535 347.5503,186.7015 346.0013,186.5455 C346.5603,187.7845 345.3113,187.4915 344.4013,188.1245 C344.0463,188.3705 342.4603,189.5505 342.4243,188.4875 C341.4413,189.3485 339.9443,189.6215 338.4863,189.6215 C339.0983,188.5275 338.0283,187.0935 336.7263,186.5455 C337.3043,186.6175 337.1473,186.3205 336.2553,185.6565 C334.8173,185.1675 335.7493,184.0265 336.6453,183.7945 C335.8373,183.8265 335.0303,183.8615 334.2183,183.8755 C334.5123,184.1435 334.8023,184.4135 335.0903,184.6845 C333.5383,185.0865 330.3423,183.2525 328.7513,182.5815 C328.9503,182.6105 331.9583,182.9975 331.6233,182.4765 C331.3003,181.9755 330.2653,181.6485 329.7573,181.5505 C328.8493,181.3755 328.2133,182.1075 327.5243,182.3845 C326.3513,182.8555 324.5263,182.8585 323.1563,182.8235 C323.9143,182.7465 324.5923,182.5305 325.1913,182.1775 C324.4213,181.9545 324.0073,181.4105 324.3453,180.8005 C324.0273,181.2595 323.7533,181.7455 323.5233,182.2565 C323.4833,180.0195 322.5593,182.1405 322.2093,182.6135 C321.6853,183.3225 320.9433,183.6865 319.8973,183.6335 C320.4953,183.4775 321.8903,182.7465 320.7413,181.9345 C320.4893,183.7745 318.1643,184.7585 316.1163,184.0375 C318.1583,184.7115 316.1803,180.2965 315.6393,179.4245 C315.4143,180.3695 315.1193,181.4435 314.7613,182.3235 C314.4883,182.9945 313.1733,182.6035 312.5763,182.9685 C312.2553,183.1655 310.4023,183.2225 310.5253,182.9455 C310.0733,183.9685 308.7713,182.2705 308.0693,182.5815 C308.4543,182.6965 305.9523,183.2445 305.4113,183.3045 C304.0463,183.4585 304.0583,184.2275 302.8203,184.6715 C300.5923,185.4695 299.1373,182.7905 296.9783,182.8335 C296.2153,182.8475 294.1693,184.9485 295.6363,185.6295 C296.6003,186.0785 298.0573,186.0165 298.8493,185.6865 C299.4973,185.4155 301.0883,185.5675 301.4683,185.1715 C301.2653,185.5445 299.6283,186.2915 300.0023,186.8725 C300.9493,188.3375 301.3843,187.5105 301.9063,186.7725 C302.5923,185.8025 304.2583,187.0565 303.8583,188.1325 C303.5193,189.0485 301.4093,188.2995 302.1553,189.8665 C300.9113,189.4635 300.9813,190.2455 301.4773,191.0895 C302.2763,192.4545 303.3493,192.5805 304.7463,192.9515 C305.4263,193.1315 305.9033,193.9965 306.4923,194.4755 C307.0833,194.9565 305.6433,195.7885 305.8403,196.4205 C304.6323,195.1405 304.0043,196.3875 303.3783,196.9875 C303.6963,196.3755 304.0103,195.7505 304.1453,195.0435 C303.3263,194.9495 303.4433,194.5395 303.0013,194.0695 C302.7303,193.7795 300.5673,193.1075 300.2013,193.1025 C300.6033,192.0625 296.9823,190.5395 296.6763,190.8725 C296.5043,191.0595 297.6473,192.2655 297.6803,192.6965 C297.7783,193.9505 297.6463,195.0575 296.3213,195.3695 C295.9813,194.1975 296.0853,193.8455 294.6863,193.5885 C292.4443,193.1755 293.7793,194.7285 292.3413,195.0375 C290.0833,195.5215 286.8323,192.8675 287.6213,190.6765 C287.3303,191.6565 285.8953,191.2075 285.0983,190.6035 C284.5803,190.2095 284.1263,189.6305 284.1693,189.0595 C283.2793,188.9295 281.8653,189.6345 282.6103,188.2495 C281.5563,188.2595 279.2703,189.2145 280.6943,190.5955 C279.0293,190.3375 277.8373,191.1125 276.0153,190.6865 C273.8713,190.1855 271.8143,189.0015 269.6743,188.4125 C270.3913,187.6325 270.6043,186.9015 269.8133,185.7415 C269.6953,186.5905 270.0583,188.6675 269.0063,188.9175 C268.0223,189.1505 266.1253,189.3765 265.0013,188.8965 C265.3213,188.1725 266.1933,187.6375 265.8333,186.6305 C264.8123,187.1935 264.0063,188.3635 265.2783,189.6245 C262.2783,190.0165 259.3463,190.9925 257.2783,192.7805 C257.7753,191.8435 258.8483,191.2325 259.8733,190.8375 C258.9393,190.6715 258.1263,190.9185 257.3493,191.1625 C257.7383,190.4625 258.1523,189.6125 257.6053,188.6535 C256.8903,188.8095 256.9613,189.5015 256.3913,189.7865 C254.7243,190.2045 255.9293,192.3875 256.8143,192.6185 C255.7293,194.0005 254.3533,194.9125 253.3533,196.3765 C251.9863,198.3795 248.3093,198.0105 247.1763,199.9015 C247.6923,199.7395 248.2073,199.5785 248.7233,199.4165 C247.5553,200.1465 246.3013,200.8025 244.9463,201.2775 C245.4553,200.6815 246.2753,200.4035 246.7113,199.7395 C246.1763,199.8875 245.6683,200.0775 245.1853,200.3055 C246.2713,199.5325 243.4823,199.7405 242.9403,198.8485 C243.2303,199.4085 243.2233,199.8935 242.9183,200.3055 C242.5463,197.8995 240.2223,201.7165 243.2713,201.5995 C242.4883,202.5535 241.0123,202.9695 239.8693,201.4375 C240.3323,202.7725 238.7333,205.7025 238.6203,203.9455 C238.3493,205.2145 236.4273,203.9025 236.3313,205.4015 C237.0713,205.5895 237.6143,205.4275 237.9603,204.9165 C238.3013,207.4215 235.6283,206.9765 233.8853,207.5065 C234.8003,208.1925 235.3873,208.5885 235.7173,209.1055 C236.1163,209.7295 235.2393,211.0915 235.0573,211.5645 C234.5683,212.8305 232.7813,212.9105 231.6993,211.4705 C232.2513,212.0565 232.3773,212.6225 232.0793,213.1695 C232.9653,213.3595 233.8973,213.5415 234.5673,213.0895 C234.5743,213.9725 234.5093,215.4535 233.7103,215.8975 C233.0443,216.2695 234.2773,218.1575 234.4403,218.7545 C234.9303,220.5485 234.8243,224.2605 236.6723,225.7135 C236.8973,225.4815 237.1093,225.2395 237.3083,224.9865 C237.7603,225.8445 235.8283,226.6505 235.2493,226.7325 C234.1053,226.8935 232.7963,224.9065 231.4333,224.9065 C230.3183,224.9065 228.8923,225.1925 227.7213,224.5835 C226.3533,223.8745 224.5343,222.2505 222.9443,222.0345 C220.1893,221.6605 219.7803,219.9235 218.7753,217.5215 C218.1013,215.9105 217.2623,214.5225 216.9573,212.8625 C216.8263,212.1485 216.9923,211.4805 216.7973,210.7575 C216.5163,209.7125 214.9803,209.3485 214.2643,208.4995 C213.1523,207.1815 212.6573,205.6295 211.3633,204.4055 C210.0863,203.1955 209.3853,201.9055 208.6803,200.4365 C208.0103,199.0415 207.7603,197.6175 207.0203,196.2275 C206.6513,195.5365 206.0513,195.0155 205.6643,194.3515 C205.1923,193.5415 203.9363,193.0275 203.6523,192.2955 C203.1243,190.9335 200.9823,190.4905 200.4353,189.0465 C200.3743,188.8895 197.6083,188.5485 197.3493,188.5125 C194.4763,188.1225 191.6093,188.0245 189.5443,189.4275 C187.2993,190.9555 187.8983,194.7845 185.4213,196.2685 C184.3203,196.9295 182.2473,195.3585 181.0833,194.7225 C180.0323,194.1485 178.9453,193.6705 177.8993,193.0815 C177.1003,192.6305 176.1263,191.3845 175.3203,191.1215 C173.6133,190.5655 172.6133,188.2715 172.2773,186.8955 C172.0503,185.9675 172.3103,185.2425 171.8793,184.2885 C171.4963,183.4375 170.9643,182.6395 170.7923,181.7625 C170.4683,180.1245 168.8393,179.5105 167.4203,178.7145 C165.4353,177.6045 163.4633,175.1925 161.8313,173.5685 C160.4763,172.2205 159.4053,172.4845 158.2743,170.6575 C156.9983,168.5975 154.0213,169.2325 152.4463,169.2325 C149.9093,169.2325 147.3823,169.3345 144.7943,169.1895 C141.9203,169.0295 142.2613,170.3845 142.0823,172.4035 C141.8573,174.9625 135.7213,173.6025 133.4253,173.6025 C128.7563,173.6025 124.1153,174.0245 119.3853,173.8125 C117.1723,173.7135 114.7033,172.4005 112.4313,171.5985 C109.3033,170.4945 106.1533,169.6135 103.0173,168.5525 C97.1083,166.5565 91.1983,164.3845 85.2843,162.1935 C85.2733,161.3675 85.8213,160.8525 86.0813,160.1685 C79.0193,160.3845 72.2883,161.2825 65.4563,161.9515 C64.5923,160.0475 64.5163,158.2685 63.7673,156.3885 C62.8523,154.0945 60.7943,153.2185 58.6923,151.5875 C56.5063,149.9155 56.9583,150.8825 54.9943,150.2925 C53.6533,149.8915 54.7833,147.0305 51.5063,147.1415 C49.4983,147.2105 48.4443,146.6525 46.6303,145.0655 C44.7123,143.3895 42.5343,143.6725 40.5653,143.3075 C39.2753,143.0685 35.8813,143.7495 35.2653,141.5085 C34.8783,140.1005 35.8573,138.7935 35.2283,137.3495 C34.6253,135.9645 32.8363,136.2025 33.0793,134.6505 C33.2313,133.6795 31.3363,132.5025 30.2283,131.7475 C29.1353,131.0005 28.7483,130.0355 28.2153,129.0395 C27.4223,127.5875 24.6353,126.1475 24.4103,124.8415 C24.0573,122.7945 24.3383,122.8075 25.1673,121.4085 C26.1393,119.7715 24.3843,119.3945 22.5093,118.4645 C19.7243,117.0855 20.8853,115.7835 19.6623,114.0715 C18.9393,113.0595 19.0503,110.7845 20.2633,110.7265 C20.5323,111.2705 20.1673,111.8115 20.5363,112.3445 C21.0013,113.0145 22.1633,113.5485 22.8463,114.0445 C22.4993,111.8485 19.8823,109.3775 22.1623,108.2175 C18.3173,105.6595 21.0543,110.5405 19.2883,110.2215 C18.1563,110.0165 15.6553,107.3855 15.2613,108.8645 C15.5193,108.2075 15.3413,106.2025 16.8233,107.9745 C16.4033,107.2235 15.9613,106.4505 15.0953,105.8675 C14.5853,103.6685 10.1673,101.7815 9.2933,99.3125 Z" id="Combined-Shape"></path>
                </g>
            </g>
        </g>
    </g>
</svg>